%TF.GenerationSoftware,KiCad,Pcbnew,8.0.5*%
%TF.CreationDate,2025-06-13T07:23:07+02:00*%
%TF.ProjectId,4-Kanal_Power_Meter,342d4b61-6e61-46c5-9f50-6f7765725f4d,rev?*%
%TF.SameCoordinates,Original*%
%TF.FileFunction,Drillmap*%
%TF.FilePolarity,Positive*%
%FSLAX45Y45*%
G04 Gerber Fmt 4.5, Leading zero omitted, Abs format (unit mm)*
G04 Created by KiCad (PCBNEW 8.0.5) date 2025-06-13 07:23:07*
%MOMM*%
%LPD*%
G01*
G04 APERTURE LIST*
%ADD10C,0.150000*%
%ADD11C,0.200000*%
G04 APERTURE END LIST*
D10*
X22352000Y-6350000D02*
X7112000Y-6350000D01*
X22352000Y-11430000D02*
X22352000Y-6350000D01*
X7112000Y-6350000D02*
X7112000Y-11430000D01*
X7112000Y-11430000D02*
X22352000Y-11430000D01*
D11*
X7365277Y-11748984D02*
X7365277Y-11548984D01*
X7365277Y-11548984D02*
X7412896Y-11548984D01*
X7412896Y-11548984D02*
X7441467Y-11558508D01*
X7441467Y-11558508D02*
X7460515Y-11577555D01*
X7460515Y-11577555D02*
X7470039Y-11596603D01*
X7470039Y-11596603D02*
X7479562Y-11634698D01*
X7479562Y-11634698D02*
X7479562Y-11663269D01*
X7479562Y-11663269D02*
X7470039Y-11701365D01*
X7470039Y-11701365D02*
X7460515Y-11720412D01*
X7460515Y-11720412D02*
X7441467Y-11739460D01*
X7441467Y-11739460D02*
X7412896Y-11748984D01*
X7412896Y-11748984D02*
X7365277Y-11748984D01*
X7565277Y-11748984D02*
X7565277Y-11615650D01*
X7565277Y-11653746D02*
X7574801Y-11634698D01*
X7574801Y-11634698D02*
X7584324Y-11625174D01*
X7584324Y-11625174D02*
X7603372Y-11615650D01*
X7603372Y-11615650D02*
X7622420Y-11615650D01*
X7689086Y-11748984D02*
X7689086Y-11615650D01*
X7689086Y-11548984D02*
X7679562Y-11558508D01*
X7679562Y-11558508D02*
X7689086Y-11568031D01*
X7689086Y-11568031D02*
X7698610Y-11558508D01*
X7698610Y-11558508D02*
X7689086Y-11548984D01*
X7689086Y-11548984D02*
X7689086Y-11568031D01*
X7812896Y-11748984D02*
X7793848Y-11739460D01*
X7793848Y-11739460D02*
X7784324Y-11720412D01*
X7784324Y-11720412D02*
X7784324Y-11548984D01*
X7917658Y-11748984D02*
X7898610Y-11739460D01*
X7898610Y-11739460D02*
X7889086Y-11720412D01*
X7889086Y-11720412D02*
X7889086Y-11548984D01*
X8146229Y-11748984D02*
X8146229Y-11548984D01*
X8146229Y-11548984D02*
X8212896Y-11691841D01*
X8212896Y-11691841D02*
X8279562Y-11548984D01*
X8279562Y-11548984D02*
X8279562Y-11748984D01*
X8460515Y-11748984D02*
X8460515Y-11644222D01*
X8460515Y-11644222D02*
X8450991Y-11625174D01*
X8450991Y-11625174D02*
X8431944Y-11615650D01*
X8431944Y-11615650D02*
X8393848Y-11615650D01*
X8393848Y-11615650D02*
X8374801Y-11625174D01*
X8460515Y-11739460D02*
X8441467Y-11748984D01*
X8441467Y-11748984D02*
X8393848Y-11748984D01*
X8393848Y-11748984D02*
X8374801Y-11739460D01*
X8374801Y-11739460D02*
X8365277Y-11720412D01*
X8365277Y-11720412D02*
X8365277Y-11701365D01*
X8365277Y-11701365D02*
X8374801Y-11682317D01*
X8374801Y-11682317D02*
X8393848Y-11672793D01*
X8393848Y-11672793D02*
X8441467Y-11672793D01*
X8441467Y-11672793D02*
X8460515Y-11663269D01*
X8555753Y-11615650D02*
X8555753Y-11815650D01*
X8555753Y-11625174D02*
X8574801Y-11615650D01*
X8574801Y-11615650D02*
X8612896Y-11615650D01*
X8612896Y-11615650D02*
X8631944Y-11625174D01*
X8631944Y-11625174D02*
X8641467Y-11634698D01*
X8641467Y-11634698D02*
X8650991Y-11653746D01*
X8650991Y-11653746D02*
X8650991Y-11710888D01*
X8650991Y-11710888D02*
X8641467Y-11729936D01*
X8641467Y-11729936D02*
X8631944Y-11739460D01*
X8631944Y-11739460D02*
X8612896Y-11748984D01*
X8612896Y-11748984D02*
X8574801Y-11748984D01*
X8574801Y-11748984D02*
X8555753Y-11739460D01*
X8736705Y-11729936D02*
X8746229Y-11739460D01*
X8746229Y-11739460D02*
X8736705Y-11748984D01*
X8736705Y-11748984D02*
X8727182Y-11739460D01*
X8727182Y-11739460D02*
X8736705Y-11729936D01*
X8736705Y-11729936D02*
X8736705Y-11748984D01*
X8736705Y-11625174D02*
X8746229Y-11634698D01*
X8746229Y-11634698D02*
X8736705Y-11644222D01*
X8736705Y-11644222D02*
X8727182Y-11634698D01*
X8727182Y-11634698D02*
X8736705Y-11625174D01*
X8736705Y-11625174D02*
X8736705Y-11644222D01*
M02*
