G04 #@! TF.GenerationSoftware,KiCad,Pcbnew,8.0.5*
G04 #@! TF.CreationDate,2025-06-13T07:23:11+02:00*
G04 #@! TF.ProjectId,4-Kanal_Power_Meter,342d4b61-6e61-46c5-9f50-6f7765725f4d,rev?*
G04 #@! TF.SameCoordinates,Original*
G04 #@! TF.FileFunction,Legend,Top*
G04 #@! TF.FilePolarity,Positive*
%FSLAX46Y46*%
G04 Gerber Fmt 4.6, Leading zero omitted, Abs format (unit mm)*
G04 Created by KiCad (PCBNEW 8.0.5) date 2025-06-13 07:23:11*
%MOMM*%
%LPD*%
G01*
G04 APERTURE LIST*
%ADD10C,0.375000*%
%ADD11C,0.200000*%
%ADD12C,0.150000*%
%ADD13C,0.120000*%
%ADD14C,0.000000*%
G04 APERTURE END LIST*
D10*
X183661258Y-66026896D02*
X183661258Y-67026896D01*
X183304115Y-65455468D02*
X182946972Y-66526896D01*
X182946972Y-66526896D02*
X183875543Y-66526896D01*
X184446971Y-66455468D02*
X185589829Y-66455468D01*
X186304114Y-67026896D02*
X186304114Y-65526896D01*
X187161257Y-67026896D02*
X186518400Y-66169753D01*
X187161257Y-65526896D02*
X186304114Y-66384039D01*
X188446972Y-67026896D02*
X188446972Y-66241182D01*
X188446972Y-66241182D02*
X188375543Y-66098325D01*
X188375543Y-66098325D02*
X188232686Y-66026896D01*
X188232686Y-66026896D02*
X187946972Y-66026896D01*
X187946972Y-66026896D02*
X187804114Y-66098325D01*
X188446972Y-66955468D02*
X188304114Y-67026896D01*
X188304114Y-67026896D02*
X187946972Y-67026896D01*
X187946972Y-67026896D02*
X187804114Y-66955468D01*
X187804114Y-66955468D02*
X187732686Y-66812610D01*
X187732686Y-66812610D02*
X187732686Y-66669753D01*
X187732686Y-66669753D02*
X187804114Y-66526896D01*
X187804114Y-66526896D02*
X187946972Y-66455468D01*
X187946972Y-66455468D02*
X188304114Y-66455468D01*
X188304114Y-66455468D02*
X188446972Y-66384039D01*
X189161257Y-66026896D02*
X189161257Y-67026896D01*
X189161257Y-66169753D02*
X189232686Y-66098325D01*
X189232686Y-66098325D02*
X189375543Y-66026896D01*
X189375543Y-66026896D02*
X189589829Y-66026896D01*
X189589829Y-66026896D02*
X189732686Y-66098325D01*
X189732686Y-66098325D02*
X189804115Y-66241182D01*
X189804115Y-66241182D02*
X189804115Y-67026896D01*
X191161258Y-67026896D02*
X191161258Y-66241182D01*
X191161258Y-66241182D02*
X191089829Y-66098325D01*
X191089829Y-66098325D02*
X190946972Y-66026896D01*
X190946972Y-66026896D02*
X190661258Y-66026896D01*
X190661258Y-66026896D02*
X190518400Y-66098325D01*
X191161258Y-66955468D02*
X191018400Y-67026896D01*
X191018400Y-67026896D02*
X190661258Y-67026896D01*
X190661258Y-67026896D02*
X190518400Y-66955468D01*
X190518400Y-66955468D02*
X190446972Y-66812610D01*
X190446972Y-66812610D02*
X190446972Y-66669753D01*
X190446972Y-66669753D02*
X190518400Y-66526896D01*
X190518400Y-66526896D02*
X190661258Y-66455468D01*
X190661258Y-66455468D02*
X191018400Y-66455468D01*
X191018400Y-66455468D02*
X191161258Y-66384039D01*
X192089829Y-67026896D02*
X191946972Y-66955468D01*
X191946972Y-66955468D02*
X191875543Y-66812610D01*
X191875543Y-66812610D02*
X191875543Y-65526896D01*
X193661257Y-65526896D02*
X194018400Y-67026896D01*
X194018400Y-67026896D02*
X194304114Y-65955468D01*
X194304114Y-65955468D02*
X194589829Y-67026896D01*
X194589829Y-67026896D02*
X194946972Y-65526896D01*
X196232686Y-67026896D02*
X195518400Y-67026896D01*
X195518400Y-67026896D02*
X195518400Y-65526896D01*
X196661258Y-66598325D02*
X197375544Y-66598325D01*
X196518401Y-67026896D02*
X197018401Y-65526896D01*
X197018401Y-65526896D02*
X197518401Y-67026896D01*
X198018400Y-67026896D02*
X198018400Y-65526896D01*
X198018400Y-65526896D02*
X198875543Y-67026896D01*
X198875543Y-67026896D02*
X198875543Y-65526896D01*
X200732686Y-67026896D02*
X200732686Y-65526896D01*
X200732686Y-65526896D02*
X201304115Y-65526896D01*
X201304115Y-65526896D02*
X201446972Y-65598325D01*
X201446972Y-65598325D02*
X201518401Y-65669753D01*
X201518401Y-65669753D02*
X201589829Y-65812610D01*
X201589829Y-65812610D02*
X201589829Y-66026896D01*
X201589829Y-66026896D02*
X201518401Y-66169753D01*
X201518401Y-66169753D02*
X201446972Y-66241182D01*
X201446972Y-66241182D02*
X201304115Y-66312610D01*
X201304115Y-66312610D02*
X200732686Y-66312610D01*
X202446972Y-67026896D02*
X202304115Y-66955468D01*
X202304115Y-66955468D02*
X202232686Y-66884039D01*
X202232686Y-66884039D02*
X202161258Y-66741182D01*
X202161258Y-66741182D02*
X202161258Y-66312610D01*
X202161258Y-66312610D02*
X202232686Y-66169753D01*
X202232686Y-66169753D02*
X202304115Y-66098325D01*
X202304115Y-66098325D02*
X202446972Y-66026896D01*
X202446972Y-66026896D02*
X202661258Y-66026896D01*
X202661258Y-66026896D02*
X202804115Y-66098325D01*
X202804115Y-66098325D02*
X202875544Y-66169753D01*
X202875544Y-66169753D02*
X202946972Y-66312610D01*
X202946972Y-66312610D02*
X202946972Y-66741182D01*
X202946972Y-66741182D02*
X202875544Y-66884039D01*
X202875544Y-66884039D02*
X202804115Y-66955468D01*
X202804115Y-66955468D02*
X202661258Y-67026896D01*
X202661258Y-67026896D02*
X202446972Y-67026896D01*
X203446972Y-66026896D02*
X203732687Y-67026896D01*
X203732687Y-67026896D02*
X204018401Y-66312610D01*
X204018401Y-66312610D02*
X204304115Y-67026896D01*
X204304115Y-67026896D02*
X204589829Y-66026896D01*
X205732687Y-66955468D02*
X205589830Y-67026896D01*
X205589830Y-67026896D02*
X205304116Y-67026896D01*
X205304116Y-67026896D02*
X205161258Y-66955468D01*
X205161258Y-66955468D02*
X205089830Y-66812610D01*
X205089830Y-66812610D02*
X205089830Y-66241182D01*
X205089830Y-66241182D02*
X205161258Y-66098325D01*
X205161258Y-66098325D02*
X205304116Y-66026896D01*
X205304116Y-66026896D02*
X205589830Y-66026896D01*
X205589830Y-66026896D02*
X205732687Y-66098325D01*
X205732687Y-66098325D02*
X205804116Y-66241182D01*
X205804116Y-66241182D02*
X205804116Y-66384039D01*
X205804116Y-66384039D02*
X205089830Y-66526896D01*
X206446972Y-67026896D02*
X206446972Y-66026896D01*
X206446972Y-66312610D02*
X206518401Y-66169753D01*
X206518401Y-66169753D02*
X206589830Y-66098325D01*
X206589830Y-66098325D02*
X206732687Y-66026896D01*
X206732687Y-66026896D02*
X206875544Y-66026896D01*
X207375543Y-67026896D02*
X207375543Y-66026896D01*
X207375543Y-66169753D02*
X207446972Y-66098325D01*
X207446972Y-66098325D02*
X207589829Y-66026896D01*
X207589829Y-66026896D02*
X207804115Y-66026896D01*
X207804115Y-66026896D02*
X207946972Y-66098325D01*
X207946972Y-66098325D02*
X208018401Y-66241182D01*
X208018401Y-66241182D02*
X208018401Y-67026896D01*
X208018401Y-66241182D02*
X208089829Y-66098325D01*
X208089829Y-66098325D02*
X208232686Y-66026896D01*
X208232686Y-66026896D02*
X208446972Y-66026896D01*
X208446972Y-66026896D02*
X208589829Y-66098325D01*
X208589829Y-66098325D02*
X208661258Y-66241182D01*
X208661258Y-66241182D02*
X208661258Y-67026896D01*
X209946972Y-66955468D02*
X209804115Y-67026896D01*
X209804115Y-67026896D02*
X209518401Y-67026896D01*
X209518401Y-67026896D02*
X209375543Y-66955468D01*
X209375543Y-66955468D02*
X209304115Y-66812610D01*
X209304115Y-66812610D02*
X209304115Y-66241182D01*
X209304115Y-66241182D02*
X209375543Y-66098325D01*
X209375543Y-66098325D02*
X209518401Y-66026896D01*
X209518401Y-66026896D02*
X209804115Y-66026896D01*
X209804115Y-66026896D02*
X209946972Y-66098325D01*
X209946972Y-66098325D02*
X210018401Y-66241182D01*
X210018401Y-66241182D02*
X210018401Y-66384039D01*
X210018401Y-66384039D02*
X209304115Y-66526896D01*
X210446972Y-66026896D02*
X211018400Y-66026896D01*
X210661257Y-65526896D02*
X210661257Y-66812610D01*
X210661257Y-66812610D02*
X210732686Y-66955468D01*
X210732686Y-66955468D02*
X210875543Y-67026896D01*
X210875543Y-67026896D02*
X211018400Y-67026896D01*
X212089829Y-66955468D02*
X211946972Y-67026896D01*
X211946972Y-67026896D02*
X211661258Y-67026896D01*
X211661258Y-67026896D02*
X211518400Y-66955468D01*
X211518400Y-66955468D02*
X211446972Y-66812610D01*
X211446972Y-66812610D02*
X211446972Y-66241182D01*
X211446972Y-66241182D02*
X211518400Y-66098325D01*
X211518400Y-66098325D02*
X211661258Y-66026896D01*
X211661258Y-66026896D02*
X211946972Y-66026896D01*
X211946972Y-66026896D02*
X212089829Y-66098325D01*
X212089829Y-66098325D02*
X212161258Y-66241182D01*
X212161258Y-66241182D02*
X212161258Y-66384039D01*
X212161258Y-66384039D02*
X211446972Y-66526896D01*
X212804114Y-67026896D02*
X212804114Y-66026896D01*
X212804114Y-66312610D02*
X212875543Y-66169753D01*
X212875543Y-66169753D02*
X212946972Y-66098325D01*
X212946972Y-66098325D02*
X213089829Y-66026896D01*
X213089829Y-66026896D02*
X213232686Y-66026896D01*
X187232686Y-69441812D02*
X187232686Y-67941812D01*
X187232686Y-67941812D02*
X187804115Y-67941812D01*
X187804115Y-67941812D02*
X187946972Y-68013241D01*
X187946972Y-68013241D02*
X188018401Y-68084669D01*
X188018401Y-68084669D02*
X188089829Y-68227526D01*
X188089829Y-68227526D02*
X188089829Y-68441812D01*
X188089829Y-68441812D02*
X188018401Y-68584669D01*
X188018401Y-68584669D02*
X187946972Y-68656098D01*
X187946972Y-68656098D02*
X187804115Y-68727526D01*
X187804115Y-68727526D02*
X187232686Y-68727526D01*
X188732686Y-69441812D02*
X188732686Y-68441812D01*
X188732686Y-68727526D02*
X188804115Y-68584669D01*
X188804115Y-68584669D02*
X188875544Y-68513241D01*
X188875544Y-68513241D02*
X189018401Y-68441812D01*
X189018401Y-68441812D02*
X189161258Y-68441812D01*
X189875543Y-69441812D02*
X189732686Y-69370384D01*
X189732686Y-69370384D02*
X189661257Y-69298955D01*
X189661257Y-69298955D02*
X189589829Y-69156098D01*
X189589829Y-69156098D02*
X189589829Y-68727526D01*
X189589829Y-68727526D02*
X189661257Y-68584669D01*
X189661257Y-68584669D02*
X189732686Y-68513241D01*
X189732686Y-68513241D02*
X189875543Y-68441812D01*
X189875543Y-68441812D02*
X190089829Y-68441812D01*
X190089829Y-68441812D02*
X190232686Y-68513241D01*
X190232686Y-68513241D02*
X190304115Y-68584669D01*
X190304115Y-68584669D02*
X190375543Y-68727526D01*
X190375543Y-68727526D02*
X190375543Y-69156098D01*
X190375543Y-69156098D02*
X190304115Y-69298955D01*
X190304115Y-69298955D02*
X190232686Y-69370384D01*
X190232686Y-69370384D02*
X190089829Y-69441812D01*
X190089829Y-69441812D02*
X189875543Y-69441812D01*
X192161257Y-69441812D02*
X192161257Y-67941812D01*
X193018400Y-69441812D02*
X192375543Y-68584669D01*
X193018400Y-67941812D02*
X192161257Y-68798955D01*
X194304115Y-69441812D02*
X194304115Y-68656098D01*
X194304115Y-68656098D02*
X194232686Y-68513241D01*
X194232686Y-68513241D02*
X194089829Y-68441812D01*
X194089829Y-68441812D02*
X193804115Y-68441812D01*
X193804115Y-68441812D02*
X193661257Y-68513241D01*
X194304115Y-69370384D02*
X194161257Y-69441812D01*
X194161257Y-69441812D02*
X193804115Y-69441812D01*
X193804115Y-69441812D02*
X193661257Y-69370384D01*
X193661257Y-69370384D02*
X193589829Y-69227526D01*
X193589829Y-69227526D02*
X193589829Y-69084669D01*
X193589829Y-69084669D02*
X193661257Y-68941812D01*
X193661257Y-68941812D02*
X193804115Y-68870384D01*
X193804115Y-68870384D02*
X194161257Y-68870384D01*
X194161257Y-68870384D02*
X194304115Y-68798955D01*
X195018400Y-68441812D02*
X195018400Y-69441812D01*
X195018400Y-68584669D02*
X195089829Y-68513241D01*
X195089829Y-68513241D02*
X195232686Y-68441812D01*
X195232686Y-68441812D02*
X195446972Y-68441812D01*
X195446972Y-68441812D02*
X195589829Y-68513241D01*
X195589829Y-68513241D02*
X195661258Y-68656098D01*
X195661258Y-68656098D02*
X195661258Y-69441812D01*
X197018401Y-69441812D02*
X197018401Y-68656098D01*
X197018401Y-68656098D02*
X196946972Y-68513241D01*
X196946972Y-68513241D02*
X196804115Y-68441812D01*
X196804115Y-68441812D02*
X196518401Y-68441812D01*
X196518401Y-68441812D02*
X196375543Y-68513241D01*
X197018401Y-69370384D02*
X196875543Y-69441812D01*
X196875543Y-69441812D02*
X196518401Y-69441812D01*
X196518401Y-69441812D02*
X196375543Y-69370384D01*
X196375543Y-69370384D02*
X196304115Y-69227526D01*
X196304115Y-69227526D02*
X196304115Y-69084669D01*
X196304115Y-69084669D02*
X196375543Y-68941812D01*
X196375543Y-68941812D02*
X196518401Y-68870384D01*
X196518401Y-68870384D02*
X196875543Y-68870384D01*
X196875543Y-68870384D02*
X197018401Y-68798955D01*
X197946972Y-69441812D02*
X197804115Y-69370384D01*
X197804115Y-69370384D02*
X197732686Y-69227526D01*
X197732686Y-69227526D02*
X197732686Y-67941812D01*
X199518400Y-67941812D02*
X200446972Y-67941812D01*
X200446972Y-67941812D02*
X199946972Y-68513241D01*
X199946972Y-68513241D02*
X200161257Y-68513241D01*
X200161257Y-68513241D02*
X200304115Y-68584669D01*
X200304115Y-68584669D02*
X200375543Y-68656098D01*
X200375543Y-68656098D02*
X200446972Y-68798955D01*
X200446972Y-68798955D02*
X200446972Y-69156098D01*
X200446972Y-69156098D02*
X200375543Y-69298955D01*
X200375543Y-69298955D02*
X200304115Y-69370384D01*
X200304115Y-69370384D02*
X200161257Y-69441812D01*
X200161257Y-69441812D02*
X199732686Y-69441812D01*
X199732686Y-69441812D02*
X199589829Y-69370384D01*
X199589829Y-69370384D02*
X199518400Y-69298955D01*
X201732686Y-67941812D02*
X201446971Y-67941812D01*
X201446971Y-67941812D02*
X201304114Y-68013241D01*
X201304114Y-68013241D02*
X201232686Y-68084669D01*
X201232686Y-68084669D02*
X201089828Y-68298955D01*
X201089828Y-68298955D02*
X201018400Y-68584669D01*
X201018400Y-68584669D02*
X201018400Y-69156098D01*
X201018400Y-69156098D02*
X201089828Y-69298955D01*
X201089828Y-69298955D02*
X201161257Y-69370384D01*
X201161257Y-69370384D02*
X201304114Y-69441812D01*
X201304114Y-69441812D02*
X201589828Y-69441812D01*
X201589828Y-69441812D02*
X201732686Y-69370384D01*
X201732686Y-69370384D02*
X201804114Y-69298955D01*
X201804114Y-69298955D02*
X201875543Y-69156098D01*
X201875543Y-69156098D02*
X201875543Y-68798955D01*
X201875543Y-68798955D02*
X201804114Y-68656098D01*
X201804114Y-68656098D02*
X201732686Y-68584669D01*
X201732686Y-68584669D02*
X201589828Y-68513241D01*
X201589828Y-68513241D02*
X201304114Y-68513241D01*
X201304114Y-68513241D02*
X201161257Y-68584669D01*
X201161257Y-68584669D02*
X201089828Y-68656098D01*
X201089828Y-68656098D02*
X201018400Y-68798955D01*
X202304114Y-67941812D02*
X202804114Y-69441812D01*
X202804114Y-69441812D02*
X203304114Y-67941812D01*
X204875542Y-67870384D02*
X203589828Y-69798955D01*
X206161257Y-69441812D02*
X205304114Y-69441812D01*
X205732685Y-69441812D02*
X205732685Y-67941812D01*
X205732685Y-67941812D02*
X205589828Y-68156098D01*
X205589828Y-68156098D02*
X205446971Y-68298955D01*
X205446971Y-68298955D02*
X205304114Y-68370384D01*
X207518399Y-67941812D02*
X206804113Y-67941812D01*
X206804113Y-67941812D02*
X206732685Y-68656098D01*
X206732685Y-68656098D02*
X206804113Y-68584669D01*
X206804113Y-68584669D02*
X206946971Y-68513241D01*
X206946971Y-68513241D02*
X207304113Y-68513241D01*
X207304113Y-68513241D02*
X207446971Y-68584669D01*
X207446971Y-68584669D02*
X207518399Y-68656098D01*
X207518399Y-68656098D02*
X207589828Y-68798955D01*
X207589828Y-68798955D02*
X207589828Y-69156098D01*
X207589828Y-69156098D02*
X207518399Y-69298955D01*
X207518399Y-69298955D02*
X207446971Y-69370384D01*
X207446971Y-69370384D02*
X207304113Y-69441812D01*
X207304113Y-69441812D02*
X206946971Y-69441812D01*
X206946971Y-69441812D02*
X206804113Y-69370384D01*
X206804113Y-69370384D02*
X206732685Y-69298955D01*
X208161256Y-69013241D02*
X208875542Y-69013241D01*
X208018399Y-69441812D02*
X208518399Y-67941812D01*
X208518399Y-67941812D02*
X209018399Y-69441812D01*
X187196973Y-70356728D02*
X187482687Y-70356728D01*
X187482687Y-70356728D02*
X187625544Y-70428157D01*
X187625544Y-70428157D02*
X187768401Y-70571014D01*
X187768401Y-70571014D02*
X187839830Y-70856728D01*
X187839830Y-70856728D02*
X187839830Y-71356728D01*
X187839830Y-71356728D02*
X187768401Y-71642442D01*
X187768401Y-71642442D02*
X187625544Y-71785300D01*
X187625544Y-71785300D02*
X187482687Y-71856728D01*
X187482687Y-71856728D02*
X187196973Y-71856728D01*
X187196973Y-71856728D02*
X187054116Y-71785300D01*
X187054116Y-71785300D02*
X186911258Y-71642442D01*
X186911258Y-71642442D02*
X186839830Y-71356728D01*
X186839830Y-71356728D02*
X186839830Y-70856728D01*
X186839830Y-70856728D02*
X186911258Y-70571014D01*
X186911258Y-70571014D02*
X187054116Y-70428157D01*
X187054116Y-70428157D02*
X187196973Y-70356728D01*
X188482687Y-71071014D02*
X188982687Y-71071014D01*
X189196973Y-71856728D02*
X188482687Y-71856728D01*
X188482687Y-71856728D02*
X188482687Y-70356728D01*
X188482687Y-70356728D02*
X189196973Y-70356728D01*
X189911259Y-71856728D02*
X190196973Y-71856728D01*
X190196973Y-71856728D02*
X190339830Y-71785300D01*
X190339830Y-71785300D02*
X190411259Y-71713871D01*
X190411259Y-71713871D02*
X190554116Y-71499585D01*
X190554116Y-71499585D02*
X190625545Y-71213871D01*
X190625545Y-71213871D02*
X190625545Y-70642442D01*
X190625545Y-70642442D02*
X190554116Y-70499585D01*
X190554116Y-70499585D02*
X190482688Y-70428157D01*
X190482688Y-70428157D02*
X190339830Y-70356728D01*
X190339830Y-70356728D02*
X190054116Y-70356728D01*
X190054116Y-70356728D02*
X189911259Y-70428157D01*
X189911259Y-70428157D02*
X189839830Y-70499585D01*
X189839830Y-70499585D02*
X189768402Y-70642442D01*
X189768402Y-70642442D02*
X189768402Y-70999585D01*
X189768402Y-70999585D02*
X189839830Y-71142442D01*
X189839830Y-71142442D02*
X189911259Y-71213871D01*
X189911259Y-71213871D02*
X190054116Y-71285300D01*
X190054116Y-71285300D02*
X190339830Y-71285300D01*
X190339830Y-71285300D02*
X190482688Y-71213871D01*
X190482688Y-71213871D02*
X190554116Y-71142442D01*
X190554116Y-71142442D02*
X190625545Y-70999585D01*
X191196973Y-71785300D02*
X191411259Y-71856728D01*
X191411259Y-71856728D02*
X191768401Y-71856728D01*
X191768401Y-71856728D02*
X191911259Y-71785300D01*
X191911259Y-71785300D02*
X191982687Y-71713871D01*
X191982687Y-71713871D02*
X192054116Y-71571014D01*
X192054116Y-71571014D02*
X192054116Y-71428157D01*
X192054116Y-71428157D02*
X191982687Y-71285300D01*
X191982687Y-71285300D02*
X191911259Y-71213871D01*
X191911259Y-71213871D02*
X191768401Y-71142442D01*
X191768401Y-71142442D02*
X191482687Y-71071014D01*
X191482687Y-71071014D02*
X191339830Y-70999585D01*
X191339830Y-70999585D02*
X191268401Y-70928157D01*
X191268401Y-70928157D02*
X191196973Y-70785300D01*
X191196973Y-70785300D02*
X191196973Y-70642442D01*
X191196973Y-70642442D02*
X191268401Y-70499585D01*
X191268401Y-70499585D02*
X191339830Y-70428157D01*
X191339830Y-70428157D02*
X191482687Y-70356728D01*
X191482687Y-70356728D02*
X191839830Y-70356728D01*
X191839830Y-70356728D02*
X192054116Y-70428157D01*
X192625544Y-71428157D02*
X193339830Y-71428157D01*
X192482687Y-71856728D02*
X192982687Y-70356728D01*
X192982687Y-70356728D02*
X193482687Y-71856728D01*
X193982686Y-70356728D02*
X193982686Y-71571014D01*
X193982686Y-71571014D02*
X194054115Y-71713871D01*
X194054115Y-71713871D02*
X194125544Y-71785300D01*
X194125544Y-71785300D02*
X194268401Y-71856728D01*
X194268401Y-71856728D02*
X194554115Y-71856728D01*
X194554115Y-71856728D02*
X194696972Y-71785300D01*
X194696972Y-71785300D02*
X194768401Y-71713871D01*
X194768401Y-71713871D02*
X194839829Y-71571014D01*
X194839829Y-71571014D02*
X194839829Y-70356728D01*
X196982687Y-70356728D02*
X197125544Y-70356728D01*
X197125544Y-70356728D02*
X197268401Y-70428157D01*
X197268401Y-70428157D02*
X197339830Y-70499585D01*
X197339830Y-70499585D02*
X197411258Y-70642442D01*
X197411258Y-70642442D02*
X197482687Y-70928157D01*
X197482687Y-70928157D02*
X197482687Y-71285300D01*
X197482687Y-71285300D02*
X197411258Y-71571014D01*
X197411258Y-71571014D02*
X197339830Y-71713871D01*
X197339830Y-71713871D02*
X197268401Y-71785300D01*
X197268401Y-71785300D02*
X197125544Y-71856728D01*
X197125544Y-71856728D02*
X196982687Y-71856728D01*
X196982687Y-71856728D02*
X196839830Y-71785300D01*
X196839830Y-71785300D02*
X196768401Y-71713871D01*
X196768401Y-71713871D02*
X196696972Y-71571014D01*
X196696972Y-71571014D02*
X196625544Y-71285300D01*
X196625544Y-71285300D02*
X196625544Y-70928157D01*
X196625544Y-70928157D02*
X196696972Y-70642442D01*
X196696972Y-70642442D02*
X196768401Y-70499585D01*
X196768401Y-70499585D02*
X196839830Y-70428157D01*
X196839830Y-70428157D02*
X196982687Y-70356728D01*
X198768401Y-70356728D02*
X198482686Y-70356728D01*
X198482686Y-70356728D02*
X198339829Y-70428157D01*
X198339829Y-70428157D02*
X198268401Y-70499585D01*
X198268401Y-70499585D02*
X198125543Y-70713871D01*
X198125543Y-70713871D02*
X198054115Y-70999585D01*
X198054115Y-70999585D02*
X198054115Y-71571014D01*
X198054115Y-71571014D02*
X198125543Y-71713871D01*
X198125543Y-71713871D02*
X198196972Y-71785300D01*
X198196972Y-71785300D02*
X198339829Y-71856728D01*
X198339829Y-71856728D02*
X198625543Y-71856728D01*
X198625543Y-71856728D02*
X198768401Y-71785300D01*
X198768401Y-71785300D02*
X198839829Y-71713871D01*
X198839829Y-71713871D02*
X198911258Y-71571014D01*
X198911258Y-71571014D02*
X198911258Y-71213871D01*
X198911258Y-71213871D02*
X198839829Y-71071014D01*
X198839829Y-71071014D02*
X198768401Y-70999585D01*
X198768401Y-70999585D02*
X198625543Y-70928157D01*
X198625543Y-70928157D02*
X198339829Y-70928157D01*
X198339829Y-70928157D02*
X198196972Y-70999585D01*
X198196972Y-70999585D02*
X198125543Y-71071014D01*
X198125543Y-71071014D02*
X198054115Y-71213871D01*
X200625543Y-70285300D02*
X199339829Y-72213871D01*
X201054115Y-70499585D02*
X201125543Y-70428157D01*
X201125543Y-70428157D02*
X201268401Y-70356728D01*
X201268401Y-70356728D02*
X201625543Y-70356728D01*
X201625543Y-70356728D02*
X201768401Y-70428157D01*
X201768401Y-70428157D02*
X201839829Y-70499585D01*
X201839829Y-70499585D02*
X201911258Y-70642442D01*
X201911258Y-70642442D02*
X201911258Y-70785300D01*
X201911258Y-70785300D02*
X201839829Y-70999585D01*
X201839829Y-70999585D02*
X200982686Y-71856728D01*
X200982686Y-71856728D02*
X201911258Y-71856728D01*
X203268400Y-70356728D02*
X202554114Y-70356728D01*
X202554114Y-70356728D02*
X202482686Y-71071014D01*
X202482686Y-71071014D02*
X202554114Y-70999585D01*
X202554114Y-70999585D02*
X202696972Y-70928157D01*
X202696972Y-70928157D02*
X203054114Y-70928157D01*
X203054114Y-70928157D02*
X203196972Y-70999585D01*
X203196972Y-70999585D02*
X203268400Y-71071014D01*
X203268400Y-71071014D02*
X203339829Y-71213871D01*
X203339829Y-71213871D02*
X203339829Y-71571014D01*
X203339829Y-71571014D02*
X203268400Y-71713871D01*
X203268400Y-71713871D02*
X203196972Y-71785300D01*
X203196972Y-71785300D02*
X203054114Y-71856728D01*
X203054114Y-71856728D02*
X202696972Y-71856728D01*
X202696972Y-71856728D02*
X202554114Y-71785300D01*
X202554114Y-71785300D02*
X202482686Y-71713871D01*
X204982685Y-70856728D02*
X205339828Y-71856728D01*
X205339828Y-71856728D02*
X205696971Y-70856728D01*
X207054114Y-71856728D02*
X206196971Y-71856728D01*
X206625542Y-71856728D02*
X206625542Y-70356728D01*
X206625542Y-70356728D02*
X206482685Y-70571014D01*
X206482685Y-70571014D02*
X206339828Y-70713871D01*
X206339828Y-70713871D02*
X206196971Y-70785300D01*
X207696970Y-71713871D02*
X207768399Y-71785300D01*
X207768399Y-71785300D02*
X207696970Y-71856728D01*
X207696970Y-71856728D02*
X207625542Y-71785300D01*
X207625542Y-71785300D02*
X207696970Y-71713871D01*
X207696970Y-71713871D02*
X207696970Y-71856728D01*
X208696971Y-70356728D02*
X208839828Y-70356728D01*
X208839828Y-70356728D02*
X208982685Y-70428157D01*
X208982685Y-70428157D02*
X209054114Y-70499585D01*
X209054114Y-70499585D02*
X209125542Y-70642442D01*
X209125542Y-70642442D02*
X209196971Y-70928157D01*
X209196971Y-70928157D02*
X209196971Y-71285300D01*
X209196971Y-71285300D02*
X209125542Y-71571014D01*
X209125542Y-71571014D02*
X209054114Y-71713871D01*
X209054114Y-71713871D02*
X208982685Y-71785300D01*
X208982685Y-71785300D02*
X208839828Y-71856728D01*
X208839828Y-71856728D02*
X208696971Y-71856728D01*
X208696971Y-71856728D02*
X208554114Y-71785300D01*
X208554114Y-71785300D02*
X208482685Y-71713871D01*
X208482685Y-71713871D02*
X208411256Y-71571014D01*
X208411256Y-71571014D02*
X208339828Y-71285300D01*
X208339828Y-71285300D02*
X208339828Y-70928157D01*
X208339828Y-70928157D02*
X208411256Y-70642442D01*
X208411256Y-70642442D02*
X208482685Y-70499585D01*
X208482685Y-70499585D02*
X208554114Y-70428157D01*
X208554114Y-70428157D02*
X208696971Y-70356728D01*
D11*
X210205600Y-91058713D02*
X210205600Y-90144428D01*
X210662742Y-90601570D02*
X209748457Y-90601570D01*
X209462742Y-89001571D02*
X209462742Y-89572999D01*
X209462742Y-89572999D02*
X210034171Y-89630142D01*
X210034171Y-89630142D02*
X209977028Y-89572999D01*
X209977028Y-89572999D02*
X209919885Y-89458714D01*
X209919885Y-89458714D02*
X209919885Y-89172999D01*
X209919885Y-89172999D02*
X209977028Y-89058714D01*
X209977028Y-89058714D02*
X210034171Y-89001571D01*
X210034171Y-89001571D02*
X210148457Y-88944428D01*
X210148457Y-88944428D02*
X210434171Y-88944428D01*
X210434171Y-88944428D02*
X210548457Y-89001571D01*
X210548457Y-89001571D02*
X210605600Y-89058714D01*
X210605600Y-89058714D02*
X210662742Y-89172999D01*
X210662742Y-89172999D02*
X210662742Y-89458714D01*
X210662742Y-89458714D02*
X210605600Y-89572999D01*
X210605600Y-89572999D02*
X210548457Y-89630142D01*
X209462742Y-88601571D02*
X210662742Y-88201571D01*
X210662742Y-88201571D02*
X209462742Y-87801571D01*
X210205600Y-87401571D02*
X210205600Y-86487286D01*
X185172966Y-111994600D02*
X185287252Y-112032695D01*
X185287252Y-112032695D02*
X185477728Y-112032695D01*
X185477728Y-112032695D02*
X185553919Y-111994600D01*
X185553919Y-111994600D02*
X185592014Y-111956504D01*
X185592014Y-111956504D02*
X185630109Y-111880314D01*
X185630109Y-111880314D02*
X185630109Y-111804123D01*
X185630109Y-111804123D02*
X185592014Y-111727933D01*
X185592014Y-111727933D02*
X185553919Y-111689838D01*
X185553919Y-111689838D02*
X185477728Y-111651742D01*
X185477728Y-111651742D02*
X185325347Y-111613647D01*
X185325347Y-111613647D02*
X185249157Y-111575552D01*
X185249157Y-111575552D02*
X185211062Y-111537457D01*
X185211062Y-111537457D02*
X185172966Y-111461266D01*
X185172966Y-111461266D02*
X185172966Y-111385076D01*
X185172966Y-111385076D02*
X185211062Y-111308885D01*
X185211062Y-111308885D02*
X185249157Y-111270790D01*
X185249157Y-111270790D02*
X185325347Y-111232695D01*
X185325347Y-111232695D02*
X185515824Y-111232695D01*
X185515824Y-111232695D02*
X185630109Y-111270790D01*
X185972967Y-112032695D02*
X185972967Y-111232695D01*
X185972967Y-111232695D02*
X186163443Y-111232695D01*
X186163443Y-111232695D02*
X186277729Y-111270790D01*
X186277729Y-111270790D02*
X186353919Y-111346980D01*
X186353919Y-111346980D02*
X186392014Y-111423171D01*
X186392014Y-111423171D02*
X186430110Y-111575552D01*
X186430110Y-111575552D02*
X186430110Y-111689838D01*
X186430110Y-111689838D02*
X186392014Y-111842219D01*
X186392014Y-111842219D02*
X186353919Y-111918409D01*
X186353919Y-111918409D02*
X186277729Y-111994600D01*
X186277729Y-111994600D02*
X186163443Y-112032695D01*
X186163443Y-112032695D02*
X185972967Y-112032695D01*
X186734871Y-111804123D02*
X187115824Y-111804123D01*
X186658681Y-112032695D02*
X186925348Y-111232695D01*
X186925348Y-111232695D02*
X187192014Y-112032695D01*
X188030109Y-111994600D02*
X188144395Y-112032695D01*
X188144395Y-112032695D02*
X188334871Y-112032695D01*
X188334871Y-112032695D02*
X188411062Y-111994600D01*
X188411062Y-111994600D02*
X188449157Y-111956504D01*
X188449157Y-111956504D02*
X188487252Y-111880314D01*
X188487252Y-111880314D02*
X188487252Y-111804123D01*
X188487252Y-111804123D02*
X188449157Y-111727933D01*
X188449157Y-111727933D02*
X188411062Y-111689838D01*
X188411062Y-111689838D02*
X188334871Y-111651742D01*
X188334871Y-111651742D02*
X188182490Y-111613647D01*
X188182490Y-111613647D02*
X188106300Y-111575552D01*
X188106300Y-111575552D02*
X188068205Y-111537457D01*
X188068205Y-111537457D02*
X188030109Y-111461266D01*
X188030109Y-111461266D02*
X188030109Y-111385076D01*
X188030109Y-111385076D02*
X188068205Y-111308885D01*
X188068205Y-111308885D02*
X188106300Y-111270790D01*
X188106300Y-111270790D02*
X188182490Y-111232695D01*
X188182490Y-111232695D02*
X188372967Y-111232695D01*
X188372967Y-111232695D02*
X188487252Y-111270790D01*
X189287253Y-111956504D02*
X189249157Y-111994600D01*
X189249157Y-111994600D02*
X189134872Y-112032695D01*
X189134872Y-112032695D02*
X189058681Y-112032695D01*
X189058681Y-112032695D02*
X188944395Y-111994600D01*
X188944395Y-111994600D02*
X188868205Y-111918409D01*
X188868205Y-111918409D02*
X188830110Y-111842219D01*
X188830110Y-111842219D02*
X188792014Y-111689838D01*
X188792014Y-111689838D02*
X188792014Y-111575552D01*
X188792014Y-111575552D02*
X188830110Y-111423171D01*
X188830110Y-111423171D02*
X188868205Y-111346980D01*
X188868205Y-111346980D02*
X188944395Y-111270790D01*
X188944395Y-111270790D02*
X189058681Y-111232695D01*
X189058681Y-111232695D02*
X189134872Y-111232695D01*
X189134872Y-111232695D02*
X189249157Y-111270790D01*
X189249157Y-111270790D02*
X189287253Y-111308885D01*
X190011062Y-112032695D02*
X189630110Y-112032695D01*
X189630110Y-112032695D02*
X189630110Y-111232695D01*
X191306300Y-111270790D02*
X191230110Y-111232695D01*
X191230110Y-111232695D02*
X191115824Y-111232695D01*
X191115824Y-111232695D02*
X191001538Y-111270790D01*
X191001538Y-111270790D02*
X190925348Y-111346980D01*
X190925348Y-111346980D02*
X190887253Y-111423171D01*
X190887253Y-111423171D02*
X190849157Y-111575552D01*
X190849157Y-111575552D02*
X190849157Y-111689838D01*
X190849157Y-111689838D02*
X190887253Y-111842219D01*
X190887253Y-111842219D02*
X190925348Y-111918409D01*
X190925348Y-111918409D02*
X191001538Y-111994600D01*
X191001538Y-111994600D02*
X191115824Y-112032695D01*
X191115824Y-112032695D02*
X191192015Y-112032695D01*
X191192015Y-112032695D02*
X191306300Y-111994600D01*
X191306300Y-111994600D02*
X191344396Y-111956504D01*
X191344396Y-111956504D02*
X191344396Y-111689838D01*
X191344396Y-111689838D02*
X191192015Y-111689838D01*
X191687253Y-112032695D02*
X191687253Y-111232695D01*
X191687253Y-111232695D02*
X192144396Y-112032695D01*
X192144396Y-112032695D02*
X192144396Y-111232695D01*
X192525348Y-112032695D02*
X192525348Y-111232695D01*
X192525348Y-111232695D02*
X192715824Y-111232695D01*
X192715824Y-111232695D02*
X192830110Y-111270790D01*
X192830110Y-111270790D02*
X192906300Y-111346980D01*
X192906300Y-111346980D02*
X192944395Y-111423171D01*
X192944395Y-111423171D02*
X192982491Y-111575552D01*
X192982491Y-111575552D02*
X192982491Y-111689838D01*
X192982491Y-111689838D02*
X192944395Y-111842219D01*
X192944395Y-111842219D02*
X192906300Y-111918409D01*
X192906300Y-111918409D02*
X192830110Y-111994600D01*
X192830110Y-111994600D02*
X192715824Y-112032695D01*
X192715824Y-112032695D02*
X192525348Y-112032695D01*
X194315824Y-111232695D02*
X193934872Y-111232695D01*
X193934872Y-111232695D02*
X193896776Y-111613647D01*
X193896776Y-111613647D02*
X193934872Y-111575552D01*
X193934872Y-111575552D02*
X194011062Y-111537457D01*
X194011062Y-111537457D02*
X194201538Y-111537457D01*
X194201538Y-111537457D02*
X194277729Y-111575552D01*
X194277729Y-111575552D02*
X194315824Y-111613647D01*
X194315824Y-111613647D02*
X194353919Y-111689838D01*
X194353919Y-111689838D02*
X194353919Y-111880314D01*
X194353919Y-111880314D02*
X194315824Y-111956504D01*
X194315824Y-111956504D02*
X194277729Y-111994600D01*
X194277729Y-111994600D02*
X194201538Y-112032695D01*
X194201538Y-112032695D02*
X194011062Y-112032695D01*
X194011062Y-112032695D02*
X193934872Y-111994600D01*
X193934872Y-111994600D02*
X193896776Y-111956504D01*
X194582491Y-111232695D02*
X194849158Y-112032695D01*
X194849158Y-112032695D02*
X195115824Y-111232695D01*
D12*
X146323404Y-84973232D02*
X146361500Y-85011328D01*
X146361500Y-85011328D02*
X146399595Y-85125613D01*
X146399595Y-85125613D02*
X146399595Y-85201804D01*
X146399595Y-85201804D02*
X146361500Y-85316090D01*
X146361500Y-85316090D02*
X146285309Y-85392280D01*
X146285309Y-85392280D02*
X146209119Y-85430375D01*
X146209119Y-85430375D02*
X146056738Y-85468471D01*
X146056738Y-85468471D02*
X145942452Y-85468471D01*
X145942452Y-85468471D02*
X145790071Y-85430375D01*
X145790071Y-85430375D02*
X145713880Y-85392280D01*
X145713880Y-85392280D02*
X145637690Y-85316090D01*
X145637690Y-85316090D02*
X145599595Y-85201804D01*
X145599595Y-85201804D02*
X145599595Y-85125613D01*
X145599595Y-85125613D02*
X145637690Y-85011328D01*
X145637690Y-85011328D02*
X145675785Y-84973232D01*
X145599595Y-84706566D02*
X145599595Y-84211328D01*
X145599595Y-84211328D02*
X145904357Y-84477994D01*
X145904357Y-84477994D02*
X145904357Y-84363709D01*
X145904357Y-84363709D02*
X145942452Y-84287518D01*
X145942452Y-84287518D02*
X145980547Y-84249423D01*
X145980547Y-84249423D02*
X146056738Y-84211328D01*
X146056738Y-84211328D02*
X146247214Y-84211328D01*
X146247214Y-84211328D02*
X146323404Y-84249423D01*
X146323404Y-84249423D02*
X146361500Y-84287518D01*
X146361500Y-84287518D02*
X146399595Y-84363709D01*
X146399595Y-84363709D02*
X146399595Y-84592280D01*
X146399595Y-84592280D02*
X146361500Y-84668471D01*
X146361500Y-84668471D02*
X146323404Y-84706566D01*
X94922776Y-90556695D02*
X94922776Y-91204314D01*
X94922776Y-91204314D02*
X94960871Y-91280504D01*
X94960871Y-91280504D02*
X94998966Y-91318600D01*
X94998966Y-91318600D02*
X95075157Y-91356695D01*
X95075157Y-91356695D02*
X95227538Y-91356695D01*
X95227538Y-91356695D02*
X95303728Y-91318600D01*
X95303728Y-91318600D02*
X95341823Y-91280504D01*
X95341823Y-91280504D02*
X95379919Y-91204314D01*
X95379919Y-91204314D02*
X95379919Y-90556695D01*
X96179918Y-91356695D02*
X95722775Y-91356695D01*
X95951347Y-91356695D02*
X95951347Y-90556695D01*
X95951347Y-90556695D02*
X95875156Y-90670980D01*
X95875156Y-90670980D02*
X95798966Y-90747171D01*
X95798966Y-90747171D02*
X95722775Y-90785266D01*
X85176519Y-88916266D02*
X84700328Y-89249599D01*
X85176519Y-89487694D02*
X84176519Y-89487694D01*
X84176519Y-89487694D02*
X84176519Y-89106742D01*
X84176519Y-89106742D02*
X84224138Y-89011504D01*
X84224138Y-89011504D02*
X84271757Y-88963885D01*
X84271757Y-88963885D02*
X84366995Y-88916266D01*
X84366995Y-88916266D02*
X84509852Y-88916266D01*
X84509852Y-88916266D02*
X84605090Y-88963885D01*
X84605090Y-88963885D02*
X84652709Y-89011504D01*
X84652709Y-89011504D02*
X84700328Y-89106742D01*
X84700328Y-89106742D02*
X84700328Y-89487694D01*
X85176519Y-87963885D02*
X85176519Y-88535313D01*
X85176519Y-88249599D02*
X84176519Y-88249599D01*
X84176519Y-88249599D02*
X84319376Y-88344837D01*
X84319376Y-88344837D02*
X84414614Y-88440075D01*
X84414614Y-88440075D02*
X84462233Y-88535313D01*
X162151219Y-88939666D02*
X161675028Y-89272999D01*
X162151219Y-89511094D02*
X161151219Y-89511094D01*
X161151219Y-89511094D02*
X161151219Y-89130142D01*
X161151219Y-89130142D02*
X161198838Y-89034904D01*
X161198838Y-89034904D02*
X161246457Y-88987285D01*
X161246457Y-88987285D02*
X161341695Y-88939666D01*
X161341695Y-88939666D02*
X161484552Y-88939666D01*
X161484552Y-88939666D02*
X161579790Y-88987285D01*
X161579790Y-88987285D02*
X161627409Y-89034904D01*
X161627409Y-89034904D02*
X161675028Y-89130142D01*
X161675028Y-89130142D02*
X161675028Y-89511094D01*
X161484552Y-88082523D02*
X162151219Y-88082523D01*
X161103600Y-88320618D02*
X161817885Y-88558713D01*
X161817885Y-88558713D02*
X161817885Y-87939666D01*
X95193204Y-84816932D02*
X95231300Y-84855028D01*
X95231300Y-84855028D02*
X95269395Y-84969313D01*
X95269395Y-84969313D02*
X95269395Y-85045504D01*
X95269395Y-85045504D02*
X95231300Y-85159790D01*
X95231300Y-85159790D02*
X95155109Y-85235980D01*
X95155109Y-85235980D02*
X95078919Y-85274075D01*
X95078919Y-85274075D02*
X94926538Y-85312171D01*
X94926538Y-85312171D02*
X94812252Y-85312171D01*
X94812252Y-85312171D02*
X94659871Y-85274075D01*
X94659871Y-85274075D02*
X94583680Y-85235980D01*
X94583680Y-85235980D02*
X94507490Y-85159790D01*
X94507490Y-85159790D02*
X94469395Y-85045504D01*
X94469395Y-85045504D02*
X94469395Y-84969313D01*
X94469395Y-84969313D02*
X94507490Y-84855028D01*
X94507490Y-84855028D02*
X94545585Y-84816932D01*
X95269395Y-84055028D02*
X95269395Y-84512171D01*
X95269395Y-84283599D02*
X94469395Y-84283599D01*
X94469395Y-84283599D02*
X94583680Y-84359790D01*
X94583680Y-84359790D02*
X94659871Y-84435980D01*
X94659871Y-84435980D02*
X94697966Y-84512171D01*
X194837395Y-80956132D02*
X194456442Y-81222799D01*
X194837395Y-81413275D02*
X194037395Y-81413275D01*
X194037395Y-81413275D02*
X194037395Y-81108513D01*
X194037395Y-81108513D02*
X194075490Y-81032323D01*
X194075490Y-81032323D02*
X194113585Y-80994228D01*
X194113585Y-80994228D02*
X194189776Y-80956132D01*
X194189776Y-80956132D02*
X194304061Y-80956132D01*
X194304061Y-80956132D02*
X194380252Y-80994228D01*
X194380252Y-80994228D02*
X194418347Y-81032323D01*
X194418347Y-81032323D02*
X194456442Y-81108513D01*
X194456442Y-81108513D02*
X194456442Y-81413275D01*
X194037395Y-80270418D02*
X194037395Y-80422799D01*
X194037395Y-80422799D02*
X194075490Y-80498990D01*
X194075490Y-80498990D02*
X194113585Y-80537085D01*
X194113585Y-80537085D02*
X194227871Y-80613275D01*
X194227871Y-80613275D02*
X194380252Y-80651371D01*
X194380252Y-80651371D02*
X194685014Y-80651371D01*
X194685014Y-80651371D02*
X194761204Y-80613275D01*
X194761204Y-80613275D02*
X194799300Y-80575180D01*
X194799300Y-80575180D02*
X194837395Y-80498990D01*
X194837395Y-80498990D02*
X194837395Y-80346609D01*
X194837395Y-80346609D02*
X194799300Y-80270418D01*
X194799300Y-80270418D02*
X194761204Y-80232323D01*
X194761204Y-80232323D02*
X194685014Y-80194228D01*
X194685014Y-80194228D02*
X194494538Y-80194228D01*
X194494538Y-80194228D02*
X194418347Y-80232323D01*
X194418347Y-80232323D02*
X194380252Y-80270418D01*
X194380252Y-80270418D02*
X194342157Y-80346609D01*
X194342157Y-80346609D02*
X194342157Y-80498990D01*
X194342157Y-80498990D02*
X194380252Y-80575180D01*
X194380252Y-80575180D02*
X194418347Y-80613275D01*
X194418347Y-80613275D02*
X194494538Y-80651371D01*
X136713119Y-88965066D02*
X136236928Y-89298399D01*
X136713119Y-89536494D02*
X135713119Y-89536494D01*
X135713119Y-89536494D02*
X135713119Y-89155542D01*
X135713119Y-89155542D02*
X135760738Y-89060304D01*
X135760738Y-89060304D02*
X135808357Y-89012685D01*
X135808357Y-89012685D02*
X135903595Y-88965066D01*
X135903595Y-88965066D02*
X136046452Y-88965066D01*
X136046452Y-88965066D02*
X136141690Y-89012685D01*
X136141690Y-89012685D02*
X136189309Y-89060304D01*
X136189309Y-89060304D02*
X136236928Y-89155542D01*
X136236928Y-89155542D02*
X136236928Y-89536494D01*
X135713119Y-88631732D02*
X135713119Y-88012685D01*
X135713119Y-88012685D02*
X136094071Y-88346018D01*
X136094071Y-88346018D02*
X136094071Y-88203161D01*
X136094071Y-88203161D02*
X136141690Y-88107923D01*
X136141690Y-88107923D02*
X136189309Y-88060304D01*
X136189309Y-88060304D02*
X136284547Y-88012685D01*
X136284547Y-88012685D02*
X136522642Y-88012685D01*
X136522642Y-88012685D02*
X136617880Y-88060304D01*
X136617880Y-88060304D02*
X136665500Y-88107923D01*
X136665500Y-88107923D02*
X136713119Y-88203161D01*
X136713119Y-88203161D02*
X136713119Y-88488875D01*
X136713119Y-88488875D02*
X136665500Y-88584113D01*
X136665500Y-88584113D02*
X136617880Y-88631732D01*
X121253604Y-84867732D02*
X121291700Y-84905828D01*
X121291700Y-84905828D02*
X121329795Y-85020113D01*
X121329795Y-85020113D02*
X121329795Y-85096304D01*
X121329795Y-85096304D02*
X121291700Y-85210590D01*
X121291700Y-85210590D02*
X121215509Y-85286780D01*
X121215509Y-85286780D02*
X121139319Y-85324875D01*
X121139319Y-85324875D02*
X120986938Y-85362971D01*
X120986938Y-85362971D02*
X120872652Y-85362971D01*
X120872652Y-85362971D02*
X120720271Y-85324875D01*
X120720271Y-85324875D02*
X120644080Y-85286780D01*
X120644080Y-85286780D02*
X120567890Y-85210590D01*
X120567890Y-85210590D02*
X120529795Y-85096304D01*
X120529795Y-85096304D02*
X120529795Y-85020113D01*
X120529795Y-85020113D02*
X120567890Y-84905828D01*
X120567890Y-84905828D02*
X120605985Y-84867732D01*
X120605985Y-84562971D02*
X120567890Y-84524875D01*
X120567890Y-84524875D02*
X120529795Y-84448685D01*
X120529795Y-84448685D02*
X120529795Y-84258209D01*
X120529795Y-84258209D02*
X120567890Y-84182018D01*
X120567890Y-84182018D02*
X120605985Y-84143923D01*
X120605985Y-84143923D02*
X120682176Y-84105828D01*
X120682176Y-84105828D02*
X120758366Y-84105828D01*
X120758366Y-84105828D02*
X120872652Y-84143923D01*
X120872652Y-84143923D02*
X121329795Y-84601066D01*
X121329795Y-84601066D02*
X121329795Y-84105828D01*
X171850404Y-84715332D02*
X171888500Y-84753428D01*
X171888500Y-84753428D02*
X171926595Y-84867713D01*
X171926595Y-84867713D02*
X171926595Y-84943904D01*
X171926595Y-84943904D02*
X171888500Y-85058190D01*
X171888500Y-85058190D02*
X171812309Y-85134380D01*
X171812309Y-85134380D02*
X171736119Y-85172475D01*
X171736119Y-85172475D02*
X171583738Y-85210571D01*
X171583738Y-85210571D02*
X171469452Y-85210571D01*
X171469452Y-85210571D02*
X171317071Y-85172475D01*
X171317071Y-85172475D02*
X171240880Y-85134380D01*
X171240880Y-85134380D02*
X171164690Y-85058190D01*
X171164690Y-85058190D02*
X171126595Y-84943904D01*
X171126595Y-84943904D02*
X171126595Y-84867713D01*
X171126595Y-84867713D02*
X171164690Y-84753428D01*
X171164690Y-84753428D02*
X171202785Y-84715332D01*
X171393261Y-84029618D02*
X171926595Y-84029618D01*
X171088500Y-84220094D02*
X171659928Y-84410571D01*
X171659928Y-84410571D02*
X171659928Y-83915332D01*
X120779976Y-90540695D02*
X120779976Y-91188314D01*
X120779976Y-91188314D02*
X120818071Y-91264504D01*
X120818071Y-91264504D02*
X120856166Y-91302600D01*
X120856166Y-91302600D02*
X120932357Y-91340695D01*
X120932357Y-91340695D02*
X121084738Y-91340695D01*
X121084738Y-91340695D02*
X121160928Y-91302600D01*
X121160928Y-91302600D02*
X121199023Y-91264504D01*
X121199023Y-91264504D02*
X121237119Y-91188314D01*
X121237119Y-91188314D02*
X121237119Y-90540695D01*
X121579975Y-90616885D02*
X121618071Y-90578790D01*
X121618071Y-90578790D02*
X121694261Y-90540695D01*
X121694261Y-90540695D02*
X121884737Y-90540695D01*
X121884737Y-90540695D02*
X121960928Y-90578790D01*
X121960928Y-90578790D02*
X121999023Y-90616885D01*
X121999023Y-90616885D02*
X122037118Y-90693076D01*
X122037118Y-90693076D02*
X122037118Y-90769266D01*
X122037118Y-90769266D02*
X121999023Y-90883552D01*
X121999023Y-90883552D02*
X121541880Y-91340695D01*
X121541880Y-91340695D02*
X122037118Y-91340695D01*
X111325819Y-88965066D02*
X110849628Y-89298399D01*
X111325819Y-89536494D02*
X110325819Y-89536494D01*
X110325819Y-89536494D02*
X110325819Y-89155542D01*
X110325819Y-89155542D02*
X110373438Y-89060304D01*
X110373438Y-89060304D02*
X110421057Y-89012685D01*
X110421057Y-89012685D02*
X110516295Y-88965066D01*
X110516295Y-88965066D02*
X110659152Y-88965066D01*
X110659152Y-88965066D02*
X110754390Y-89012685D01*
X110754390Y-89012685D02*
X110802009Y-89060304D01*
X110802009Y-89060304D02*
X110849628Y-89155542D01*
X110849628Y-89155542D02*
X110849628Y-89536494D01*
X110421057Y-88584113D02*
X110373438Y-88536494D01*
X110373438Y-88536494D02*
X110325819Y-88441256D01*
X110325819Y-88441256D02*
X110325819Y-88203161D01*
X110325819Y-88203161D02*
X110373438Y-88107923D01*
X110373438Y-88107923D02*
X110421057Y-88060304D01*
X110421057Y-88060304D02*
X110516295Y-88012685D01*
X110516295Y-88012685D02*
X110611533Y-88012685D01*
X110611533Y-88012685D02*
X110754390Y-88060304D01*
X110754390Y-88060304D02*
X111325819Y-88631732D01*
X111325819Y-88631732D02*
X111325819Y-88012685D01*
X207423104Y-81057732D02*
X207461200Y-81095828D01*
X207461200Y-81095828D02*
X207499295Y-81210113D01*
X207499295Y-81210113D02*
X207499295Y-81286304D01*
X207499295Y-81286304D02*
X207461200Y-81400590D01*
X207461200Y-81400590D02*
X207385009Y-81476780D01*
X207385009Y-81476780D02*
X207308819Y-81514875D01*
X207308819Y-81514875D02*
X207156438Y-81552971D01*
X207156438Y-81552971D02*
X207042152Y-81552971D01*
X207042152Y-81552971D02*
X206889771Y-81514875D01*
X206889771Y-81514875D02*
X206813580Y-81476780D01*
X206813580Y-81476780D02*
X206737390Y-81400590D01*
X206737390Y-81400590D02*
X206699295Y-81286304D01*
X206699295Y-81286304D02*
X206699295Y-81210113D01*
X206699295Y-81210113D02*
X206737390Y-81095828D01*
X206737390Y-81095828D02*
X206775485Y-81057732D01*
X206699295Y-80333923D02*
X206699295Y-80714875D01*
X206699295Y-80714875D02*
X207080247Y-80752971D01*
X207080247Y-80752971D02*
X207042152Y-80714875D01*
X207042152Y-80714875D02*
X207004057Y-80638685D01*
X207004057Y-80638685D02*
X207004057Y-80448209D01*
X207004057Y-80448209D02*
X207042152Y-80372018D01*
X207042152Y-80372018D02*
X207080247Y-80333923D01*
X207080247Y-80333923D02*
X207156438Y-80295828D01*
X207156438Y-80295828D02*
X207346914Y-80295828D01*
X207346914Y-80295828D02*
X207423104Y-80333923D01*
X207423104Y-80333923D02*
X207461200Y-80372018D01*
X207461200Y-80372018D02*
X207499295Y-80448209D01*
X207499295Y-80448209D02*
X207499295Y-80638685D01*
X207499295Y-80638685D02*
X207461200Y-80714875D01*
X207461200Y-80714875D02*
X207423104Y-80752971D01*
X196273995Y-108902466D02*
X196845423Y-108902466D01*
X196845423Y-108902466D02*
X196959709Y-108940561D01*
X196959709Y-108940561D02*
X197035900Y-109016752D01*
X197035900Y-109016752D02*
X197073995Y-109131037D01*
X197073995Y-109131037D02*
X197073995Y-109207228D01*
X197073995Y-108483418D02*
X197073995Y-108331037D01*
X197073995Y-108331037D02*
X197035900Y-108254847D01*
X197035900Y-108254847D02*
X196997804Y-108216751D01*
X196997804Y-108216751D02*
X196883519Y-108140561D01*
X196883519Y-108140561D02*
X196731138Y-108102466D01*
X196731138Y-108102466D02*
X196426376Y-108102466D01*
X196426376Y-108102466D02*
X196350185Y-108140561D01*
X196350185Y-108140561D02*
X196312090Y-108178656D01*
X196312090Y-108178656D02*
X196273995Y-108254847D01*
X196273995Y-108254847D02*
X196273995Y-108407228D01*
X196273995Y-108407228D02*
X196312090Y-108483418D01*
X196312090Y-108483418D02*
X196350185Y-108521513D01*
X196350185Y-108521513D02*
X196426376Y-108559609D01*
X196426376Y-108559609D02*
X196616852Y-108559609D01*
X196616852Y-108559609D02*
X196693042Y-108521513D01*
X196693042Y-108521513D02*
X196731138Y-108483418D01*
X196731138Y-108483418D02*
X196769233Y-108407228D01*
X196769233Y-108407228D02*
X196769233Y-108254847D01*
X196769233Y-108254847D02*
X196731138Y-108178656D01*
X196731138Y-108178656D02*
X196693042Y-108140561D01*
X196693042Y-108140561D02*
X196616852Y-108102466D01*
X194837395Y-83292932D02*
X194456442Y-83559599D01*
X194837395Y-83750075D02*
X194037395Y-83750075D01*
X194037395Y-83750075D02*
X194037395Y-83445313D01*
X194037395Y-83445313D02*
X194075490Y-83369123D01*
X194075490Y-83369123D02*
X194113585Y-83331028D01*
X194113585Y-83331028D02*
X194189776Y-83292932D01*
X194189776Y-83292932D02*
X194304061Y-83292932D01*
X194304061Y-83292932D02*
X194380252Y-83331028D01*
X194380252Y-83331028D02*
X194418347Y-83369123D01*
X194418347Y-83369123D02*
X194456442Y-83445313D01*
X194456442Y-83445313D02*
X194456442Y-83750075D01*
X194037395Y-83026266D02*
X194037395Y-82492932D01*
X194037395Y-82492932D02*
X194837395Y-82835790D01*
X145976776Y-90564695D02*
X145976776Y-91212314D01*
X145976776Y-91212314D02*
X146014871Y-91288504D01*
X146014871Y-91288504D02*
X146052966Y-91326600D01*
X146052966Y-91326600D02*
X146129157Y-91364695D01*
X146129157Y-91364695D02*
X146281538Y-91364695D01*
X146281538Y-91364695D02*
X146357728Y-91326600D01*
X146357728Y-91326600D02*
X146395823Y-91288504D01*
X146395823Y-91288504D02*
X146433919Y-91212314D01*
X146433919Y-91212314D02*
X146433919Y-90564695D01*
X146738680Y-90564695D02*
X147233918Y-90564695D01*
X147233918Y-90564695D02*
X146967252Y-90869457D01*
X146967252Y-90869457D02*
X147081537Y-90869457D01*
X147081537Y-90869457D02*
X147157728Y-90907552D01*
X147157728Y-90907552D02*
X147195823Y-90945647D01*
X147195823Y-90945647D02*
X147233918Y-91021838D01*
X147233918Y-91021838D02*
X147233918Y-91212314D01*
X147233918Y-91212314D02*
X147195823Y-91288504D01*
X147195823Y-91288504D02*
X147157728Y-91326600D01*
X147157728Y-91326600D02*
X147081537Y-91364695D01*
X147081537Y-91364695D02*
X146852966Y-91364695D01*
X146852966Y-91364695D02*
X146776775Y-91326600D01*
X146776775Y-91326600D02*
X146738680Y-91288504D01*
X210497995Y-109283419D02*
X211069423Y-109283419D01*
X211069423Y-109283419D02*
X211183709Y-109321514D01*
X211183709Y-109321514D02*
X211259900Y-109397705D01*
X211259900Y-109397705D02*
X211297995Y-109511990D01*
X211297995Y-109511990D02*
X211297995Y-109588181D01*
X211297995Y-108483419D02*
X211297995Y-108940562D01*
X211297995Y-108711990D02*
X210497995Y-108711990D01*
X210497995Y-108711990D02*
X210612280Y-108788181D01*
X210612280Y-108788181D02*
X210688471Y-108864371D01*
X210688471Y-108864371D02*
X210726566Y-108940562D01*
X210497995Y-107988180D02*
X210497995Y-107911990D01*
X210497995Y-107911990D02*
X210536090Y-107835799D01*
X210536090Y-107835799D02*
X210574185Y-107797704D01*
X210574185Y-107797704D02*
X210650376Y-107759609D01*
X210650376Y-107759609D02*
X210802757Y-107721514D01*
X210802757Y-107721514D02*
X210993233Y-107721514D01*
X210993233Y-107721514D02*
X211145614Y-107759609D01*
X211145614Y-107759609D02*
X211221804Y-107797704D01*
X211221804Y-107797704D02*
X211259900Y-107835799D01*
X211259900Y-107835799D02*
X211297995Y-107911990D01*
X211297995Y-107911990D02*
X211297995Y-107988180D01*
X211297995Y-107988180D02*
X211259900Y-108064371D01*
X211259900Y-108064371D02*
X211221804Y-108102466D01*
X211221804Y-108102466D02*
X211145614Y-108140561D01*
X211145614Y-108140561D02*
X210993233Y-108178657D01*
X210993233Y-108178657D02*
X210802757Y-108178657D01*
X210802757Y-108178657D02*
X210650376Y-108140561D01*
X210650376Y-108140561D02*
X210574185Y-108102466D01*
X210574185Y-108102466D02*
X210536090Y-108064371D01*
X210536090Y-108064371D02*
X210497995Y-107988180D01*
X171462776Y-90445695D02*
X171462776Y-91093314D01*
X171462776Y-91093314D02*
X171500871Y-91169504D01*
X171500871Y-91169504D02*
X171538966Y-91207600D01*
X171538966Y-91207600D02*
X171615157Y-91245695D01*
X171615157Y-91245695D02*
X171767538Y-91245695D01*
X171767538Y-91245695D02*
X171843728Y-91207600D01*
X171843728Y-91207600D02*
X171881823Y-91169504D01*
X171881823Y-91169504D02*
X171919919Y-91093314D01*
X171919919Y-91093314D02*
X171919919Y-90445695D01*
X172643728Y-90712361D02*
X172643728Y-91245695D01*
X172453252Y-90407600D02*
X172262775Y-90979028D01*
X172262775Y-90979028D02*
X172758014Y-90979028D01*
X212503104Y-81032332D02*
X212541200Y-81070428D01*
X212541200Y-81070428D02*
X212579295Y-81184713D01*
X212579295Y-81184713D02*
X212579295Y-81260904D01*
X212579295Y-81260904D02*
X212541200Y-81375190D01*
X212541200Y-81375190D02*
X212465009Y-81451380D01*
X212465009Y-81451380D02*
X212388819Y-81489475D01*
X212388819Y-81489475D02*
X212236438Y-81527571D01*
X212236438Y-81527571D02*
X212122152Y-81527571D01*
X212122152Y-81527571D02*
X211969771Y-81489475D01*
X211969771Y-81489475D02*
X211893580Y-81451380D01*
X211893580Y-81451380D02*
X211817390Y-81375190D01*
X211817390Y-81375190D02*
X211779295Y-81260904D01*
X211779295Y-81260904D02*
X211779295Y-81184713D01*
X211779295Y-81184713D02*
X211817390Y-81070428D01*
X211817390Y-81070428D02*
X211855485Y-81032332D01*
X211779295Y-80346618D02*
X211779295Y-80498999D01*
X211779295Y-80498999D02*
X211817390Y-80575190D01*
X211817390Y-80575190D02*
X211855485Y-80613285D01*
X211855485Y-80613285D02*
X211969771Y-80689475D01*
X211969771Y-80689475D02*
X212122152Y-80727571D01*
X212122152Y-80727571D02*
X212426914Y-80727571D01*
X212426914Y-80727571D02*
X212503104Y-80689475D01*
X212503104Y-80689475D02*
X212541200Y-80651380D01*
X212541200Y-80651380D02*
X212579295Y-80575190D01*
X212579295Y-80575190D02*
X212579295Y-80422809D01*
X212579295Y-80422809D02*
X212541200Y-80346618D01*
X212541200Y-80346618D02*
X212503104Y-80308523D01*
X212503104Y-80308523D02*
X212426914Y-80270428D01*
X212426914Y-80270428D02*
X212236438Y-80270428D01*
X212236438Y-80270428D02*
X212160247Y-80308523D01*
X212160247Y-80308523D02*
X212122152Y-80346618D01*
X212122152Y-80346618D02*
X212084057Y-80422809D01*
X212084057Y-80422809D02*
X212084057Y-80575190D01*
X212084057Y-80575190D02*
X212122152Y-80651380D01*
X212122152Y-80651380D02*
X212160247Y-80689475D01*
X212160247Y-80689475D02*
X212236438Y-80727571D01*
D13*
X109549900Y-50976400D02*
X117449900Y-50976400D01*
X109549900Y-59586400D02*
X109549900Y-50976400D01*
X109549900Y-75576400D02*
X109549900Y-62186400D01*
X109549900Y-75576400D02*
X117449900Y-75576400D01*
X117449900Y-50976400D02*
X117449900Y-59576400D01*
X117449900Y-50976400D02*
X125349900Y-50976400D01*
X117449900Y-62176400D02*
X117449900Y-75576400D01*
X117449900Y-75576400D02*
X125349900Y-75576400D01*
X125349900Y-50976400D02*
X125349900Y-59576400D01*
X125349900Y-62176400D02*
X125349900Y-75576400D01*
X143651300Y-85101152D02*
X143651300Y-84578648D01*
X145121300Y-85101152D02*
X145121300Y-84578648D01*
X212090000Y-86385400D02*
X213360000Y-86385400D01*
X212090000Y-87655400D02*
X212090000Y-86385400D01*
X214402929Y-89815400D02*
X214800000Y-89815400D01*
X214402929Y-90575400D02*
X214800000Y-90575400D01*
X214470000Y-87275400D02*
X214800000Y-87275400D01*
X214470000Y-88035400D02*
X214800000Y-88035400D01*
X214800000Y-86325400D02*
X214800000Y-91525400D01*
X214800000Y-88925400D02*
X217460000Y-88925400D01*
X214800000Y-91525400D02*
X217460000Y-91525400D01*
X217460000Y-86325400D02*
X214800000Y-86325400D01*
X217460000Y-87275400D02*
X223460000Y-87275400D01*
X217460000Y-87335400D02*
X223460000Y-87335400D01*
X217460000Y-87455400D02*
X223460000Y-87455400D01*
X217460000Y-87575400D02*
X223460000Y-87575400D01*
X217460000Y-87695400D02*
X223460000Y-87695400D01*
X217460000Y-87815400D02*
X223460000Y-87815400D01*
X217460000Y-87935400D02*
X223460000Y-87935400D01*
X217460000Y-89815400D02*
X223460000Y-89815400D01*
X217460000Y-91525400D02*
X217460000Y-86325400D01*
X223460000Y-87275400D02*
X223460000Y-88035400D01*
X223460000Y-88035400D02*
X217460000Y-88035400D01*
X223460000Y-89815400D02*
X223460000Y-90575400D01*
X223460000Y-90575400D02*
X217460000Y-90575400D01*
X95532300Y-86934400D02*
X94032300Y-86934400D01*
X95532300Y-86934400D02*
X97032300Y-86934400D01*
X95532300Y-90154400D02*
X94032300Y-90154400D01*
X95532300Y-90154400D02*
X97032300Y-90154400D01*
X97984800Y-90284400D02*
X97504800Y-90284400D01*
X97744800Y-89954400D01*
X97984800Y-90284400D01*
G36*
X97984800Y-90284400D02*
G01*
X97504800Y-90284400D01*
X97744800Y-89954400D01*
X97984800Y-90284400D01*
G37*
X85843800Y-86597936D02*
X85843800Y-90952064D01*
X89263800Y-86597936D02*
X89263800Y-90952064D01*
X162742300Y-86621336D02*
X162742300Y-90975464D01*
X166162300Y-86621336D02*
X166162300Y-90975464D01*
D14*
G36*
X183183392Y-72208463D02*
G01*
X183401581Y-72209937D01*
X183401581Y-72252167D01*
X183401581Y-72294397D01*
X183183392Y-72295871D01*
X182965203Y-72297345D01*
X182965203Y-72252167D01*
X182965203Y-72206989D01*
X183183392Y-72208463D01*
G37*
G36*
X183257999Y-72584377D02*
G01*
X183257999Y-72623792D01*
X183181984Y-72623792D01*
X183105970Y-72623792D01*
X183105970Y-72584377D01*
X183105970Y-72544962D01*
X183181984Y-72544962D01*
X183257999Y-72544962D01*
X183257999Y-72584377D01*
G37*
G36*
X183183392Y-72377351D02*
G01*
X183322751Y-72378857D01*
X183324406Y-72419680D01*
X183326060Y-72460502D01*
X183181447Y-72460502D01*
X183036833Y-72460502D01*
X183040384Y-72430941D01*
X183042457Y-72411362D01*
X183043761Y-72394604D01*
X183043984Y-72388613D01*
X183044033Y-72375845D01*
X183183392Y-72377351D01*
G37*
G36*
X183474780Y-72086062D02*
G01*
X183474780Y-72125477D01*
X183183235Y-72126935D01*
X183116997Y-72127225D01*
X183061179Y-72127365D01*
X183014940Y-72127338D01*
X182977440Y-72127126D01*
X182947838Y-72126711D01*
X182925293Y-72126074D01*
X182908964Y-72125199D01*
X182898012Y-72124067D01*
X182891594Y-72122660D01*
X182888871Y-72120961D01*
X182888728Y-72120674D01*
X182887394Y-72111115D01*
X182887034Y-72094456D01*
X182887477Y-72079801D01*
X182889189Y-72046647D01*
X183181984Y-72046647D01*
X183474780Y-72046647D01*
X183474780Y-72086062D01*
G37*
G36*
X181883810Y-69386274D02*
G01*
X181925064Y-69386425D01*
X181956728Y-69386862D01*
X181980472Y-69387707D01*
X181997966Y-69389080D01*
X182010881Y-69391101D01*
X182020887Y-69393891D01*
X182027695Y-69396655D01*
X182050766Y-69411296D01*
X182072418Y-69432144D01*
X182089422Y-69455609D01*
X182097672Y-69474435D01*
X182098274Y-69482179D01*
X182098845Y-69500513D01*
X182099383Y-69528763D01*
X182099889Y-69566258D01*
X182100361Y-69612325D01*
X182100800Y-69666292D01*
X182101206Y-69727487D01*
X182101577Y-69795238D01*
X182101914Y-69868872D01*
X182102216Y-69947718D01*
X182102483Y-70031102D01*
X182102715Y-70118354D01*
X182102910Y-70208799D01*
X182103069Y-70301767D01*
X182103191Y-70396585D01*
X182103276Y-70492581D01*
X182103324Y-70589082D01*
X182103334Y-70685416D01*
X182103306Y-70780912D01*
X182103239Y-70874896D01*
X182103133Y-70966697D01*
X182102988Y-71055643D01*
X182102803Y-71141060D01*
X182102578Y-71222278D01*
X182102312Y-71298623D01*
X182102006Y-71369423D01*
X182101659Y-71434007D01*
X182101270Y-71491701D01*
X182100839Y-71541835D01*
X182100365Y-71583734D01*
X182099849Y-71616728D01*
X182099290Y-71640144D01*
X182098884Y-71650271D01*
X182097106Y-71680154D01*
X182095232Y-71701209D01*
X182092741Y-71715864D01*
X182089113Y-71726544D01*
X182083827Y-71735676D01*
X182079210Y-71741991D01*
X182064063Y-71758489D01*
X182045659Y-71774240D01*
X182040338Y-71778004D01*
X182017293Y-71793266D01*
X181890173Y-71794254D01*
X181852070Y-71794312D01*
X181816538Y-71793924D01*
X181785545Y-71793146D01*
X181761059Y-71792033D01*
X181745046Y-71790643D01*
X181741352Y-71789997D01*
X181710503Y-71777423D01*
X181686981Y-71756734D01*
X181675245Y-71737517D01*
X181674001Y-71734484D01*
X181672859Y-71730781D01*
X181671816Y-71725934D01*
X181670866Y-71719471D01*
X181670006Y-71710918D01*
X181669230Y-71699802D01*
X181668534Y-71685651D01*
X181667915Y-71667990D01*
X181667368Y-71646348D01*
X181666887Y-71620251D01*
X181666470Y-71589225D01*
X181666111Y-71552799D01*
X181665807Y-71510499D01*
X181665552Y-71461851D01*
X181665342Y-71406384D01*
X181665174Y-71343623D01*
X181665042Y-71273096D01*
X181664942Y-71194330D01*
X181664870Y-71106852D01*
X181664822Y-71010188D01*
X181664793Y-70903866D01*
X181664778Y-70787412D01*
X181664774Y-70660354D01*
X181664774Y-70608008D01*
X181664800Y-70493006D01*
X181664875Y-70381536D01*
X181664997Y-70274113D01*
X181665162Y-70171253D01*
X181665370Y-70073468D01*
X181665617Y-69981276D01*
X181665901Y-69895189D01*
X181666221Y-69815723D01*
X181666573Y-69743394D01*
X181666955Y-69678714D01*
X181667366Y-69622200D01*
X181667803Y-69574367D01*
X181668264Y-69535728D01*
X181668745Y-69506798D01*
X181669246Y-69488094D01*
X181669764Y-69480128D01*
X181669771Y-69480095D01*
X181682770Y-69447992D01*
X181704850Y-69420585D01*
X181733826Y-69400414D01*
X181743621Y-69395715D01*
X181752748Y-69392182D01*
X181762950Y-69389652D01*
X181775970Y-69387960D01*
X181793554Y-69386941D01*
X181817443Y-69386431D01*
X181849381Y-69386266D01*
X181883810Y-69386274D01*
G37*
G36*
X184588335Y-69392272D02*
G01*
X184610313Y-69392649D01*
X184626359Y-69393464D01*
X184637807Y-69394797D01*
X184645990Y-69396730D01*
X184652240Y-69399344D01*
X184657889Y-69402718D01*
X184660269Y-69404293D01*
X184664739Y-69406922D01*
X184668850Y-69408913D01*
X184672617Y-69410725D01*
X184676056Y-69412816D01*
X184679182Y-69415644D01*
X184682011Y-69419668D01*
X184684559Y-69425347D01*
X184686840Y-69433138D01*
X184688870Y-69443502D01*
X184690666Y-69456895D01*
X184692241Y-69473777D01*
X184693612Y-69494605D01*
X184694795Y-69519840D01*
X184695804Y-69549938D01*
X184696656Y-69585359D01*
X184697365Y-69626561D01*
X184697948Y-69674002D01*
X184698419Y-69728142D01*
X184698795Y-69789438D01*
X184699090Y-69858349D01*
X184699321Y-69935333D01*
X184699503Y-70020850D01*
X184699650Y-70115357D01*
X184699780Y-70219313D01*
X184699907Y-70333177D01*
X184700046Y-70457407D01*
X184700205Y-70585796D01*
X184700379Y-70718360D01*
X184700534Y-70840131D01*
X184700666Y-70951578D01*
X184700770Y-71053167D01*
X184700843Y-71145368D01*
X184700881Y-71228648D01*
X184700879Y-71303475D01*
X184700834Y-71370319D01*
X184700741Y-71429646D01*
X184700596Y-71481926D01*
X184700396Y-71527626D01*
X184700136Y-71567214D01*
X184699812Y-71601159D01*
X184699420Y-71629928D01*
X184698956Y-71653991D01*
X184698416Y-71673814D01*
X184697796Y-71689867D01*
X184697092Y-71702617D01*
X184696300Y-71712533D01*
X184695415Y-71720082D01*
X184694434Y-71725733D01*
X184693352Y-71729955D01*
X184692166Y-71733214D01*
X184690872Y-71735980D01*
X184690211Y-71737270D01*
X184674650Y-71757942D01*
X184651841Y-71776188D01*
X184651543Y-71776374D01*
X184624360Y-71793266D01*
X184488763Y-71794742D01*
X184445548Y-71795141D01*
X184412032Y-71795222D01*
X184386654Y-71794894D01*
X184367854Y-71794067D01*
X184354071Y-71792652D01*
X184343746Y-71790559D01*
X184335318Y-71787697D01*
X184330643Y-71785631D01*
X184303092Y-71768074D01*
X184282941Y-71743848D01*
X184273645Y-71725621D01*
X184272497Y-71722455D01*
X184271444Y-71718192D01*
X184270480Y-71712365D01*
X184269603Y-71704503D01*
X184268809Y-71694138D01*
X184268092Y-71680801D01*
X184267450Y-71664022D01*
X184266878Y-71643332D01*
X184266373Y-71618262D01*
X184265931Y-71588344D01*
X184265546Y-71553107D01*
X184265217Y-71512082D01*
X184264938Y-71464801D01*
X184264705Y-71410794D01*
X184264515Y-71349592D01*
X184264364Y-71280726D01*
X184264247Y-71203727D01*
X184264162Y-71118126D01*
X184264103Y-71023452D01*
X184264066Y-70919238D01*
X184264049Y-70805015D01*
X184264047Y-70680311D01*
X184264051Y-70591032D01*
X184264076Y-70452523D01*
X184264132Y-70324893D01*
X184264221Y-70207758D01*
X184264345Y-70100735D01*
X184264508Y-70003441D01*
X184264710Y-69915494D01*
X184264955Y-69836510D01*
X184265245Y-69766106D01*
X184265582Y-69703900D01*
X184265969Y-69649509D01*
X184266407Y-69602548D01*
X184266900Y-69562636D01*
X184267450Y-69529389D01*
X184268058Y-69502425D01*
X184268728Y-69481360D01*
X184269462Y-69465812D01*
X184270262Y-69455396D01*
X184271063Y-69449998D01*
X184278580Y-69428501D01*
X184288857Y-69411362D01*
X184292095Y-69407851D01*
X184296330Y-69404068D01*
X184300938Y-69401070D01*
X184307212Y-69398751D01*
X184316444Y-69397006D01*
X184329930Y-69395729D01*
X184348962Y-69394812D01*
X184374834Y-69394150D01*
X184408840Y-69393637D01*
X184452274Y-69393166D01*
X184473494Y-69392957D01*
X184521259Y-69392507D01*
X184559095Y-69392251D01*
X184588335Y-69392272D01*
G37*
G36*
X183281857Y-67641762D02*
G01*
X183329953Y-67643471D01*
X183363359Y-67645786D01*
X183504057Y-67662438D01*
X183641922Y-67686482D01*
X183778530Y-67718350D01*
X183915455Y-67758477D01*
X184054272Y-67807295D01*
X184196554Y-67865238D01*
X184254629Y-67890994D01*
X184346191Y-67934203D01*
X184428043Y-67976608D01*
X184501601Y-68019142D01*
X184568283Y-68062743D01*
X184629505Y-68108346D01*
X184686682Y-68156887D01*
X184741231Y-68209302D01*
X184750131Y-68218444D01*
X184824457Y-68302201D01*
X184889256Y-68389345D01*
X184944209Y-68479262D01*
X184988999Y-68571343D01*
X185023308Y-68664974D01*
X185046817Y-68759544D01*
X185053806Y-68802375D01*
X185055121Y-68818033D01*
X185056295Y-68844312D01*
X185057317Y-68880573D01*
X185058179Y-68926176D01*
X185058869Y-68980484D01*
X185059378Y-69042855D01*
X185059697Y-69112651D01*
X185059816Y-69189232D01*
X185059816Y-69195000D01*
X185059816Y-69543581D01*
X185083747Y-69555749D01*
X185117778Y-69575165D01*
X185157171Y-69601167D01*
X185199660Y-69632056D01*
X185242978Y-69666132D01*
X185284859Y-69701697D01*
X185314017Y-69728376D01*
X185393156Y-69811095D01*
X185463276Y-69900095D01*
X185524162Y-69994643D01*
X185575604Y-70094003D01*
X185617388Y-70197442D01*
X185649303Y-70304224D01*
X185671136Y-70413614D01*
X185682676Y-70524879D01*
X185683709Y-70637283D01*
X185674025Y-70750092D01*
X185653409Y-70862572D01*
X185648039Y-70884636D01*
X185629298Y-70950921D01*
X185607184Y-71013786D01*
X185579973Y-71077887D01*
X185563870Y-71111954D01*
X185508556Y-71212879D01*
X185444012Y-71307467D01*
X185370541Y-71395375D01*
X185288445Y-71476262D01*
X185198027Y-71549784D01*
X185142253Y-71588680D01*
X185092368Y-71621531D01*
X184913091Y-71621531D01*
X184733813Y-71621531D01*
X184731872Y-70229345D01*
X184729931Y-68837159D01*
X184717867Y-68797744D01*
X184693025Y-68728255D01*
X184661713Y-68662054D01*
X184622967Y-68597605D01*
X184575822Y-68533370D01*
X184519314Y-68467812D01*
X184493933Y-68440936D01*
X184421318Y-68371176D01*
X184345958Y-68309055D01*
X184269390Y-68255743D01*
X184195280Y-68213484D01*
X184163323Y-68198494D01*
X184122387Y-68181134D01*
X184074337Y-68162063D01*
X184021042Y-68141939D01*
X183964367Y-68121422D01*
X183906180Y-68101169D01*
X183848347Y-68081839D01*
X183792736Y-68064092D01*
X183741213Y-68048585D01*
X183695644Y-68035978D01*
X183683115Y-68032785D01*
X183594334Y-68011896D01*
X183513161Y-67995458D01*
X183437014Y-67983125D01*
X183363310Y-67974551D01*
X183289469Y-67969392D01*
X183212909Y-67967302D01*
X183193029Y-67967219D01*
X183090202Y-67969664D01*
X182989215Y-67977210D01*
X182888508Y-67990172D01*
X182786523Y-68008867D01*
X182681699Y-68033610D01*
X182572477Y-68064719D01*
X182457299Y-68102507D01*
X182369788Y-68134036D01*
X182296104Y-68162272D01*
X182231720Y-68188910D01*
X182174981Y-68214960D01*
X182124234Y-68241432D01*
X182077823Y-68269337D01*
X182034094Y-68299685D01*
X181991392Y-68333486D01*
X181948063Y-68371752D01*
X181902451Y-68415492D01*
X181892203Y-68425694D01*
X181833803Y-68486970D01*
X181784538Y-68545145D01*
X181743337Y-68601876D01*
X181709129Y-68658819D01*
X181680841Y-68717632D01*
X181657403Y-68779974D01*
X181651731Y-68797744D01*
X181639583Y-68837159D01*
X181637722Y-70229345D01*
X181635862Y-71621531D01*
X181454523Y-71621284D01*
X181273184Y-71621038D01*
X181218476Y-71583277D01*
X181132452Y-71519486D01*
X181055979Y-71453178D01*
X180987387Y-71382778D01*
X180925007Y-71306714D01*
X180924987Y-71306687D01*
X180860268Y-71211723D01*
X180805705Y-71112624D01*
X180761284Y-71010092D01*
X180726992Y-70904833D01*
X180702817Y-70797548D01*
X180688745Y-70688943D01*
X180684764Y-70579721D01*
X180690859Y-70470585D01*
X180707018Y-70362238D01*
X180733228Y-70255386D01*
X180769476Y-70150730D01*
X180815748Y-70048975D01*
X180872033Y-69950825D01*
X180938315Y-69856983D01*
X180952267Y-69839416D01*
X181021394Y-69761862D01*
X181099040Y-69688952D01*
X181182736Y-69622863D01*
X181247168Y-69579593D01*
X181309179Y-69540994D01*
X181311312Y-69163739D01*
X181311727Y-69088491D01*
X181312105Y-69023524D01*
X181312513Y-68967858D01*
X181313019Y-68920512D01*
X181313690Y-68880506D01*
X181314593Y-68846861D01*
X181315797Y-68818595D01*
X181317370Y-68794729D01*
X181319377Y-68774282D01*
X181321888Y-68756275D01*
X181324969Y-68739727D01*
X181328688Y-68723658D01*
X181333113Y-68707087D01*
X181338311Y-68689036D01*
X181344350Y-68668523D01*
X181345779Y-68663651D01*
X181364109Y-68610655D01*
X181389175Y-68552540D01*
X181419563Y-68491963D01*
X181453864Y-68431583D01*
X181490666Y-68374055D01*
X181524245Y-68327583D01*
X181574331Y-68267219D01*
X181630657Y-68207390D01*
X181690871Y-68150263D01*
X181752617Y-68098006D01*
X181813542Y-68052788D01*
X181844698Y-68032417D01*
X181904815Y-67997102D01*
X181973803Y-67960036D01*
X182049615Y-67922218D01*
X182130202Y-67884648D01*
X182213515Y-67848324D01*
X182267552Y-67826100D01*
X182429077Y-67766810D01*
X182590766Y-67718593D01*
X182753283Y-67681272D01*
X182900450Y-67656901D01*
X182942223Y-67652255D01*
X182992402Y-67648337D01*
X183048486Y-67645206D01*
X183107975Y-67642923D01*
X183168367Y-67641549D01*
X183227161Y-67641141D01*
X183281857Y-67641762D01*
G37*
G36*
X183164616Y-68485785D02*
G01*
X183217995Y-68485988D01*
X183271242Y-68486300D01*
X183323150Y-68486714D01*
X183372513Y-68487221D01*
X183418126Y-68487816D01*
X183458782Y-68488490D01*
X183493275Y-68489236D01*
X183520399Y-68490047D01*
X183538948Y-68490915D01*
X183547715Y-68491833D01*
X183548219Y-68492048D01*
X183546299Y-68497562D01*
X183539375Y-68512053D01*
X183527909Y-68534651D01*
X183512361Y-68564486D01*
X183493191Y-68600687D01*
X183470860Y-68642384D01*
X183445829Y-68688708D01*
X183418558Y-68738787D01*
X183391026Y-68788994D01*
X183229845Y-69081949D01*
X183229845Y-69461687D01*
X183229845Y-69841425D01*
X183200284Y-69844422D01*
X183180785Y-69846167D01*
X183154731Y-69848194D01*
X183126808Y-69850143D01*
X183118047Y-69850705D01*
X183087935Y-69853324D01*
X183055685Y-69857298D01*
X183027342Y-69861861D01*
X183022325Y-69862848D01*
X182982284Y-69873129D01*
X182952480Y-69885647D01*
X182932016Y-69900978D01*
X182919991Y-69919696D01*
X182916910Y-69930266D01*
X182916113Y-69941946D01*
X182920570Y-69951739D01*
X182932194Y-69963552D01*
X182934005Y-69965154D01*
X182950488Y-69977543D01*
X182971901Y-69990821D01*
X182995264Y-70003454D01*
X183017594Y-70013910D01*
X183035908Y-70020655D01*
X183045300Y-70022358D01*
X183055493Y-70020854D01*
X183073925Y-70016797D01*
X183098025Y-70010798D01*
X183125224Y-70003464D01*
X183126637Y-70003068D01*
X183193623Y-69986388D01*
X183257513Y-69974623D01*
X183317058Y-69967843D01*
X183371008Y-69966115D01*
X183418114Y-69969509D01*
X183457126Y-69978094D01*
X183472567Y-69984058D01*
X183498871Y-69999523D01*
X183518967Y-70018060D01*
X183520427Y-70019910D01*
X183529936Y-70034190D01*
X183534840Y-70048037D01*
X183536532Y-70066282D01*
X183536622Y-70076052D01*
X183535667Y-70097709D01*
X183532037Y-70112961D01*
X183524367Y-70126591D01*
X183520811Y-70131423D01*
X183499658Y-70152477D01*
X183471984Y-70168098D01*
X183436893Y-70178526D01*
X183393489Y-70184001D01*
X183340876Y-70184762D01*
X183323798Y-70184137D01*
X183276325Y-70180813D01*
X183232607Y-70175044D01*
X183188618Y-70166090D01*
X183140336Y-70153213D01*
X183116607Y-70146086D01*
X183091401Y-70138871D01*
X183068242Y-70133226D01*
X183050508Y-70129930D01*
X183044232Y-70129400D01*
X183027965Y-70132332D01*
X183007113Y-70140187D01*
X182984005Y-70151553D01*
X182960969Y-70165020D01*
X182940335Y-70179176D01*
X182924430Y-70192612D01*
X182915585Y-70203915D01*
X182914527Y-70207991D01*
X182919285Y-70217806D01*
X182932096Y-70230775D01*
X182950767Y-70245379D01*
X182973106Y-70260101D01*
X182996918Y-70273421D01*
X183020011Y-70283822D01*
X183028283Y-70286739D01*
X183039322Y-70289499D01*
X183050462Y-70289890D01*
X183064596Y-70287515D01*
X183084620Y-70281980D01*
X183101482Y-70276715D01*
X183150432Y-70262857D01*
X183202643Y-70251123D01*
X183255480Y-70241893D01*
X183306311Y-70235549D01*
X183352504Y-70232471D01*
X183391425Y-70233041D01*
X183398740Y-70233693D01*
X183442401Y-70241811D01*
X183479033Y-70255776D01*
X183507780Y-70274931D01*
X183527786Y-70298625D01*
X183538195Y-70326202D01*
X183539533Y-70341218D01*
X183534150Y-70372595D01*
X183518808Y-70400535D01*
X183494720Y-70423035D01*
X183487199Y-70427732D01*
X183447564Y-70444245D01*
X183399446Y-70453359D01*
X183342854Y-70455073D01*
X183277794Y-70449388D01*
X183204274Y-70436304D01*
X183123293Y-70416099D01*
X183096640Y-70409204D01*
X183071657Y-70403734D01*
X183051747Y-70400385D01*
X183042896Y-70399673D01*
X183024755Y-70402588D01*
X183002628Y-70410402D01*
X182978874Y-70421717D01*
X182955849Y-70435132D01*
X182935910Y-70449250D01*
X182921416Y-70462673D01*
X182914722Y-70474002D01*
X182914527Y-70475832D01*
X182919088Y-70484761D01*
X182931258Y-70497240D01*
X182948763Y-70511416D01*
X182969332Y-70525434D01*
X182989062Y-70536627D01*
X183011243Y-70545952D01*
X183033241Y-70550505D01*
X183057617Y-70550251D01*
X183086927Y-70545155D01*
X183123730Y-70535183D01*
X183125075Y-70534779D01*
X183194451Y-70516492D01*
X183260263Y-70505010D01*
X183327304Y-70499588D01*
X183356535Y-70498943D01*
X183388297Y-70498966D01*
X183411563Y-70499762D01*
X183429090Y-70501654D01*
X183443636Y-70504963D01*
X183457957Y-70510012D01*
X183460703Y-70511122D01*
X183487642Y-70523749D01*
X183506859Y-70537235D01*
X183521750Y-70554231D01*
X183527808Y-70563507D01*
X183537782Y-70590312D01*
X183537784Y-70620258D01*
X183527836Y-70651296D01*
X183526864Y-70653268D01*
X183508860Y-70676704D01*
X183481588Y-70694935D01*
X183445791Y-70707918D01*
X183402211Y-70715607D01*
X183351590Y-70717955D01*
X183294671Y-70714919D01*
X183232197Y-70706451D01*
X183164910Y-70692508D01*
X183112423Y-70678628D01*
X183083964Y-70670528D01*
X183063936Y-70665313D01*
X183049959Y-70662713D01*
X183039653Y-70662455D01*
X183030640Y-70664269D01*
X183020538Y-70667884D01*
X183019980Y-70668100D01*
X183002275Y-70676286D01*
X182981457Y-70687865D01*
X182960086Y-70701157D01*
X182940723Y-70714477D01*
X182925927Y-70726145D01*
X182918259Y-70734478D01*
X182917949Y-70735149D01*
X182917599Y-70747191D01*
X182920001Y-70754113D01*
X182929246Y-70764340D01*
X182946575Y-70777440D01*
X182969693Y-70791918D01*
X182996303Y-70806279D01*
X183010719Y-70813186D01*
X183042158Y-70827572D01*
X183089548Y-70813139D01*
X183151274Y-70795572D01*
X183206380Y-70782747D01*
X183258157Y-70774048D01*
X183309891Y-70768863D01*
X183334028Y-70767512D01*
X183368948Y-70766291D01*
X183395231Y-70766230D01*
X183415456Y-70767459D01*
X183432200Y-70770112D01*
X183444180Y-70773160D01*
X183482028Y-70788230D01*
X183510436Y-70808509D01*
X183529091Y-70833634D01*
X183537677Y-70863239D01*
X183537971Y-70881612D01*
X183532658Y-70909316D01*
X183520170Y-70931517D01*
X183499078Y-70950039D01*
X183473112Y-70964348D01*
X183434990Y-70977199D01*
X183388698Y-70983815D01*
X183334002Y-70984186D01*
X183270665Y-70978300D01*
X183198453Y-70966147D01*
X183118761Y-70948125D01*
X183087476Y-70940378D01*
X183064827Y-70935171D01*
X183048534Y-70932267D01*
X183036320Y-70931429D01*
X183025907Y-70932421D01*
X183015014Y-70935008D01*
X183008963Y-70936742D01*
X182984581Y-70945795D01*
X182960325Y-70958059D01*
X182939255Y-70971679D01*
X182924433Y-70984800D01*
X182920422Y-70990401D01*
X182916288Y-71009214D01*
X182921615Y-71029747D01*
X182935225Y-71050024D01*
X182955939Y-71068070D01*
X182972377Y-71077535D01*
X182992557Y-71085958D01*
X183015127Y-71092582D01*
X183042006Y-71097727D01*
X183075116Y-71101711D01*
X183116375Y-71104853D01*
X183146793Y-71106514D01*
X183224214Y-71110292D01*
X183224214Y-71492602D01*
X183224214Y-71874911D01*
X183390320Y-71874911D01*
X183556425Y-71874911D01*
X183556425Y-71917141D01*
X183556425Y-71959371D01*
X183184800Y-71959371D01*
X182813175Y-71959371D01*
X182813175Y-71917141D01*
X182813175Y-71874911D01*
X182973649Y-71874911D01*
X183134124Y-71874911D01*
X183134124Y-71535111D01*
X183134124Y-71195310D01*
X183076409Y-71191727D01*
X183012732Y-71184467D01*
X182958170Y-71171196D01*
X182912851Y-71151977D01*
X182876902Y-71126873D01*
X182850451Y-71095945D01*
X182840015Y-71076512D01*
X182831729Y-71048249D01*
X182828918Y-71016372D01*
X182831717Y-70985798D01*
X182837020Y-70967962D01*
X182852461Y-70941611D01*
X182875212Y-70915369D01*
X182901925Y-70892970D01*
X182907723Y-70889105D01*
X182931888Y-70873751D01*
X182930443Y-70872762D01*
X183210731Y-70872762D01*
X183211344Y-70877267D01*
X183221396Y-70881532D01*
X183239063Y-70885418D01*
X183262522Y-70888789D01*
X183289951Y-70891507D01*
X183319526Y-70893436D01*
X183349426Y-70894438D01*
X183377826Y-70894377D01*
X183402905Y-70893114D01*
X183422840Y-70890514D01*
X183428670Y-70889151D01*
X183444140Y-70882314D01*
X183448870Y-70874379D01*
X183443091Y-70866785D01*
X183427034Y-70860970D01*
X183424043Y-70860391D01*
X183401722Y-70857802D01*
X183373718Y-70856586D01*
X183342308Y-70856612D01*
X183309771Y-70857749D01*
X183278383Y-70859863D01*
X183250421Y-70862822D01*
X183228163Y-70866496D01*
X183213886Y-70870751D01*
X183210731Y-70872762D01*
X182930443Y-70872762D01*
X182913354Y-70861064D01*
X182892131Y-70844763D01*
X182870790Y-70825427D01*
X182852233Y-70805933D01*
X182839361Y-70789158D01*
X182837350Y-70785687D01*
X182831145Y-70765142D01*
X182829624Y-70739652D01*
X182832729Y-70714484D01*
X182838321Y-70698469D01*
X182846250Y-70687424D01*
X182860279Y-70671757D01*
X182877938Y-70654149D01*
X182886227Y-70646473D01*
X182903296Y-70630770D01*
X182916659Y-70617943D01*
X182924471Y-70609793D01*
X182925721Y-70607967D01*
X183218584Y-70607967D01*
X183223976Y-70614793D01*
X183239292Y-70620422D01*
X183263239Y-70624668D01*
X183294523Y-70627345D01*
X183331853Y-70628265D01*
X183356535Y-70627899D01*
X183383474Y-70626622D01*
X183407648Y-70624560D01*
X183425962Y-70622028D01*
X183433957Y-70620023D01*
X183446621Y-70612793D01*
X183449319Y-70605615D01*
X183443341Y-70598873D01*
X183429978Y-70592954D01*
X183410519Y-70588242D01*
X183386256Y-70585121D01*
X183358478Y-70583977D01*
X183328477Y-70585196D01*
X183319936Y-70586004D01*
X183286891Y-70590123D01*
X183258565Y-70594787D01*
X183236634Y-70599631D01*
X183222773Y-70604292D01*
X183218584Y-70607967D01*
X182925721Y-70607967D01*
X182925734Y-70607948D01*
X182921692Y-70603282D01*
X182911005Y-70593712D01*
X182895923Y-70581243D01*
X182894763Y-70580316D01*
X182863754Y-70551903D01*
X182843164Y-70524071D01*
X182832285Y-70495658D01*
X182830067Y-70474329D01*
X182833211Y-70448743D01*
X182843380Y-70424958D01*
X182861676Y-70401260D01*
X182889202Y-70375933D01*
X182897709Y-70369103D01*
X182925967Y-70346902D01*
X183221770Y-70346902D01*
X183229421Y-70350881D01*
X183246603Y-70355232D01*
X183259433Y-70357856D01*
X183286989Y-70361909D01*
X183318614Y-70364393D01*
X183351382Y-70365311D01*
X183382370Y-70364666D01*
X183408652Y-70362459D01*
X183427303Y-70358693D01*
X183429915Y-70357730D01*
X183444779Y-70349605D01*
X183448598Y-70341924D01*
X183441541Y-70334107D01*
X183437496Y-70331738D01*
X183426732Y-70329234D01*
X183407206Y-70327634D01*
X183381372Y-70326876D01*
X183351687Y-70326900D01*
X183320609Y-70327643D01*
X183290593Y-70329043D01*
X183264095Y-70331039D01*
X183243573Y-70333570D01*
X183231482Y-70336573D01*
X183230771Y-70336930D01*
X183222578Y-70342513D01*
X183221770Y-70346902D01*
X182925967Y-70346902D01*
X182932876Y-70341474D01*
X182916663Y-70329845D01*
X182897084Y-70314418D01*
X182876693Y-70296113D01*
X182858121Y-70277523D01*
X182843997Y-70261238D01*
X182838021Y-70252324D01*
X182832310Y-70233269D01*
X182830347Y-70208916D01*
X182832129Y-70184473D01*
X182837653Y-70165149D01*
X182838079Y-70164312D01*
X182846654Y-70152294D01*
X182861211Y-70135820D01*
X182879050Y-70117603D01*
X182897468Y-70100357D01*
X182913765Y-70086793D01*
X182918961Y-70083088D01*
X182924938Y-70078691D01*
X182925623Y-70077059D01*
X183212475Y-70077059D01*
X183221786Y-70081808D01*
X183239967Y-70086944D01*
X183263629Y-70091660D01*
X183278922Y-70093135D01*
X183302213Y-70094055D01*
X183330254Y-70094434D01*
X183359797Y-70094286D01*
X183387594Y-70093623D01*
X183410395Y-70092460D01*
X183424043Y-70090983D01*
X183440719Y-70085489D01*
X183448506Y-70077587D01*
X183446720Y-70069031D01*
X183435408Y-70061849D01*
X183420532Y-70058850D01*
X183397252Y-70057244D01*
X183368098Y-70056903D01*
X183335601Y-70057697D01*
X183302292Y-70059499D01*
X183270702Y-70062180D01*
X183243361Y-70065612D01*
X183222799Y-70069666D01*
X183213194Y-70073122D01*
X183212475Y-70077059D01*
X182925623Y-70077059D01*
X182926696Y-70074500D01*
X182923105Y-70068694D01*
X182913035Y-70059451D01*
X182895354Y-70044949D01*
X182895224Y-70044843D01*
X182868362Y-70021764D01*
X182849814Y-70002059D01*
X182838183Y-69983400D01*
X182832075Y-69963454D01*
X182830094Y-69939892D01*
X182830067Y-69936023D01*
X182833948Y-69899187D01*
X182846105Y-69867924D01*
X182867311Y-69841170D01*
X182898338Y-69817861D01*
X182926849Y-69802776D01*
X182954072Y-69792089D01*
X182987599Y-69781905D01*
X183023516Y-69773150D01*
X183057906Y-69766752D01*
X183086854Y-69763637D01*
X183092841Y-69763480D01*
X183101335Y-69763765D01*
X183108586Y-69764132D01*
X183114690Y-69763759D01*
X183119747Y-69761826D01*
X183123852Y-69757513D01*
X183127105Y-69749998D01*
X183129602Y-69738461D01*
X183131442Y-69722081D01*
X183132723Y-69700038D01*
X183133541Y-69671510D01*
X183133996Y-69635678D01*
X183134183Y-69591721D01*
X183134202Y-69538818D01*
X183134151Y-69476148D01*
X183134124Y-69416842D01*
X183134124Y-69077114D01*
X183008144Y-68847338D01*
X182981082Y-68797949D01*
X182954498Y-68749378D01*
X182929132Y-68702978D01*
X182905723Y-68660106D01*
X182885011Y-68622115D01*
X182867734Y-68590360D01*
X182861294Y-68578483D01*
X182965203Y-68578483D01*
X182967836Y-68584008D01*
X182975291Y-68598139D01*
X182986899Y-68619647D01*
X183001992Y-68647306D01*
X183019903Y-68679887D01*
X183039962Y-68716164D01*
X183048256Y-68731105D01*
X183131308Y-68880578D01*
X183132814Y-68735086D01*
X183133118Y-68695468D01*
X183133196Y-68659404D01*
X183133058Y-68628474D01*
X183132719Y-68604259D01*
X183132190Y-68588341D01*
X183131583Y-68582463D01*
X183127217Y-68579464D01*
X183115975Y-68577359D01*
X183096630Y-68576046D01*
X183067959Y-68575421D01*
X183047025Y-68575332D01*
X183235476Y-68575332D01*
X183235530Y-68725953D01*
X183235585Y-68876574D01*
X183319990Y-68727888D01*
X183341035Y-68690756D01*
X183360163Y-68656887D01*
X183376698Y-68627489D01*
X183389962Y-68603772D01*
X183399278Y-68586945D01*
X183403967Y-68578218D01*
X183404396Y-68577267D01*
X183399090Y-68576594D01*
X183384469Y-68576023D01*
X183362479Y-68575598D01*
X183335068Y-68575364D01*
X183319936Y-68575332D01*
X183235476Y-68575332D01*
X183047025Y-68575332D01*
X183018125Y-68575537D01*
X182993705Y-68576098D01*
X182975742Y-68576941D01*
X182966214Y-68577989D01*
X182965203Y-68578483D01*
X182861294Y-68578483D01*
X182854633Y-68566197D01*
X182848464Y-68554752D01*
X182814763Y-68491941D01*
X182888575Y-68488027D01*
X182909108Y-68487262D01*
X182937952Y-68486658D01*
X182973901Y-68486207D01*
X183015747Y-68485901D01*
X183062286Y-68485734D01*
X183112311Y-68485698D01*
X183164616Y-68485785D01*
G37*
D13*
X92597300Y-85024952D02*
X92597300Y-84502448D01*
X94067300Y-85024952D02*
X94067300Y-84502448D01*
X184560300Y-78242400D02*
X184560300Y-99852400D01*
X212120300Y-99442400D02*
X219020300Y-99442400D01*
X212120300Y-101982400D02*
X186690300Y-101982400D01*
X212120300Y-101982400D02*
X212120300Y-99442400D01*
X219020300Y-76122400D02*
X186690300Y-76122400D01*
X219020300Y-99442400D02*
X219020300Y-76122400D01*
X184560300Y-78252400D02*
G75*
G02*
X186690300Y-76122400I2130000J0D01*
G01*
X186690300Y-101982400D02*
G75*
G02*
X184560300Y-99852400I2J2130002D01*
G01*
D12*
X193535300Y-103022400D02*
X192265300Y-103022400D01*
X192900300Y-102387400D01*
X193535300Y-103022400D01*
G36*
X193535300Y-103022400D02*
G01*
X192265300Y-103022400D01*
X192900300Y-102387400D01*
X193535300Y-103022400D01*
G37*
D13*
X196753236Y-80189400D02*
X197207364Y-80189400D01*
X196753236Y-81659400D02*
X197207364Y-81659400D01*
X137291500Y-86623336D02*
X137291500Y-90977464D01*
X140711500Y-86623336D02*
X140711500Y-90977464D01*
X118454500Y-84995652D02*
X118454500Y-84473148D01*
X119924500Y-84995652D02*
X119924500Y-84473148D01*
X169152900Y-84862052D02*
X169152900Y-84339548D01*
X170622900Y-84862052D02*
X170622900Y-84339548D01*
X121389500Y-86918400D02*
X119889500Y-86918400D01*
X121389500Y-86918400D02*
X122889500Y-86918400D01*
X121389500Y-90138400D02*
X119889500Y-90138400D01*
X121389500Y-90138400D02*
X122889500Y-90138400D01*
X123842000Y-90268400D02*
X123362000Y-90268400D01*
X123602000Y-89938400D01*
X123842000Y-90268400D01*
G36*
X123842000Y-90268400D02*
G01*
X123362000Y-90268400D01*
X123602000Y-89938400D01*
X123842000Y-90268400D01*
G37*
X134822300Y-50849400D02*
X142722300Y-50849400D01*
X134822300Y-59459400D02*
X134822300Y-50849400D01*
X134822300Y-75449400D02*
X134822300Y-62059400D01*
X134822300Y-75449400D02*
X142722300Y-75449400D01*
X142722300Y-50849400D02*
X142722300Y-59449400D01*
X142722300Y-50849400D02*
X150622300Y-50849400D01*
X142722300Y-62049400D02*
X142722300Y-75449400D01*
X142722300Y-75449400D02*
X150622300Y-75449400D01*
X150622300Y-50849400D02*
X150622300Y-59449400D01*
X150622300Y-62049400D02*
X150622300Y-75449400D01*
X111891500Y-86619336D02*
X111891500Y-90973464D01*
X115311500Y-86619336D02*
X115311500Y-90973464D01*
X209904052Y-80189400D02*
X209381548Y-80189400D01*
X209904052Y-81659400D02*
X209381548Y-81659400D01*
X184991700Y-107305800D02*
X184991700Y-109965800D01*
X192671700Y-107305800D02*
X184991700Y-107305800D01*
X192671700Y-107305800D02*
X192671700Y-109965800D01*
X192671700Y-109965800D02*
X184991700Y-109965800D01*
X195271700Y-108635800D02*
X195271700Y-109965800D01*
X195271700Y-109965800D02*
X193941700Y-109965800D01*
X196721236Y-82602400D02*
X197175364Y-82602400D01*
X196721236Y-84072400D02*
X197175364Y-84072400D01*
X83654300Y-51024400D02*
X91554300Y-51024400D01*
X83654300Y-59634400D02*
X83654300Y-51024400D01*
X83654300Y-75624400D02*
X83654300Y-62234400D01*
X83654300Y-75624400D02*
X91554300Y-75624400D01*
X91554300Y-51024400D02*
X91554300Y-59624400D01*
X91554300Y-51024400D02*
X99454300Y-51024400D01*
X91554300Y-62224400D02*
X91554300Y-75624400D01*
X91554300Y-75624400D02*
X99454300Y-75624400D01*
X99454300Y-51024400D02*
X99454300Y-59624400D01*
X99454300Y-62224400D02*
X99454300Y-75624400D01*
X146586300Y-86942400D02*
X145086300Y-86942400D01*
X146586300Y-86942400D02*
X148086300Y-86942400D01*
X146586300Y-90162400D02*
X145086300Y-90162400D01*
X146586300Y-90162400D02*
X148086300Y-90162400D01*
X149038800Y-90292400D02*
X148558800Y-90292400D01*
X148798800Y-89962400D01*
X149038800Y-90292400D01*
G36*
X149038800Y-90292400D02*
G01*
X148558800Y-90292400D01*
X148798800Y-89962400D01*
X149038800Y-90292400D01*
G37*
X199215700Y-107305800D02*
X199215700Y-109965800D01*
X206895700Y-107305800D02*
X199215700Y-107305800D01*
X206895700Y-107305800D02*
X206895700Y-109965800D01*
X206895700Y-109965800D02*
X199215700Y-109965800D01*
X209495700Y-108635800D02*
X209495700Y-109965800D01*
X209495700Y-109965800D02*
X208165700Y-109965800D01*
X160323900Y-50874800D02*
X168223900Y-50874800D01*
X160323900Y-59484800D02*
X160323900Y-50874800D01*
X160323900Y-75474800D02*
X160323900Y-62084800D01*
X160323900Y-75474800D02*
X168223900Y-75474800D01*
X168223900Y-50874800D02*
X168223900Y-59474800D01*
X168223900Y-50874800D02*
X176123900Y-50874800D01*
X168223900Y-62074800D02*
X168223900Y-75474800D01*
X168223900Y-75474800D02*
X176123900Y-75474800D01*
X176123900Y-50874800D02*
X176123900Y-59474800D01*
X176123900Y-62074800D02*
X176123900Y-75474800D01*
X172072300Y-86823400D02*
X170572300Y-86823400D01*
X172072300Y-86823400D02*
X173572300Y-86823400D01*
X172072300Y-90043400D02*
X170572300Y-90043400D01*
X172072300Y-90043400D02*
X173572300Y-90043400D01*
X174524800Y-90173400D02*
X174044800Y-90173400D01*
X174284800Y-89843400D01*
X174524800Y-90173400D01*
G36*
X174524800Y-90173400D02*
G01*
X174044800Y-90173400D01*
X174284800Y-89843400D01*
X174524800Y-90173400D01*
G37*
X214912752Y-80164000D02*
X214390248Y-80164000D01*
X214912752Y-81634000D02*
X214390248Y-81634000D01*
M02*
