M48
; DRILL file {KiCad 8.0.5} date 2025-06-13T07:27:10+0200
; FORMAT={-:-/ absolute / inch / decimal}
; #@! TF.CreationDate,2025-06-13T07:27:10+02:00
; #@! TF.GenerationSoftware,Kicad,Pcbnew,8.0.5
; #@! TF.FileFunction,Plated,1,2,PTH
FMAT,2
INCH
; #@! TA.AperFunction,Plated,PTH,ViaDrill
T1C0.0157
; #@! TA.AperFunction,Plated,PTH,ComponentDrill
T2C0.0394
; #@! TA.AperFunction,Plated,PTH,ComponentDrill
T3C0.0433
; #@! TA.AperFunction,Plated,PTH,ComponentDrill
T4C0.1378
%
G90
G05
T1
X3.9195Y-3.296
X3.9195Y-3.456
X4.9395Y-3.3003
X4.9395Y-3.456
X5.0665Y-4.244
X5.0665Y-4.334
X5.9295Y-3.3033
X5.9295Y-3.456
X6.0495Y-4.246
X6.0495Y-4.336
X6.9328Y-3.292
X6.9328Y-3.451
X7.0545Y-4.246
X7.0545Y-4.336
X7.0565Y-3.686
X7.8565Y-3.186
T2
X7.3355Y-4.277
X7.4355Y-4.277
X7.5355Y-4.277
X7.5945Y-3.056
X7.5945Y-3.956
X7.6355Y-4.277
X7.6945Y-3.056
X7.6945Y-3.956
X7.7945Y-3.056
X7.7945Y-3.956
X7.8945Y-3.056
X7.8945Y-3.956
X7.8955Y-4.277
X7.9945Y-3.056
X7.9945Y-3.956
X7.9955Y-4.277
X8.0945Y-3.056
X8.0945Y-3.956
X8.0955Y-4.277
X8.1945Y-3.056
X8.1945Y-3.956
X8.1955Y-4.277
X8.2945Y-3.056
X8.2945Y-3.956
X8.4Y-3.451
X8.4Y-3.551
T4
X3.0Y-2.7
X3.0Y-4.3
X8.594Y-2.696
X8.594Y-4.296
T3
G00X3.3811Y-3.1179
M15
G01X3.5169Y-3.1179
M16
G05
G00X3.3866Y-3.896
M15
G01X3.5224Y-3.896
M16
G05
G00X3.6921Y-3.1179
M15
G01X3.8279Y-3.1179
M16
G05
G00X3.6976Y-3.896
M15
G01X3.8334Y-3.896
M16
G05
G00X4.3996Y-3.898
M15
G01X4.5354Y-3.898
M16
G05
G00X4.4006Y-3.116
M15
G01X4.5364Y-3.116
M16
G05
G00X4.7106Y-3.898
M15
G01X4.8464Y-3.898
M16
G05
G00X4.7116Y-3.116
M15
G01X4.8474Y-3.116
M16
G05
G00X5.3956Y-3.111
M15
G01X5.5314Y-3.111
M16
G05
G00X5.4006Y-3.896
M15
G01X5.5364Y-3.896
M16
G05
G00X5.7066Y-3.111
M15
G01X5.8424Y-3.111
M16
G05
G00X5.7116Y-3.896
M15
G01X5.8474Y-3.896
M16
G05
G00X6.3996Y-3.112
M15
G01X6.5354Y-3.112
M16
G05
G00X6.3996Y-3.896
M15
G01X6.5354Y-3.896
M16
G05
G00X6.7106Y-3.112
M15
G01X6.8464Y-3.112
M16
G05
G00X6.7106Y-3.896
M15
G01X6.8464Y-3.896
M16
G05
M30
