%TF.GenerationSoftware,KiCad,Pcbnew,8.0.5*%
%TF.CreationDate,2025-06-13T07:23:07+02:00*%
%TF.ProjectId,4-Kanal_Power_Meter,342d4b61-6e61-46c5-9f50-6f7765725f4d,rev?*%
%TF.SameCoordinates,Original*%
%TF.FileFunction,Drillmap*%
%TF.FilePolarity,Positive*%
%FSLAX45Y45*%
G04 Gerber Fmt 4.5, Leading zero omitted, Abs format (unit mm)*
G04 Created by KiCad (PCBNEW 8.0.5) date 2025-06-13 07:23:07*
%MOMM*%
%LPD*%
G01*
G04 APERTURE LIST*
%ADD10C,0.150000*%
%ADD11C,0.200000*%
%ADD12C,0.100000*%
%ADD13C,0.110000*%
%ADD14C,0.350000*%
G04 APERTURE END LIST*
D10*
X22352000Y-6350000D02*
X7112000Y-6350000D01*
X22352000Y-11430000D02*
X22352000Y-6350000D01*
X7112000Y-6350000D02*
X7112000Y-11430000D01*
X7112000Y-11430000D02*
X22352000Y-11430000D01*
D11*
D12*
X9935530Y-8351840D02*
X9975530Y-8391840D01*
X9975530Y-8351840D02*
X9935530Y-8391840D01*
X9935530Y-8758240D02*
X9975530Y-8798240D01*
X9975530Y-8758240D02*
X9935530Y-8798240D01*
X12526330Y-8362780D02*
X12566330Y-8402780D01*
X12566330Y-8362780D02*
X12526330Y-8402780D01*
X12526330Y-8758240D02*
X12566330Y-8798240D01*
X12566330Y-8758240D02*
X12526330Y-8798240D01*
X12848910Y-10759760D02*
X12888910Y-10799760D01*
X12888910Y-10759760D02*
X12848910Y-10799760D01*
X12848910Y-10988360D02*
X12888910Y-11028360D01*
X12888910Y-10988360D02*
X12848910Y-11028360D01*
X15040930Y-8370400D02*
X15080930Y-8410400D01*
X15080930Y-8370400D02*
X15040930Y-8410400D01*
X15040930Y-8758240D02*
X15080930Y-8798240D01*
X15080930Y-8758240D02*
X15040930Y-8798240D01*
X15345730Y-10764840D02*
X15385730Y-10804840D01*
X15385730Y-10764840D02*
X15345730Y-10804840D01*
X15345730Y-10993440D02*
X15385730Y-11033440D01*
X15385730Y-10993440D02*
X15345730Y-11033440D01*
X17589240Y-8341680D02*
X17629240Y-8381680D01*
X17629240Y-8341680D02*
X17589240Y-8381680D01*
X17589240Y-8745540D02*
X17629240Y-8785540D01*
X17629240Y-8745540D02*
X17589240Y-8785540D01*
X17898430Y-10764840D02*
X17938430Y-10804840D01*
X17938430Y-10764840D02*
X17898430Y-10804840D01*
X17898430Y-10993440D02*
X17938430Y-11033440D01*
X17938430Y-10993440D02*
X17898430Y-11033440D01*
X17903510Y-9342440D02*
X17943510Y-9382440D01*
X17943510Y-9342440D02*
X17903510Y-9382440D01*
X19935510Y-8072440D02*
X19975510Y-8112440D01*
X19975510Y-8072440D02*
X19935510Y-8112440D01*
X18682170Y-10863580D02*
G75*
G02*
X18582170Y-10863580I-50000J0D01*
G01*
X18582170Y-10863580D02*
G75*
G02*
X18682170Y-10863580I50000J0D01*
G01*
X18936170Y-10863580D02*
G75*
G02*
X18836170Y-10863580I-50000J0D01*
G01*
X18836170Y-10863580D02*
G75*
G02*
X18936170Y-10863580I50000J0D01*
G01*
X19190170Y-10863580D02*
G75*
G02*
X19090170Y-10863580I-50000J0D01*
G01*
X19090170Y-10863580D02*
G75*
G02*
X19190170Y-10863580I50000J0D01*
G01*
X19340030Y-7762240D02*
G75*
G02*
X19240030Y-7762240I-50000J0D01*
G01*
X19240030Y-7762240D02*
G75*
G02*
X19340030Y-7762240I50000J0D01*
G01*
X19340030Y-10048240D02*
G75*
G02*
X19240030Y-10048240I-50000J0D01*
G01*
X19240030Y-10048240D02*
G75*
G02*
X19340030Y-10048240I50000J0D01*
G01*
X19444170Y-10863580D02*
G75*
G02*
X19344170Y-10863580I-50000J0D01*
G01*
X19344170Y-10863580D02*
G75*
G02*
X19444170Y-10863580I50000J0D01*
G01*
X19594030Y-7762240D02*
G75*
G02*
X19494030Y-7762240I-50000J0D01*
G01*
X19494030Y-7762240D02*
G75*
G02*
X19594030Y-7762240I50000J0D01*
G01*
X19594030Y-10048240D02*
G75*
G02*
X19494030Y-10048240I-50000J0D01*
G01*
X19494030Y-10048240D02*
G75*
G02*
X19594030Y-10048240I50000J0D01*
G01*
X19848030Y-7762240D02*
G75*
G02*
X19748030Y-7762240I-50000J0D01*
G01*
X19748030Y-7762240D02*
G75*
G02*
X19848030Y-7762240I50000J0D01*
G01*
X19848030Y-10048240D02*
G75*
G02*
X19748030Y-10048240I-50000J0D01*
G01*
X19748030Y-10048240D02*
G75*
G02*
X19848030Y-10048240I50000J0D01*
G01*
X20102030Y-7762240D02*
G75*
G02*
X20002030Y-7762240I-50000J0D01*
G01*
X20002030Y-7762240D02*
G75*
G02*
X20102030Y-7762240I50000J0D01*
G01*
X20102030Y-10048240D02*
G75*
G02*
X20002030Y-10048240I-50000J0D01*
G01*
X20002030Y-10048240D02*
G75*
G02*
X20102030Y-10048240I50000J0D01*
G01*
X20104570Y-10863580D02*
G75*
G02*
X20004570Y-10863580I-50000J0D01*
G01*
X20004570Y-10863580D02*
G75*
G02*
X20104570Y-10863580I50000J0D01*
G01*
X20356030Y-7762240D02*
G75*
G02*
X20256030Y-7762240I-50000J0D01*
G01*
X20256030Y-7762240D02*
G75*
G02*
X20356030Y-7762240I50000J0D01*
G01*
X20356030Y-10048240D02*
G75*
G02*
X20256030Y-10048240I-50000J0D01*
G01*
X20256030Y-10048240D02*
G75*
G02*
X20356030Y-10048240I50000J0D01*
G01*
X20358570Y-10863580D02*
G75*
G02*
X20258570Y-10863580I-50000J0D01*
G01*
X20258570Y-10863580D02*
G75*
G02*
X20358570Y-10863580I50000J0D01*
G01*
X20610030Y-7762240D02*
G75*
G02*
X20510030Y-7762240I-50000J0D01*
G01*
X20510030Y-7762240D02*
G75*
G02*
X20610030Y-7762240I50000J0D01*
G01*
X20610030Y-10048240D02*
G75*
G02*
X20510030Y-10048240I-50000J0D01*
G01*
X20510030Y-10048240D02*
G75*
G02*
X20610030Y-10048240I50000J0D01*
G01*
X20612570Y-10863580D02*
G75*
G02*
X20512570Y-10863580I-50000J0D01*
G01*
X20512570Y-10863580D02*
G75*
G02*
X20612570Y-10863580I50000J0D01*
G01*
X20864030Y-7762240D02*
G75*
G02*
X20764030Y-7762240I-50000J0D01*
G01*
X20764030Y-7762240D02*
G75*
G02*
X20864030Y-7762240I50000J0D01*
G01*
X20864030Y-10048240D02*
G75*
G02*
X20764030Y-10048240I-50000J0D01*
G01*
X20764030Y-10048240D02*
G75*
G02*
X20864030Y-10048240I50000J0D01*
G01*
X20866570Y-10863580D02*
G75*
G02*
X20766570Y-10863580I-50000J0D01*
G01*
X20766570Y-10863580D02*
G75*
G02*
X20866570Y-10863580I50000J0D01*
G01*
X21118030Y-7762240D02*
G75*
G02*
X21018030Y-7762240I-50000J0D01*
G01*
X21018030Y-7762240D02*
G75*
G02*
X21118030Y-7762240I50000J0D01*
G01*
X21118030Y-10048240D02*
G75*
G02*
X21018030Y-10048240I-50000J0D01*
G01*
X21018030Y-10048240D02*
G75*
G02*
X21118030Y-10048240I50000J0D01*
G01*
X21386000Y-8765540D02*
G75*
G02*
X21286000Y-8765540I-50000J0D01*
G01*
X21286000Y-8765540D02*
G75*
G02*
X21386000Y-8765540I50000J0D01*
G01*
X21386000Y-9019540D02*
G75*
G02*
X21286000Y-9019540I-50000J0D01*
G01*
X21286000Y-9019540D02*
G75*
G02*
X21386000Y-9019540I50000J0D01*
G01*
D13*
X8760430Y-7864440D02*
X8760430Y-7974440D01*
X8705430Y-7919440D02*
X8815430Y-7919440D01*
D12*
X8587930Y-7974440D02*
X8932930Y-7974440D01*
X8932930Y-7864440D02*
G75*
G02*
X8932930Y-7974440I0J-55000D01*
G01*
X8932930Y-7864440D02*
X8587930Y-7864440D01*
X8587930Y-7864440D02*
G75*
G03*
X8587930Y-7974440I0J-55000D01*
G01*
D13*
X8774430Y-9840840D02*
X8774430Y-9950840D01*
X8719430Y-9895840D02*
X8829430Y-9895840D01*
D12*
X8601930Y-9950840D02*
X8946930Y-9950840D01*
X8946930Y-9840840D02*
G75*
G02*
X8946930Y-9950840I0J-55000D01*
G01*
X8946930Y-9840840D02*
X8601930Y-9840840D01*
X8601930Y-9840840D02*
G75*
G03*
X8601930Y-9950840I0J-55000D01*
G01*
D13*
X9550430Y-7864440D02*
X9550430Y-7974440D01*
X9495430Y-7919440D02*
X9605430Y-7919440D01*
D12*
X9377930Y-7974440D02*
X9722930Y-7974440D01*
X9722930Y-7864440D02*
G75*
G02*
X9722930Y-7974440I0J-55000D01*
G01*
X9722930Y-7864440D02*
X9377930Y-7864440D01*
X9377930Y-7864440D02*
G75*
G03*
X9377930Y-7974440I0J-55000D01*
G01*
D13*
X9564430Y-9840840D02*
X9564430Y-9950840D01*
X9509430Y-9895840D02*
X9619430Y-9895840D01*
D12*
X9391930Y-9950840D02*
X9736930Y-9950840D01*
X9736930Y-9840840D02*
G75*
G02*
X9736930Y-9950840I0J-55000D01*
G01*
X9736930Y-9840840D02*
X9391930Y-9840840D01*
X9391930Y-9840840D02*
G75*
G03*
X9391930Y-9950840I0J-55000D01*
G01*
D13*
X11347390Y-9845920D02*
X11347390Y-9955920D01*
X11292390Y-9900920D02*
X11402390Y-9900920D01*
D12*
X11174890Y-9955920D02*
X11519890Y-9955920D01*
X11519890Y-9845920D02*
G75*
G02*
X11519890Y-9955920I0J-55000D01*
G01*
X11519890Y-9845920D02*
X11174890Y-9845920D01*
X11174890Y-9845920D02*
G75*
G03*
X11174890Y-9955920I0J-55000D01*
G01*
D13*
X11349990Y-7859640D02*
X11349990Y-7969640D01*
X11294990Y-7914640D02*
X11404990Y-7914640D01*
D12*
X11177490Y-7969640D02*
X11522490Y-7969640D01*
X11522490Y-7859640D02*
G75*
G02*
X11522490Y-7969640I0J-55000D01*
G01*
X11522490Y-7859640D02*
X11177490Y-7859640D01*
X11177490Y-7859640D02*
G75*
G03*
X11177490Y-7969640I0J-55000D01*
G01*
D13*
X12137390Y-9845920D02*
X12137390Y-9955920D01*
X12082390Y-9900920D02*
X12192390Y-9900920D01*
D12*
X11964890Y-9955920D02*
X12309890Y-9955920D01*
X12309890Y-9845920D02*
G75*
G02*
X12309890Y-9955920I0J-55000D01*
G01*
X12309890Y-9845920D02*
X11964890Y-9845920D01*
X11964890Y-9845920D02*
G75*
G03*
X11964890Y-9955920I0J-55000D01*
G01*
D13*
X12139990Y-7859640D02*
X12139990Y-7969640D01*
X12084990Y-7914640D02*
X12194990Y-7914640D01*
D12*
X11967490Y-7969640D02*
X12312490Y-7969640D01*
X12312490Y-7859640D02*
G75*
G02*
X12312490Y-7969640I0J-55000D01*
G01*
X12312490Y-7859640D02*
X11967490Y-7859640D01*
X11967490Y-7859640D02*
G75*
G03*
X11967490Y-7969640I0J-55000D01*
G01*
D13*
X13877230Y-7846940D02*
X13877230Y-7956940D01*
X13822230Y-7901940D02*
X13932230Y-7901940D01*
D12*
X13704730Y-7956940D02*
X14049730Y-7956940D01*
X14049730Y-7846940D02*
G75*
G02*
X14049730Y-7956940I0J-55000D01*
G01*
X14049730Y-7846940D02*
X13704730Y-7846940D01*
X13704730Y-7846940D02*
G75*
G03*
X13704730Y-7956940I0J-55000D01*
G01*
D13*
X13889930Y-9840840D02*
X13889930Y-9950840D01*
X13834930Y-9895840D02*
X13944930Y-9895840D01*
D12*
X13717430Y-9950840D02*
X14062430Y-9950840D01*
X14062430Y-9840840D02*
G75*
G02*
X14062430Y-9950840I0J-55000D01*
G01*
X14062430Y-9840840D02*
X13717430Y-9840840D01*
X13717430Y-9840840D02*
G75*
G03*
X13717430Y-9950840I0J-55000D01*
G01*
D13*
X14667230Y-7846940D02*
X14667230Y-7956940D01*
X14612230Y-7901940D02*
X14722230Y-7901940D01*
D12*
X14494730Y-7956940D02*
X14839730Y-7956940D01*
X14839730Y-7846940D02*
G75*
G02*
X14839730Y-7956940I0J-55000D01*
G01*
X14839730Y-7846940D02*
X14494730Y-7846940D01*
X14494730Y-7846940D02*
G75*
G03*
X14494730Y-7956940I0J-55000D01*
G01*
D13*
X14679930Y-9840840D02*
X14679930Y-9950840D01*
X14624930Y-9895840D02*
X14734930Y-9895840D01*
D12*
X14507430Y-9950840D02*
X14852430Y-9950840D01*
X14852430Y-9840840D02*
G75*
G02*
X14852430Y-9950840I0J-55000D01*
G01*
X14852430Y-9840840D02*
X14507430Y-9840840D01*
X14507430Y-9840840D02*
G75*
G03*
X14507430Y-9950840I0J-55000D01*
G01*
D13*
X16427390Y-7849480D02*
X16427390Y-7959480D01*
X16372390Y-7904480D02*
X16482390Y-7904480D01*
D12*
X16254890Y-7959480D02*
X16599890Y-7959480D01*
X16599890Y-7849480D02*
G75*
G02*
X16599890Y-7959480I0J-55000D01*
G01*
X16599890Y-7849480D02*
X16254890Y-7849480D01*
X16254890Y-7849480D02*
G75*
G03*
X16254890Y-7959480I0J-55000D01*
G01*
D13*
X16427390Y-9840840D02*
X16427390Y-9950840D01*
X16372390Y-9895840D02*
X16482390Y-9895840D01*
D12*
X16254890Y-9950840D02*
X16599890Y-9950840D01*
X16599890Y-9840840D02*
G75*
G02*
X16599890Y-9950840I0J-55000D01*
G01*
X16599890Y-9840840D02*
X16254890Y-9840840D01*
X16254890Y-9840840D02*
G75*
G03*
X16254890Y-9950840I0J-55000D01*
G01*
D13*
X17217390Y-7849480D02*
X17217390Y-7959480D01*
X17162390Y-7904480D02*
X17272390Y-7904480D01*
D12*
X17044890Y-7959480D02*
X17389890Y-7959480D01*
X17389890Y-7849480D02*
G75*
G02*
X17389890Y-7959480I0J-55000D01*
G01*
X17389890Y-7849480D02*
X17044890Y-7849480D01*
X17044890Y-7849480D02*
G75*
G03*
X17044890Y-7959480I0J-55000D01*
G01*
D13*
X17217390Y-9840840D02*
X17217390Y-9950840D01*
X17162390Y-9895840D02*
X17272390Y-9895840D01*
D12*
X17044890Y-9950840D02*
X17389890Y-9950840D01*
X17389890Y-9840840D02*
G75*
G02*
X17389890Y-9950840I0J-55000D01*
G01*
X17389890Y-9840840D02*
X17044890Y-9840840D01*
X17044890Y-9840840D02*
G75*
G03*
X17044890Y-9950840I0J-55000D01*
G01*
D14*
X7743745Y-6981745D02*
X7743745Y-6734255D01*
X7496255Y-6734255D01*
X7496255Y-6981745D01*
X7743745Y-6981745D01*
X7743745Y-11045745D02*
X7743745Y-10798255D01*
X7496255Y-10798255D01*
X7496255Y-11045745D01*
X7743745Y-11045745D01*
X21952505Y-6971585D02*
X21952505Y-6724095D01*
X21705015Y-6724095D01*
X21705015Y-6971585D01*
X21952505Y-6971585D01*
X21952505Y-11035585D02*
X21952505Y-10788095D01*
X21705015Y-10788095D01*
X21705015Y-11035585D01*
X21952505Y-11035585D01*
D11*
X7365277Y-11748984D02*
X7365277Y-11548984D01*
X7365277Y-11548984D02*
X7412896Y-11548984D01*
X7412896Y-11548984D02*
X7441467Y-11558508D01*
X7441467Y-11558508D02*
X7460515Y-11577555D01*
X7460515Y-11577555D02*
X7470039Y-11596603D01*
X7470039Y-11596603D02*
X7479562Y-11634698D01*
X7479562Y-11634698D02*
X7479562Y-11663269D01*
X7479562Y-11663269D02*
X7470039Y-11701365D01*
X7470039Y-11701365D02*
X7460515Y-11720412D01*
X7460515Y-11720412D02*
X7441467Y-11739460D01*
X7441467Y-11739460D02*
X7412896Y-11748984D01*
X7412896Y-11748984D02*
X7365277Y-11748984D01*
X7565277Y-11748984D02*
X7565277Y-11615650D01*
X7565277Y-11653746D02*
X7574801Y-11634698D01*
X7574801Y-11634698D02*
X7584324Y-11625174D01*
X7584324Y-11625174D02*
X7603372Y-11615650D01*
X7603372Y-11615650D02*
X7622420Y-11615650D01*
X7689086Y-11748984D02*
X7689086Y-11615650D01*
X7689086Y-11548984D02*
X7679562Y-11558508D01*
X7679562Y-11558508D02*
X7689086Y-11568031D01*
X7689086Y-11568031D02*
X7698610Y-11558508D01*
X7698610Y-11558508D02*
X7689086Y-11548984D01*
X7689086Y-11548984D02*
X7689086Y-11568031D01*
X7812896Y-11748984D02*
X7793848Y-11739460D01*
X7793848Y-11739460D02*
X7784324Y-11720412D01*
X7784324Y-11720412D02*
X7784324Y-11548984D01*
X7917658Y-11748984D02*
X7898610Y-11739460D01*
X7898610Y-11739460D02*
X7889086Y-11720412D01*
X7889086Y-11720412D02*
X7889086Y-11548984D01*
X8146229Y-11748984D02*
X8146229Y-11548984D01*
X8146229Y-11548984D02*
X8212896Y-11691841D01*
X8212896Y-11691841D02*
X8279562Y-11548984D01*
X8279562Y-11548984D02*
X8279562Y-11748984D01*
X8460515Y-11748984D02*
X8460515Y-11644222D01*
X8460515Y-11644222D02*
X8450991Y-11625174D01*
X8450991Y-11625174D02*
X8431944Y-11615650D01*
X8431944Y-11615650D02*
X8393848Y-11615650D01*
X8393848Y-11615650D02*
X8374801Y-11625174D01*
X8460515Y-11739460D02*
X8441467Y-11748984D01*
X8441467Y-11748984D02*
X8393848Y-11748984D01*
X8393848Y-11748984D02*
X8374801Y-11739460D01*
X8374801Y-11739460D02*
X8365277Y-11720412D01*
X8365277Y-11720412D02*
X8365277Y-11701365D01*
X8365277Y-11701365D02*
X8374801Y-11682317D01*
X8374801Y-11682317D02*
X8393848Y-11672793D01*
X8393848Y-11672793D02*
X8441467Y-11672793D01*
X8441467Y-11672793D02*
X8460515Y-11663269D01*
X8555753Y-11615650D02*
X8555753Y-11815650D01*
X8555753Y-11625174D02*
X8574801Y-11615650D01*
X8574801Y-11615650D02*
X8612896Y-11615650D01*
X8612896Y-11615650D02*
X8631944Y-11625174D01*
X8631944Y-11625174D02*
X8641467Y-11634698D01*
X8641467Y-11634698D02*
X8650991Y-11653746D01*
X8650991Y-11653746D02*
X8650991Y-11710888D01*
X8650991Y-11710888D02*
X8641467Y-11729936D01*
X8641467Y-11729936D02*
X8631944Y-11739460D01*
X8631944Y-11739460D02*
X8612896Y-11748984D01*
X8612896Y-11748984D02*
X8574801Y-11748984D01*
X8574801Y-11748984D02*
X8555753Y-11739460D01*
X8736705Y-11729936D02*
X8746229Y-11739460D01*
X8746229Y-11739460D02*
X8736705Y-11748984D01*
X8736705Y-11748984D02*
X8727182Y-11739460D01*
X8727182Y-11739460D02*
X8736705Y-11729936D01*
X8736705Y-11729936D02*
X8736705Y-11748984D01*
X8736705Y-11625174D02*
X8746229Y-11634698D01*
X8746229Y-11634698D02*
X8736705Y-11644222D01*
X8736705Y-11644222D02*
X8727182Y-11634698D01*
X8727182Y-11634698D02*
X8736705Y-11625174D01*
X8736705Y-11625174D02*
X8736705Y-11644222D01*
D12*
X7064500Y-12057500D02*
X7104500Y-12097500D01*
X7104500Y-12057500D02*
X7064500Y-12097500D01*
D11*
X7403372Y-11968984D02*
X7422420Y-11968984D01*
X7422420Y-11968984D02*
X7441467Y-11978508D01*
X7441467Y-11978508D02*
X7450991Y-11988031D01*
X7450991Y-11988031D02*
X7460515Y-12007079D01*
X7460515Y-12007079D02*
X7470039Y-12045174D01*
X7470039Y-12045174D02*
X7470039Y-12092793D01*
X7470039Y-12092793D02*
X7460515Y-12130888D01*
X7460515Y-12130888D02*
X7450991Y-12149936D01*
X7450991Y-12149936D02*
X7441467Y-12159460D01*
X7441467Y-12159460D02*
X7422420Y-12168984D01*
X7422420Y-12168984D02*
X7403372Y-12168984D01*
X7403372Y-12168984D02*
X7384324Y-12159460D01*
X7384324Y-12159460D02*
X7374801Y-12149936D01*
X7374801Y-12149936D02*
X7365277Y-12130888D01*
X7365277Y-12130888D02*
X7355753Y-12092793D01*
X7355753Y-12092793D02*
X7355753Y-12045174D01*
X7355753Y-12045174D02*
X7365277Y-12007079D01*
X7365277Y-12007079D02*
X7374801Y-11988031D01*
X7374801Y-11988031D02*
X7384324Y-11978508D01*
X7384324Y-11978508D02*
X7403372Y-11968984D01*
X7555753Y-12149936D02*
X7565277Y-12159460D01*
X7565277Y-12159460D02*
X7555753Y-12168984D01*
X7555753Y-12168984D02*
X7546229Y-12159460D01*
X7546229Y-12159460D02*
X7555753Y-12149936D01*
X7555753Y-12149936D02*
X7555753Y-12168984D01*
X7736705Y-12035650D02*
X7736705Y-12168984D01*
X7689086Y-11959460D02*
X7641467Y-12102317D01*
X7641467Y-12102317D02*
X7765277Y-12102317D01*
X7879562Y-11968984D02*
X7898610Y-11968984D01*
X7898610Y-11968984D02*
X7917658Y-11978508D01*
X7917658Y-11978508D02*
X7927182Y-11988031D01*
X7927182Y-11988031D02*
X7936705Y-12007079D01*
X7936705Y-12007079D02*
X7946229Y-12045174D01*
X7946229Y-12045174D02*
X7946229Y-12092793D01*
X7946229Y-12092793D02*
X7936705Y-12130888D01*
X7936705Y-12130888D02*
X7927182Y-12149936D01*
X7927182Y-12149936D02*
X7917658Y-12159460D01*
X7917658Y-12159460D02*
X7898610Y-12168984D01*
X7898610Y-12168984D02*
X7879562Y-12168984D01*
X7879562Y-12168984D02*
X7860515Y-12159460D01*
X7860515Y-12159460D02*
X7850991Y-12149936D01*
X7850991Y-12149936D02*
X7841467Y-12130888D01*
X7841467Y-12130888D02*
X7831943Y-12092793D01*
X7831943Y-12092793D02*
X7831943Y-12045174D01*
X7831943Y-12045174D02*
X7841467Y-12007079D01*
X7841467Y-12007079D02*
X7850991Y-11988031D01*
X7850991Y-11988031D02*
X7860515Y-11978508D01*
X7860515Y-11978508D02*
X7879562Y-11968984D01*
X8070039Y-11968984D02*
X8089086Y-11968984D01*
X8089086Y-11968984D02*
X8108134Y-11978508D01*
X8108134Y-11978508D02*
X8117658Y-11988031D01*
X8117658Y-11988031D02*
X8127182Y-12007079D01*
X8127182Y-12007079D02*
X8136705Y-12045174D01*
X8136705Y-12045174D02*
X8136705Y-12092793D01*
X8136705Y-12092793D02*
X8127182Y-12130888D01*
X8127182Y-12130888D02*
X8117658Y-12149936D01*
X8117658Y-12149936D02*
X8108134Y-12159460D01*
X8108134Y-12159460D02*
X8089086Y-12168984D01*
X8089086Y-12168984D02*
X8070039Y-12168984D01*
X8070039Y-12168984D02*
X8050991Y-12159460D01*
X8050991Y-12159460D02*
X8041467Y-12149936D01*
X8041467Y-12149936D02*
X8031943Y-12130888D01*
X8031943Y-12130888D02*
X8022420Y-12092793D01*
X8022420Y-12092793D02*
X8022420Y-12045174D01*
X8022420Y-12045174D02*
X8031943Y-12007079D01*
X8031943Y-12007079D02*
X8041467Y-11988031D01*
X8041467Y-11988031D02*
X8050991Y-11978508D01*
X8050991Y-11978508D02*
X8070039Y-11968984D01*
X8222420Y-12168984D02*
X8222420Y-12035650D01*
X8222420Y-12054698D02*
X8231943Y-12045174D01*
X8231943Y-12045174D02*
X8250991Y-12035650D01*
X8250991Y-12035650D02*
X8279563Y-12035650D01*
X8279563Y-12035650D02*
X8298610Y-12045174D01*
X8298610Y-12045174D02*
X8308134Y-12064222D01*
X8308134Y-12064222D02*
X8308134Y-12168984D01*
X8308134Y-12064222D02*
X8317658Y-12045174D01*
X8317658Y-12045174D02*
X8336705Y-12035650D01*
X8336705Y-12035650D02*
X8365277Y-12035650D01*
X8365277Y-12035650D02*
X8384324Y-12045174D01*
X8384324Y-12045174D02*
X8393848Y-12064222D01*
X8393848Y-12064222D02*
X8393848Y-12168984D01*
X8489086Y-12168984D02*
X8489086Y-12035650D01*
X8489086Y-12054698D02*
X8498610Y-12045174D01*
X8498610Y-12045174D02*
X8517658Y-12035650D01*
X8517658Y-12035650D02*
X8546229Y-12035650D01*
X8546229Y-12035650D02*
X8565277Y-12045174D01*
X8565277Y-12045174D02*
X8574801Y-12064222D01*
X8574801Y-12064222D02*
X8574801Y-12168984D01*
X8574801Y-12064222D02*
X8584325Y-12045174D01*
X8584325Y-12045174D02*
X8603372Y-12035650D01*
X8603372Y-12035650D02*
X8631944Y-12035650D01*
X8631944Y-12035650D02*
X8650991Y-12045174D01*
X8650991Y-12045174D02*
X8660515Y-12064222D01*
X8660515Y-12064222D02*
X8660515Y-12168984D01*
X9050991Y-11959460D02*
X8879563Y-12216603D01*
X9308134Y-11968984D02*
X9327182Y-11968984D01*
X9327182Y-11968984D02*
X9346229Y-11978508D01*
X9346229Y-11978508D02*
X9355753Y-11988031D01*
X9355753Y-11988031D02*
X9365277Y-12007079D01*
X9365277Y-12007079D02*
X9374801Y-12045174D01*
X9374801Y-12045174D02*
X9374801Y-12092793D01*
X9374801Y-12092793D02*
X9365277Y-12130888D01*
X9365277Y-12130888D02*
X9355753Y-12149936D01*
X9355753Y-12149936D02*
X9346229Y-12159460D01*
X9346229Y-12159460D02*
X9327182Y-12168984D01*
X9327182Y-12168984D02*
X9308134Y-12168984D01*
X9308134Y-12168984D02*
X9289087Y-12159460D01*
X9289087Y-12159460D02*
X9279563Y-12149936D01*
X9279563Y-12149936D02*
X9270039Y-12130888D01*
X9270039Y-12130888D02*
X9260515Y-12092793D01*
X9260515Y-12092793D02*
X9260515Y-12045174D01*
X9260515Y-12045174D02*
X9270039Y-12007079D01*
X9270039Y-12007079D02*
X9279563Y-11988031D01*
X9279563Y-11988031D02*
X9289087Y-11978508D01*
X9289087Y-11978508D02*
X9308134Y-11968984D01*
X9460515Y-12149936D02*
X9470039Y-12159460D01*
X9470039Y-12159460D02*
X9460515Y-12168984D01*
X9460515Y-12168984D02*
X9450991Y-12159460D01*
X9450991Y-12159460D02*
X9460515Y-12149936D01*
X9460515Y-12149936D02*
X9460515Y-12168984D01*
X9593848Y-11968984D02*
X9612896Y-11968984D01*
X9612896Y-11968984D02*
X9631944Y-11978508D01*
X9631944Y-11978508D02*
X9641468Y-11988031D01*
X9641468Y-11988031D02*
X9650991Y-12007079D01*
X9650991Y-12007079D02*
X9660515Y-12045174D01*
X9660515Y-12045174D02*
X9660515Y-12092793D01*
X9660515Y-12092793D02*
X9650991Y-12130888D01*
X9650991Y-12130888D02*
X9641468Y-12149936D01*
X9641468Y-12149936D02*
X9631944Y-12159460D01*
X9631944Y-12159460D02*
X9612896Y-12168984D01*
X9612896Y-12168984D02*
X9593848Y-12168984D01*
X9593848Y-12168984D02*
X9574801Y-12159460D01*
X9574801Y-12159460D02*
X9565277Y-12149936D01*
X9565277Y-12149936D02*
X9555753Y-12130888D01*
X9555753Y-12130888D02*
X9546229Y-12092793D01*
X9546229Y-12092793D02*
X9546229Y-12045174D01*
X9546229Y-12045174D02*
X9555753Y-12007079D01*
X9555753Y-12007079D02*
X9565277Y-11988031D01*
X9565277Y-11988031D02*
X9574801Y-11978508D01*
X9574801Y-11978508D02*
X9593848Y-11968984D01*
X9850991Y-12168984D02*
X9736706Y-12168984D01*
X9793848Y-12168984D02*
X9793848Y-11968984D01*
X9793848Y-11968984D02*
X9774801Y-11997555D01*
X9774801Y-11997555D02*
X9755753Y-12016603D01*
X9755753Y-12016603D02*
X9736706Y-12026127D01*
X10031944Y-11968984D02*
X9936706Y-11968984D01*
X9936706Y-11968984D02*
X9927182Y-12064222D01*
X9927182Y-12064222D02*
X9936706Y-12054698D01*
X9936706Y-12054698D02*
X9955753Y-12045174D01*
X9955753Y-12045174D02*
X10003372Y-12045174D01*
X10003372Y-12045174D02*
X10022420Y-12054698D01*
X10022420Y-12054698D02*
X10031944Y-12064222D01*
X10031944Y-12064222D02*
X10041468Y-12083269D01*
X10041468Y-12083269D02*
X10041468Y-12130888D01*
X10041468Y-12130888D02*
X10031944Y-12149936D01*
X10031944Y-12149936D02*
X10022420Y-12159460D01*
X10022420Y-12159460D02*
X10003372Y-12168984D01*
X10003372Y-12168984D02*
X9955753Y-12168984D01*
X9955753Y-12168984D02*
X9936706Y-12159460D01*
X9936706Y-12159460D02*
X9927182Y-12149936D01*
X10108134Y-11968984D02*
X10241468Y-11968984D01*
X10241468Y-11968984D02*
X10155753Y-12168984D01*
X10308134Y-11968984D02*
X10308134Y-12007079D01*
X10384325Y-11968984D02*
X10384325Y-12007079D01*
X10679563Y-12245174D02*
X10670039Y-12235650D01*
X10670039Y-12235650D02*
X10650991Y-12207079D01*
X10650991Y-12207079D02*
X10641468Y-12188031D01*
X10641468Y-12188031D02*
X10631944Y-12159460D01*
X10631944Y-12159460D02*
X10622420Y-12111841D01*
X10622420Y-12111841D02*
X10622420Y-12073746D01*
X10622420Y-12073746D02*
X10631944Y-12026127D01*
X10631944Y-12026127D02*
X10641468Y-11997555D01*
X10641468Y-11997555D02*
X10650991Y-11978508D01*
X10650991Y-11978508D02*
X10670039Y-11949936D01*
X10670039Y-11949936D02*
X10679563Y-11940412D01*
X10860515Y-12168984D02*
X10746230Y-12168984D01*
X10803372Y-12168984D02*
X10803372Y-11968984D01*
X10803372Y-11968984D02*
X10784325Y-11997555D01*
X10784325Y-11997555D02*
X10765277Y-12016603D01*
X10765277Y-12016603D02*
X10746230Y-12026127D01*
X11031944Y-11968984D02*
X10993849Y-11968984D01*
X10993849Y-11968984D02*
X10974801Y-11978508D01*
X10974801Y-11978508D02*
X10965277Y-11988031D01*
X10965277Y-11988031D02*
X10946230Y-12016603D01*
X10946230Y-12016603D02*
X10936706Y-12054698D01*
X10936706Y-12054698D02*
X10936706Y-12130888D01*
X10936706Y-12130888D02*
X10946230Y-12149936D01*
X10946230Y-12149936D02*
X10955753Y-12159460D01*
X10955753Y-12159460D02*
X10974801Y-12168984D01*
X10974801Y-12168984D02*
X11012896Y-12168984D01*
X11012896Y-12168984D02*
X11031944Y-12159460D01*
X11031944Y-12159460D02*
X11041468Y-12149936D01*
X11041468Y-12149936D02*
X11050991Y-12130888D01*
X11050991Y-12130888D02*
X11050991Y-12083269D01*
X11050991Y-12083269D02*
X11041468Y-12064222D01*
X11041468Y-12064222D02*
X11031944Y-12054698D01*
X11031944Y-12054698D02*
X11012896Y-12045174D01*
X11012896Y-12045174D02*
X10974801Y-12045174D01*
X10974801Y-12045174D02*
X10955753Y-12054698D01*
X10955753Y-12054698D02*
X10946230Y-12064222D01*
X10946230Y-12064222D02*
X10936706Y-12083269D01*
X11289087Y-12168984D02*
X11289087Y-11968984D01*
X11374801Y-12168984D02*
X11374801Y-12064222D01*
X11374801Y-12064222D02*
X11365277Y-12045174D01*
X11365277Y-12045174D02*
X11346230Y-12035650D01*
X11346230Y-12035650D02*
X11317658Y-12035650D01*
X11317658Y-12035650D02*
X11298610Y-12045174D01*
X11298610Y-12045174D02*
X11289087Y-12054698D01*
X11498610Y-12168984D02*
X11479563Y-12159460D01*
X11479563Y-12159460D02*
X11470039Y-12149936D01*
X11470039Y-12149936D02*
X11460515Y-12130888D01*
X11460515Y-12130888D02*
X11460515Y-12073746D01*
X11460515Y-12073746D02*
X11470039Y-12054698D01*
X11470039Y-12054698D02*
X11479563Y-12045174D01*
X11479563Y-12045174D02*
X11498610Y-12035650D01*
X11498610Y-12035650D02*
X11527182Y-12035650D01*
X11527182Y-12035650D02*
X11546230Y-12045174D01*
X11546230Y-12045174D02*
X11555753Y-12054698D01*
X11555753Y-12054698D02*
X11565277Y-12073746D01*
X11565277Y-12073746D02*
X11565277Y-12130888D01*
X11565277Y-12130888D02*
X11555753Y-12149936D01*
X11555753Y-12149936D02*
X11546230Y-12159460D01*
X11546230Y-12159460D02*
X11527182Y-12168984D01*
X11527182Y-12168984D02*
X11498610Y-12168984D01*
X11679563Y-12168984D02*
X11660515Y-12159460D01*
X11660515Y-12159460D02*
X11650991Y-12140412D01*
X11650991Y-12140412D02*
X11650991Y-11968984D01*
X11831944Y-12159460D02*
X11812896Y-12168984D01*
X11812896Y-12168984D02*
X11774801Y-12168984D01*
X11774801Y-12168984D02*
X11755753Y-12159460D01*
X11755753Y-12159460D02*
X11746230Y-12140412D01*
X11746230Y-12140412D02*
X11746230Y-12064222D01*
X11746230Y-12064222D02*
X11755753Y-12045174D01*
X11755753Y-12045174D02*
X11774801Y-12035650D01*
X11774801Y-12035650D02*
X11812896Y-12035650D01*
X11812896Y-12035650D02*
X11831944Y-12045174D01*
X11831944Y-12045174D02*
X11841468Y-12064222D01*
X11841468Y-12064222D02*
X11841468Y-12083269D01*
X11841468Y-12083269D02*
X11746230Y-12102317D01*
X11917658Y-12159460D02*
X11936706Y-12168984D01*
X11936706Y-12168984D02*
X11974801Y-12168984D01*
X11974801Y-12168984D02*
X11993849Y-12159460D01*
X11993849Y-12159460D02*
X12003372Y-12140412D01*
X12003372Y-12140412D02*
X12003372Y-12130888D01*
X12003372Y-12130888D02*
X11993849Y-12111841D01*
X11993849Y-12111841D02*
X11974801Y-12102317D01*
X11974801Y-12102317D02*
X11946230Y-12102317D01*
X11946230Y-12102317D02*
X11927182Y-12092793D01*
X11927182Y-12092793D02*
X11917658Y-12073746D01*
X11917658Y-12073746D02*
X11917658Y-12064222D01*
X11917658Y-12064222D02*
X11927182Y-12045174D01*
X11927182Y-12045174D02*
X11946230Y-12035650D01*
X11946230Y-12035650D02*
X11974801Y-12035650D01*
X11974801Y-12035650D02*
X11993849Y-12045174D01*
X12070039Y-12245174D02*
X12079563Y-12235650D01*
X12079563Y-12235650D02*
X12098611Y-12207079D01*
X12098611Y-12207079D02*
X12108134Y-12188031D01*
X12108134Y-12188031D02*
X12117658Y-12159460D01*
X12117658Y-12159460D02*
X12127182Y-12111841D01*
X12127182Y-12111841D02*
X12127182Y-12073746D01*
X12127182Y-12073746D02*
X12117658Y-12026127D01*
X12117658Y-12026127D02*
X12108134Y-11997555D01*
X12108134Y-11997555D02*
X12098611Y-11978508D01*
X12098611Y-11978508D02*
X12079563Y-11949936D01*
X12079563Y-11949936D02*
X12070039Y-11940412D01*
D12*
X7104500Y-12341500D02*
G75*
G02*
X7004500Y-12341500I-50000J0D01*
G01*
X7004500Y-12341500D02*
G75*
G02*
X7104500Y-12341500I50000J0D01*
G01*
D11*
X7470039Y-12432984D02*
X7355753Y-12432984D01*
X7412896Y-12432984D02*
X7412896Y-12232984D01*
X7412896Y-12232984D02*
X7393848Y-12261555D01*
X7393848Y-12261555D02*
X7374801Y-12280603D01*
X7374801Y-12280603D02*
X7355753Y-12290127D01*
X7555753Y-12413936D02*
X7565277Y-12423460D01*
X7565277Y-12423460D02*
X7555753Y-12432984D01*
X7555753Y-12432984D02*
X7546229Y-12423460D01*
X7546229Y-12423460D02*
X7555753Y-12413936D01*
X7555753Y-12413936D02*
X7555753Y-12432984D01*
X7689086Y-12232984D02*
X7708134Y-12232984D01*
X7708134Y-12232984D02*
X7727182Y-12242508D01*
X7727182Y-12242508D02*
X7736705Y-12252031D01*
X7736705Y-12252031D02*
X7746229Y-12271079D01*
X7746229Y-12271079D02*
X7755753Y-12309174D01*
X7755753Y-12309174D02*
X7755753Y-12356793D01*
X7755753Y-12356793D02*
X7746229Y-12394888D01*
X7746229Y-12394888D02*
X7736705Y-12413936D01*
X7736705Y-12413936D02*
X7727182Y-12423460D01*
X7727182Y-12423460D02*
X7708134Y-12432984D01*
X7708134Y-12432984D02*
X7689086Y-12432984D01*
X7689086Y-12432984D02*
X7670039Y-12423460D01*
X7670039Y-12423460D02*
X7660515Y-12413936D01*
X7660515Y-12413936D02*
X7650991Y-12394888D01*
X7650991Y-12394888D02*
X7641467Y-12356793D01*
X7641467Y-12356793D02*
X7641467Y-12309174D01*
X7641467Y-12309174D02*
X7650991Y-12271079D01*
X7650991Y-12271079D02*
X7660515Y-12252031D01*
X7660515Y-12252031D02*
X7670039Y-12242508D01*
X7670039Y-12242508D02*
X7689086Y-12232984D01*
X7879562Y-12232984D02*
X7898610Y-12232984D01*
X7898610Y-12232984D02*
X7917658Y-12242508D01*
X7917658Y-12242508D02*
X7927182Y-12252031D01*
X7927182Y-12252031D02*
X7936705Y-12271079D01*
X7936705Y-12271079D02*
X7946229Y-12309174D01*
X7946229Y-12309174D02*
X7946229Y-12356793D01*
X7946229Y-12356793D02*
X7936705Y-12394888D01*
X7936705Y-12394888D02*
X7927182Y-12413936D01*
X7927182Y-12413936D02*
X7917658Y-12423460D01*
X7917658Y-12423460D02*
X7898610Y-12432984D01*
X7898610Y-12432984D02*
X7879562Y-12432984D01*
X7879562Y-12432984D02*
X7860515Y-12423460D01*
X7860515Y-12423460D02*
X7850991Y-12413936D01*
X7850991Y-12413936D02*
X7841467Y-12394888D01*
X7841467Y-12394888D02*
X7831943Y-12356793D01*
X7831943Y-12356793D02*
X7831943Y-12309174D01*
X7831943Y-12309174D02*
X7841467Y-12271079D01*
X7841467Y-12271079D02*
X7850991Y-12252031D01*
X7850991Y-12252031D02*
X7860515Y-12242508D01*
X7860515Y-12242508D02*
X7879562Y-12232984D01*
X8070039Y-12232984D02*
X8089086Y-12232984D01*
X8089086Y-12232984D02*
X8108134Y-12242508D01*
X8108134Y-12242508D02*
X8117658Y-12252031D01*
X8117658Y-12252031D02*
X8127182Y-12271079D01*
X8127182Y-12271079D02*
X8136705Y-12309174D01*
X8136705Y-12309174D02*
X8136705Y-12356793D01*
X8136705Y-12356793D02*
X8127182Y-12394888D01*
X8127182Y-12394888D02*
X8117658Y-12413936D01*
X8117658Y-12413936D02*
X8108134Y-12423460D01*
X8108134Y-12423460D02*
X8089086Y-12432984D01*
X8089086Y-12432984D02*
X8070039Y-12432984D01*
X8070039Y-12432984D02*
X8050991Y-12423460D01*
X8050991Y-12423460D02*
X8041467Y-12413936D01*
X8041467Y-12413936D02*
X8031943Y-12394888D01*
X8031943Y-12394888D02*
X8022420Y-12356793D01*
X8022420Y-12356793D02*
X8022420Y-12309174D01*
X8022420Y-12309174D02*
X8031943Y-12271079D01*
X8031943Y-12271079D02*
X8041467Y-12252031D01*
X8041467Y-12252031D02*
X8050991Y-12242508D01*
X8050991Y-12242508D02*
X8070039Y-12232984D01*
X8222420Y-12432984D02*
X8222420Y-12299650D01*
X8222420Y-12318698D02*
X8231943Y-12309174D01*
X8231943Y-12309174D02*
X8250991Y-12299650D01*
X8250991Y-12299650D02*
X8279563Y-12299650D01*
X8279563Y-12299650D02*
X8298610Y-12309174D01*
X8298610Y-12309174D02*
X8308134Y-12328222D01*
X8308134Y-12328222D02*
X8308134Y-12432984D01*
X8308134Y-12328222D02*
X8317658Y-12309174D01*
X8317658Y-12309174D02*
X8336705Y-12299650D01*
X8336705Y-12299650D02*
X8365277Y-12299650D01*
X8365277Y-12299650D02*
X8384324Y-12309174D01*
X8384324Y-12309174D02*
X8393848Y-12328222D01*
X8393848Y-12328222D02*
X8393848Y-12432984D01*
X8489086Y-12432984D02*
X8489086Y-12299650D01*
X8489086Y-12318698D02*
X8498610Y-12309174D01*
X8498610Y-12309174D02*
X8517658Y-12299650D01*
X8517658Y-12299650D02*
X8546229Y-12299650D01*
X8546229Y-12299650D02*
X8565277Y-12309174D01*
X8565277Y-12309174D02*
X8574801Y-12328222D01*
X8574801Y-12328222D02*
X8574801Y-12432984D01*
X8574801Y-12328222D02*
X8584325Y-12309174D01*
X8584325Y-12309174D02*
X8603372Y-12299650D01*
X8603372Y-12299650D02*
X8631944Y-12299650D01*
X8631944Y-12299650D02*
X8650991Y-12309174D01*
X8650991Y-12309174D02*
X8660515Y-12328222D01*
X8660515Y-12328222D02*
X8660515Y-12432984D01*
X9050991Y-12223460D02*
X8879563Y-12480603D01*
X9308134Y-12232984D02*
X9327182Y-12232984D01*
X9327182Y-12232984D02*
X9346229Y-12242508D01*
X9346229Y-12242508D02*
X9355753Y-12252031D01*
X9355753Y-12252031D02*
X9365277Y-12271079D01*
X9365277Y-12271079D02*
X9374801Y-12309174D01*
X9374801Y-12309174D02*
X9374801Y-12356793D01*
X9374801Y-12356793D02*
X9365277Y-12394888D01*
X9365277Y-12394888D02*
X9355753Y-12413936D01*
X9355753Y-12413936D02*
X9346229Y-12423460D01*
X9346229Y-12423460D02*
X9327182Y-12432984D01*
X9327182Y-12432984D02*
X9308134Y-12432984D01*
X9308134Y-12432984D02*
X9289087Y-12423460D01*
X9289087Y-12423460D02*
X9279563Y-12413936D01*
X9279563Y-12413936D02*
X9270039Y-12394888D01*
X9270039Y-12394888D02*
X9260515Y-12356793D01*
X9260515Y-12356793D02*
X9260515Y-12309174D01*
X9260515Y-12309174D02*
X9270039Y-12271079D01*
X9270039Y-12271079D02*
X9279563Y-12252031D01*
X9279563Y-12252031D02*
X9289087Y-12242508D01*
X9289087Y-12242508D02*
X9308134Y-12232984D01*
X9460515Y-12413936D02*
X9470039Y-12423460D01*
X9470039Y-12423460D02*
X9460515Y-12432984D01*
X9460515Y-12432984D02*
X9450991Y-12423460D01*
X9450991Y-12423460D02*
X9460515Y-12413936D01*
X9460515Y-12413936D02*
X9460515Y-12432984D01*
X9593848Y-12232984D02*
X9612896Y-12232984D01*
X9612896Y-12232984D02*
X9631944Y-12242508D01*
X9631944Y-12242508D02*
X9641468Y-12252031D01*
X9641468Y-12252031D02*
X9650991Y-12271079D01*
X9650991Y-12271079D02*
X9660515Y-12309174D01*
X9660515Y-12309174D02*
X9660515Y-12356793D01*
X9660515Y-12356793D02*
X9650991Y-12394888D01*
X9650991Y-12394888D02*
X9641468Y-12413936D01*
X9641468Y-12413936D02*
X9631944Y-12423460D01*
X9631944Y-12423460D02*
X9612896Y-12432984D01*
X9612896Y-12432984D02*
X9593848Y-12432984D01*
X9593848Y-12432984D02*
X9574801Y-12423460D01*
X9574801Y-12423460D02*
X9565277Y-12413936D01*
X9565277Y-12413936D02*
X9555753Y-12394888D01*
X9555753Y-12394888D02*
X9546229Y-12356793D01*
X9546229Y-12356793D02*
X9546229Y-12309174D01*
X9546229Y-12309174D02*
X9555753Y-12271079D01*
X9555753Y-12271079D02*
X9565277Y-12252031D01*
X9565277Y-12252031D02*
X9574801Y-12242508D01*
X9574801Y-12242508D02*
X9593848Y-12232984D01*
X9727182Y-12232984D02*
X9850991Y-12232984D01*
X9850991Y-12232984D02*
X9784325Y-12309174D01*
X9784325Y-12309174D02*
X9812896Y-12309174D01*
X9812896Y-12309174D02*
X9831944Y-12318698D01*
X9831944Y-12318698D02*
X9841468Y-12328222D01*
X9841468Y-12328222D02*
X9850991Y-12347269D01*
X9850991Y-12347269D02*
X9850991Y-12394888D01*
X9850991Y-12394888D02*
X9841468Y-12413936D01*
X9841468Y-12413936D02*
X9831944Y-12423460D01*
X9831944Y-12423460D02*
X9812896Y-12432984D01*
X9812896Y-12432984D02*
X9755753Y-12432984D01*
X9755753Y-12432984D02*
X9736706Y-12423460D01*
X9736706Y-12423460D02*
X9727182Y-12413936D01*
X9946229Y-12432984D02*
X9984325Y-12432984D01*
X9984325Y-12432984D02*
X10003372Y-12423460D01*
X10003372Y-12423460D02*
X10012896Y-12413936D01*
X10012896Y-12413936D02*
X10031944Y-12385365D01*
X10031944Y-12385365D02*
X10041468Y-12347269D01*
X10041468Y-12347269D02*
X10041468Y-12271079D01*
X10041468Y-12271079D02*
X10031944Y-12252031D01*
X10031944Y-12252031D02*
X10022420Y-12242508D01*
X10022420Y-12242508D02*
X10003372Y-12232984D01*
X10003372Y-12232984D02*
X9965277Y-12232984D01*
X9965277Y-12232984D02*
X9946229Y-12242508D01*
X9946229Y-12242508D02*
X9936706Y-12252031D01*
X9936706Y-12252031D02*
X9927182Y-12271079D01*
X9927182Y-12271079D02*
X9927182Y-12318698D01*
X9927182Y-12318698D02*
X9936706Y-12337746D01*
X9936706Y-12337746D02*
X9946229Y-12347269D01*
X9946229Y-12347269D02*
X9965277Y-12356793D01*
X9965277Y-12356793D02*
X10003372Y-12356793D01*
X10003372Y-12356793D02*
X10022420Y-12347269D01*
X10022420Y-12347269D02*
X10031944Y-12337746D01*
X10031944Y-12337746D02*
X10041468Y-12318698D01*
X10212896Y-12299650D02*
X10212896Y-12432984D01*
X10165277Y-12223460D02*
X10117658Y-12366317D01*
X10117658Y-12366317D02*
X10241468Y-12366317D01*
X10308134Y-12232984D02*
X10308134Y-12271079D01*
X10384325Y-12232984D02*
X10384325Y-12271079D01*
X10679563Y-12509174D02*
X10670039Y-12499650D01*
X10670039Y-12499650D02*
X10650991Y-12471079D01*
X10650991Y-12471079D02*
X10641468Y-12452031D01*
X10641468Y-12452031D02*
X10631944Y-12423460D01*
X10631944Y-12423460D02*
X10622420Y-12375841D01*
X10622420Y-12375841D02*
X10622420Y-12337746D01*
X10622420Y-12337746D02*
X10631944Y-12290127D01*
X10631944Y-12290127D02*
X10641468Y-12261555D01*
X10641468Y-12261555D02*
X10650991Y-12242508D01*
X10650991Y-12242508D02*
X10670039Y-12213936D01*
X10670039Y-12213936D02*
X10679563Y-12204412D01*
X10746230Y-12252031D02*
X10755753Y-12242508D01*
X10755753Y-12242508D02*
X10774801Y-12232984D01*
X10774801Y-12232984D02*
X10822420Y-12232984D01*
X10822420Y-12232984D02*
X10841468Y-12242508D01*
X10841468Y-12242508D02*
X10850991Y-12252031D01*
X10850991Y-12252031D02*
X10860515Y-12271079D01*
X10860515Y-12271079D02*
X10860515Y-12290127D01*
X10860515Y-12290127D02*
X10850991Y-12318698D01*
X10850991Y-12318698D02*
X10736706Y-12432984D01*
X10736706Y-12432984D02*
X10860515Y-12432984D01*
X11031944Y-12232984D02*
X10993849Y-12232984D01*
X10993849Y-12232984D02*
X10974801Y-12242508D01*
X10974801Y-12242508D02*
X10965277Y-12252031D01*
X10965277Y-12252031D02*
X10946230Y-12280603D01*
X10946230Y-12280603D02*
X10936706Y-12318698D01*
X10936706Y-12318698D02*
X10936706Y-12394888D01*
X10936706Y-12394888D02*
X10946230Y-12413936D01*
X10946230Y-12413936D02*
X10955753Y-12423460D01*
X10955753Y-12423460D02*
X10974801Y-12432984D01*
X10974801Y-12432984D02*
X11012896Y-12432984D01*
X11012896Y-12432984D02*
X11031944Y-12423460D01*
X11031944Y-12423460D02*
X11041468Y-12413936D01*
X11041468Y-12413936D02*
X11050991Y-12394888D01*
X11050991Y-12394888D02*
X11050991Y-12347269D01*
X11050991Y-12347269D02*
X11041468Y-12328222D01*
X11041468Y-12328222D02*
X11031944Y-12318698D01*
X11031944Y-12318698D02*
X11012896Y-12309174D01*
X11012896Y-12309174D02*
X10974801Y-12309174D01*
X10974801Y-12309174D02*
X10955753Y-12318698D01*
X10955753Y-12318698D02*
X10946230Y-12328222D01*
X10946230Y-12328222D02*
X10936706Y-12347269D01*
X11289087Y-12432984D02*
X11289087Y-12232984D01*
X11374801Y-12432984D02*
X11374801Y-12328222D01*
X11374801Y-12328222D02*
X11365277Y-12309174D01*
X11365277Y-12309174D02*
X11346230Y-12299650D01*
X11346230Y-12299650D02*
X11317658Y-12299650D01*
X11317658Y-12299650D02*
X11298610Y-12309174D01*
X11298610Y-12309174D02*
X11289087Y-12318698D01*
X11498610Y-12432984D02*
X11479563Y-12423460D01*
X11479563Y-12423460D02*
X11470039Y-12413936D01*
X11470039Y-12413936D02*
X11460515Y-12394888D01*
X11460515Y-12394888D02*
X11460515Y-12337746D01*
X11460515Y-12337746D02*
X11470039Y-12318698D01*
X11470039Y-12318698D02*
X11479563Y-12309174D01*
X11479563Y-12309174D02*
X11498610Y-12299650D01*
X11498610Y-12299650D02*
X11527182Y-12299650D01*
X11527182Y-12299650D02*
X11546230Y-12309174D01*
X11546230Y-12309174D02*
X11555753Y-12318698D01*
X11555753Y-12318698D02*
X11565277Y-12337746D01*
X11565277Y-12337746D02*
X11565277Y-12394888D01*
X11565277Y-12394888D02*
X11555753Y-12413936D01*
X11555753Y-12413936D02*
X11546230Y-12423460D01*
X11546230Y-12423460D02*
X11527182Y-12432984D01*
X11527182Y-12432984D02*
X11498610Y-12432984D01*
X11679563Y-12432984D02*
X11660515Y-12423460D01*
X11660515Y-12423460D02*
X11650991Y-12404412D01*
X11650991Y-12404412D02*
X11650991Y-12232984D01*
X11831944Y-12423460D02*
X11812896Y-12432984D01*
X11812896Y-12432984D02*
X11774801Y-12432984D01*
X11774801Y-12432984D02*
X11755753Y-12423460D01*
X11755753Y-12423460D02*
X11746230Y-12404412D01*
X11746230Y-12404412D02*
X11746230Y-12328222D01*
X11746230Y-12328222D02*
X11755753Y-12309174D01*
X11755753Y-12309174D02*
X11774801Y-12299650D01*
X11774801Y-12299650D02*
X11812896Y-12299650D01*
X11812896Y-12299650D02*
X11831944Y-12309174D01*
X11831944Y-12309174D02*
X11841468Y-12328222D01*
X11841468Y-12328222D02*
X11841468Y-12347269D01*
X11841468Y-12347269D02*
X11746230Y-12366317D01*
X11917658Y-12423460D02*
X11936706Y-12432984D01*
X11936706Y-12432984D02*
X11974801Y-12432984D01*
X11974801Y-12432984D02*
X11993849Y-12423460D01*
X11993849Y-12423460D02*
X12003372Y-12404412D01*
X12003372Y-12404412D02*
X12003372Y-12394888D01*
X12003372Y-12394888D02*
X11993849Y-12375841D01*
X11993849Y-12375841D02*
X11974801Y-12366317D01*
X11974801Y-12366317D02*
X11946230Y-12366317D01*
X11946230Y-12366317D02*
X11927182Y-12356793D01*
X11927182Y-12356793D02*
X11917658Y-12337746D01*
X11917658Y-12337746D02*
X11917658Y-12328222D01*
X11917658Y-12328222D02*
X11927182Y-12309174D01*
X11927182Y-12309174D02*
X11946230Y-12299650D01*
X11946230Y-12299650D02*
X11974801Y-12299650D01*
X11974801Y-12299650D02*
X11993849Y-12309174D01*
X12070039Y-12509174D02*
X12079563Y-12499650D01*
X12079563Y-12499650D02*
X12098611Y-12471079D01*
X12098611Y-12471079D02*
X12108134Y-12452031D01*
X12108134Y-12452031D02*
X12117658Y-12423460D01*
X12117658Y-12423460D02*
X12127182Y-12375841D01*
X12127182Y-12375841D02*
X12127182Y-12337746D01*
X12127182Y-12337746D02*
X12117658Y-12290127D01*
X12117658Y-12290127D02*
X12108134Y-12261555D01*
X12108134Y-12261555D02*
X12098611Y-12242508D01*
X12098611Y-12242508D02*
X12079563Y-12213936D01*
X12079563Y-12213936D02*
X12070039Y-12204412D01*
D13*
X7049500Y-12550500D02*
X7049500Y-12660500D01*
X6994500Y-12605500D02*
X7104500Y-12605500D01*
D11*
X7470039Y-12696984D02*
X7355753Y-12696984D01*
X7412896Y-12696984D02*
X7412896Y-12496984D01*
X7412896Y-12496984D02*
X7393848Y-12525555D01*
X7393848Y-12525555D02*
X7374801Y-12544603D01*
X7374801Y-12544603D02*
X7355753Y-12554127D01*
X7555753Y-12677936D02*
X7565277Y-12687460D01*
X7565277Y-12687460D02*
X7555753Y-12696984D01*
X7555753Y-12696984D02*
X7546229Y-12687460D01*
X7546229Y-12687460D02*
X7555753Y-12677936D01*
X7555753Y-12677936D02*
X7555753Y-12696984D01*
X7755753Y-12696984D02*
X7641467Y-12696984D01*
X7698610Y-12696984D02*
X7698610Y-12496984D01*
X7698610Y-12496984D02*
X7679562Y-12525555D01*
X7679562Y-12525555D02*
X7660515Y-12544603D01*
X7660515Y-12544603D02*
X7641467Y-12554127D01*
X7879562Y-12496984D02*
X7898610Y-12496984D01*
X7898610Y-12496984D02*
X7917658Y-12506508D01*
X7917658Y-12506508D02*
X7927182Y-12516031D01*
X7927182Y-12516031D02*
X7936705Y-12535079D01*
X7936705Y-12535079D02*
X7946229Y-12573174D01*
X7946229Y-12573174D02*
X7946229Y-12620793D01*
X7946229Y-12620793D02*
X7936705Y-12658888D01*
X7936705Y-12658888D02*
X7927182Y-12677936D01*
X7927182Y-12677936D02*
X7917658Y-12687460D01*
X7917658Y-12687460D02*
X7898610Y-12696984D01*
X7898610Y-12696984D02*
X7879562Y-12696984D01*
X7879562Y-12696984D02*
X7860515Y-12687460D01*
X7860515Y-12687460D02*
X7850991Y-12677936D01*
X7850991Y-12677936D02*
X7841467Y-12658888D01*
X7841467Y-12658888D02*
X7831943Y-12620793D01*
X7831943Y-12620793D02*
X7831943Y-12573174D01*
X7831943Y-12573174D02*
X7841467Y-12535079D01*
X7841467Y-12535079D02*
X7850991Y-12516031D01*
X7850991Y-12516031D02*
X7860515Y-12506508D01*
X7860515Y-12506508D02*
X7879562Y-12496984D01*
X8070039Y-12496984D02*
X8089086Y-12496984D01*
X8089086Y-12496984D02*
X8108134Y-12506508D01*
X8108134Y-12506508D02*
X8117658Y-12516031D01*
X8117658Y-12516031D02*
X8127182Y-12535079D01*
X8127182Y-12535079D02*
X8136705Y-12573174D01*
X8136705Y-12573174D02*
X8136705Y-12620793D01*
X8136705Y-12620793D02*
X8127182Y-12658888D01*
X8127182Y-12658888D02*
X8117658Y-12677936D01*
X8117658Y-12677936D02*
X8108134Y-12687460D01*
X8108134Y-12687460D02*
X8089086Y-12696984D01*
X8089086Y-12696984D02*
X8070039Y-12696984D01*
X8070039Y-12696984D02*
X8050991Y-12687460D01*
X8050991Y-12687460D02*
X8041467Y-12677936D01*
X8041467Y-12677936D02*
X8031943Y-12658888D01*
X8031943Y-12658888D02*
X8022420Y-12620793D01*
X8022420Y-12620793D02*
X8022420Y-12573174D01*
X8022420Y-12573174D02*
X8031943Y-12535079D01*
X8031943Y-12535079D02*
X8041467Y-12516031D01*
X8041467Y-12516031D02*
X8050991Y-12506508D01*
X8050991Y-12506508D02*
X8070039Y-12496984D01*
X8222420Y-12696984D02*
X8222420Y-12563650D01*
X8222420Y-12582698D02*
X8231943Y-12573174D01*
X8231943Y-12573174D02*
X8250991Y-12563650D01*
X8250991Y-12563650D02*
X8279563Y-12563650D01*
X8279563Y-12563650D02*
X8298610Y-12573174D01*
X8298610Y-12573174D02*
X8308134Y-12592222D01*
X8308134Y-12592222D02*
X8308134Y-12696984D01*
X8308134Y-12592222D02*
X8317658Y-12573174D01*
X8317658Y-12573174D02*
X8336705Y-12563650D01*
X8336705Y-12563650D02*
X8365277Y-12563650D01*
X8365277Y-12563650D02*
X8384324Y-12573174D01*
X8384324Y-12573174D02*
X8393848Y-12592222D01*
X8393848Y-12592222D02*
X8393848Y-12696984D01*
X8489086Y-12696984D02*
X8489086Y-12563650D01*
X8489086Y-12582698D02*
X8498610Y-12573174D01*
X8498610Y-12573174D02*
X8517658Y-12563650D01*
X8517658Y-12563650D02*
X8546229Y-12563650D01*
X8546229Y-12563650D02*
X8565277Y-12573174D01*
X8565277Y-12573174D02*
X8574801Y-12592222D01*
X8574801Y-12592222D02*
X8574801Y-12696984D01*
X8574801Y-12592222D02*
X8584325Y-12573174D01*
X8584325Y-12573174D02*
X8603372Y-12563650D01*
X8603372Y-12563650D02*
X8631944Y-12563650D01*
X8631944Y-12563650D02*
X8650991Y-12573174D01*
X8650991Y-12573174D02*
X8660515Y-12592222D01*
X8660515Y-12592222D02*
X8660515Y-12696984D01*
X9050991Y-12487460D02*
X8879563Y-12744603D01*
X9308134Y-12496984D02*
X9327182Y-12496984D01*
X9327182Y-12496984D02*
X9346229Y-12506508D01*
X9346229Y-12506508D02*
X9355753Y-12516031D01*
X9355753Y-12516031D02*
X9365277Y-12535079D01*
X9365277Y-12535079D02*
X9374801Y-12573174D01*
X9374801Y-12573174D02*
X9374801Y-12620793D01*
X9374801Y-12620793D02*
X9365277Y-12658888D01*
X9365277Y-12658888D02*
X9355753Y-12677936D01*
X9355753Y-12677936D02*
X9346229Y-12687460D01*
X9346229Y-12687460D02*
X9327182Y-12696984D01*
X9327182Y-12696984D02*
X9308134Y-12696984D01*
X9308134Y-12696984D02*
X9289087Y-12687460D01*
X9289087Y-12687460D02*
X9279563Y-12677936D01*
X9279563Y-12677936D02*
X9270039Y-12658888D01*
X9270039Y-12658888D02*
X9260515Y-12620793D01*
X9260515Y-12620793D02*
X9260515Y-12573174D01*
X9260515Y-12573174D02*
X9270039Y-12535079D01*
X9270039Y-12535079D02*
X9279563Y-12516031D01*
X9279563Y-12516031D02*
X9289087Y-12506508D01*
X9289087Y-12506508D02*
X9308134Y-12496984D01*
X9460515Y-12677936D02*
X9470039Y-12687460D01*
X9470039Y-12687460D02*
X9460515Y-12696984D01*
X9460515Y-12696984D02*
X9450991Y-12687460D01*
X9450991Y-12687460D02*
X9460515Y-12677936D01*
X9460515Y-12677936D02*
X9460515Y-12696984D01*
X9593848Y-12496984D02*
X9612896Y-12496984D01*
X9612896Y-12496984D02*
X9631944Y-12506508D01*
X9631944Y-12506508D02*
X9641468Y-12516031D01*
X9641468Y-12516031D02*
X9650991Y-12535079D01*
X9650991Y-12535079D02*
X9660515Y-12573174D01*
X9660515Y-12573174D02*
X9660515Y-12620793D01*
X9660515Y-12620793D02*
X9650991Y-12658888D01*
X9650991Y-12658888D02*
X9641468Y-12677936D01*
X9641468Y-12677936D02*
X9631944Y-12687460D01*
X9631944Y-12687460D02*
X9612896Y-12696984D01*
X9612896Y-12696984D02*
X9593848Y-12696984D01*
X9593848Y-12696984D02*
X9574801Y-12687460D01*
X9574801Y-12687460D02*
X9565277Y-12677936D01*
X9565277Y-12677936D02*
X9555753Y-12658888D01*
X9555753Y-12658888D02*
X9546229Y-12620793D01*
X9546229Y-12620793D02*
X9546229Y-12573174D01*
X9546229Y-12573174D02*
X9555753Y-12535079D01*
X9555753Y-12535079D02*
X9565277Y-12516031D01*
X9565277Y-12516031D02*
X9574801Y-12506508D01*
X9574801Y-12506508D02*
X9593848Y-12496984D01*
X9831944Y-12563650D02*
X9831944Y-12696984D01*
X9784325Y-12487460D02*
X9736706Y-12630317D01*
X9736706Y-12630317D02*
X9860515Y-12630317D01*
X9917658Y-12496984D02*
X10041468Y-12496984D01*
X10041468Y-12496984D02*
X9974801Y-12573174D01*
X9974801Y-12573174D02*
X10003372Y-12573174D01*
X10003372Y-12573174D02*
X10022420Y-12582698D01*
X10022420Y-12582698D02*
X10031944Y-12592222D01*
X10031944Y-12592222D02*
X10041468Y-12611269D01*
X10041468Y-12611269D02*
X10041468Y-12658888D01*
X10041468Y-12658888D02*
X10031944Y-12677936D01*
X10031944Y-12677936D02*
X10022420Y-12687460D01*
X10022420Y-12687460D02*
X10003372Y-12696984D01*
X10003372Y-12696984D02*
X9946229Y-12696984D01*
X9946229Y-12696984D02*
X9927182Y-12687460D01*
X9927182Y-12687460D02*
X9917658Y-12677936D01*
X10108134Y-12496984D02*
X10231944Y-12496984D01*
X10231944Y-12496984D02*
X10165277Y-12573174D01*
X10165277Y-12573174D02*
X10193849Y-12573174D01*
X10193849Y-12573174D02*
X10212896Y-12582698D01*
X10212896Y-12582698D02*
X10222420Y-12592222D01*
X10222420Y-12592222D02*
X10231944Y-12611269D01*
X10231944Y-12611269D02*
X10231944Y-12658888D01*
X10231944Y-12658888D02*
X10222420Y-12677936D01*
X10222420Y-12677936D02*
X10212896Y-12687460D01*
X10212896Y-12687460D02*
X10193849Y-12696984D01*
X10193849Y-12696984D02*
X10136706Y-12696984D01*
X10136706Y-12696984D02*
X10117658Y-12687460D01*
X10117658Y-12687460D02*
X10108134Y-12677936D01*
X10308134Y-12496984D02*
X10308134Y-12535079D01*
X10384325Y-12496984D02*
X10384325Y-12535079D01*
X10679563Y-12773174D02*
X10670039Y-12763650D01*
X10670039Y-12763650D02*
X10650991Y-12735079D01*
X10650991Y-12735079D02*
X10641468Y-12716031D01*
X10641468Y-12716031D02*
X10631944Y-12687460D01*
X10631944Y-12687460D02*
X10622420Y-12639841D01*
X10622420Y-12639841D02*
X10622420Y-12601746D01*
X10622420Y-12601746D02*
X10631944Y-12554127D01*
X10631944Y-12554127D02*
X10641468Y-12525555D01*
X10641468Y-12525555D02*
X10650991Y-12506508D01*
X10650991Y-12506508D02*
X10670039Y-12477936D01*
X10670039Y-12477936D02*
X10679563Y-12468412D01*
X10793849Y-12496984D02*
X10812896Y-12496984D01*
X10812896Y-12496984D02*
X10831944Y-12506508D01*
X10831944Y-12506508D02*
X10841468Y-12516031D01*
X10841468Y-12516031D02*
X10850991Y-12535079D01*
X10850991Y-12535079D02*
X10860515Y-12573174D01*
X10860515Y-12573174D02*
X10860515Y-12620793D01*
X10860515Y-12620793D02*
X10850991Y-12658888D01*
X10850991Y-12658888D02*
X10841468Y-12677936D01*
X10841468Y-12677936D02*
X10831944Y-12687460D01*
X10831944Y-12687460D02*
X10812896Y-12696984D01*
X10812896Y-12696984D02*
X10793849Y-12696984D01*
X10793849Y-12696984D02*
X10774801Y-12687460D01*
X10774801Y-12687460D02*
X10765277Y-12677936D01*
X10765277Y-12677936D02*
X10755753Y-12658888D01*
X10755753Y-12658888D02*
X10746230Y-12620793D01*
X10746230Y-12620793D02*
X10746230Y-12573174D01*
X10746230Y-12573174D02*
X10755753Y-12535079D01*
X10755753Y-12535079D02*
X10765277Y-12516031D01*
X10765277Y-12516031D02*
X10774801Y-12506508D01*
X10774801Y-12506508D02*
X10793849Y-12496984D01*
X11098611Y-12696984D02*
X11098611Y-12496984D01*
X11184325Y-12696984D02*
X11184325Y-12592222D01*
X11184325Y-12592222D02*
X11174801Y-12573174D01*
X11174801Y-12573174D02*
X11155753Y-12563650D01*
X11155753Y-12563650D02*
X11127182Y-12563650D01*
X11127182Y-12563650D02*
X11108134Y-12573174D01*
X11108134Y-12573174D02*
X11098611Y-12582698D01*
X11308134Y-12696984D02*
X11289087Y-12687460D01*
X11289087Y-12687460D02*
X11279563Y-12677936D01*
X11279563Y-12677936D02*
X11270039Y-12658888D01*
X11270039Y-12658888D02*
X11270039Y-12601746D01*
X11270039Y-12601746D02*
X11279563Y-12582698D01*
X11279563Y-12582698D02*
X11289087Y-12573174D01*
X11289087Y-12573174D02*
X11308134Y-12563650D01*
X11308134Y-12563650D02*
X11336706Y-12563650D01*
X11336706Y-12563650D02*
X11355753Y-12573174D01*
X11355753Y-12573174D02*
X11365277Y-12582698D01*
X11365277Y-12582698D02*
X11374801Y-12601746D01*
X11374801Y-12601746D02*
X11374801Y-12658888D01*
X11374801Y-12658888D02*
X11365277Y-12677936D01*
X11365277Y-12677936D02*
X11355753Y-12687460D01*
X11355753Y-12687460D02*
X11336706Y-12696984D01*
X11336706Y-12696984D02*
X11308134Y-12696984D01*
X11489087Y-12696984D02*
X11470039Y-12687460D01*
X11470039Y-12687460D02*
X11460515Y-12668412D01*
X11460515Y-12668412D02*
X11460515Y-12496984D01*
X11641468Y-12687460D02*
X11622420Y-12696984D01*
X11622420Y-12696984D02*
X11584325Y-12696984D01*
X11584325Y-12696984D02*
X11565277Y-12687460D01*
X11565277Y-12687460D02*
X11555753Y-12668412D01*
X11555753Y-12668412D02*
X11555753Y-12592222D01*
X11555753Y-12592222D02*
X11565277Y-12573174D01*
X11565277Y-12573174D02*
X11584325Y-12563650D01*
X11584325Y-12563650D02*
X11622420Y-12563650D01*
X11622420Y-12563650D02*
X11641468Y-12573174D01*
X11641468Y-12573174D02*
X11650991Y-12592222D01*
X11650991Y-12592222D02*
X11650991Y-12611269D01*
X11650991Y-12611269D02*
X11555753Y-12630317D01*
X11727182Y-12687460D02*
X11746230Y-12696984D01*
X11746230Y-12696984D02*
X11784325Y-12696984D01*
X11784325Y-12696984D02*
X11803372Y-12687460D01*
X11803372Y-12687460D02*
X11812896Y-12668412D01*
X11812896Y-12668412D02*
X11812896Y-12658888D01*
X11812896Y-12658888D02*
X11803372Y-12639841D01*
X11803372Y-12639841D02*
X11784325Y-12630317D01*
X11784325Y-12630317D02*
X11755753Y-12630317D01*
X11755753Y-12630317D02*
X11736706Y-12620793D01*
X11736706Y-12620793D02*
X11727182Y-12601746D01*
X11727182Y-12601746D02*
X11727182Y-12592222D01*
X11727182Y-12592222D02*
X11736706Y-12573174D01*
X11736706Y-12573174D02*
X11755753Y-12563650D01*
X11755753Y-12563650D02*
X11784325Y-12563650D01*
X11784325Y-12563650D02*
X11803372Y-12573174D01*
X12050992Y-12620793D02*
X12203373Y-12620793D01*
X12127182Y-12696984D02*
X12127182Y-12544603D01*
X12555753Y-12696984D02*
X12441468Y-12696984D01*
X12498611Y-12696984D02*
X12498611Y-12496984D01*
X12498611Y-12496984D02*
X12479563Y-12525555D01*
X12479563Y-12525555D02*
X12460515Y-12544603D01*
X12460515Y-12544603D02*
X12441468Y-12554127D01*
X12727182Y-12496984D02*
X12689087Y-12496984D01*
X12689087Y-12496984D02*
X12670039Y-12506508D01*
X12670039Y-12506508D02*
X12660515Y-12516031D01*
X12660515Y-12516031D02*
X12641468Y-12544603D01*
X12641468Y-12544603D02*
X12631944Y-12582698D01*
X12631944Y-12582698D02*
X12631944Y-12658888D01*
X12631944Y-12658888D02*
X12641468Y-12677936D01*
X12641468Y-12677936D02*
X12650992Y-12687460D01*
X12650992Y-12687460D02*
X12670039Y-12696984D01*
X12670039Y-12696984D02*
X12708134Y-12696984D01*
X12708134Y-12696984D02*
X12727182Y-12687460D01*
X12727182Y-12687460D02*
X12736706Y-12677936D01*
X12736706Y-12677936D02*
X12746230Y-12658888D01*
X12746230Y-12658888D02*
X12746230Y-12611269D01*
X12746230Y-12611269D02*
X12736706Y-12592222D01*
X12736706Y-12592222D02*
X12727182Y-12582698D01*
X12727182Y-12582698D02*
X12708134Y-12573174D01*
X12708134Y-12573174D02*
X12670039Y-12573174D01*
X12670039Y-12573174D02*
X12650992Y-12582698D01*
X12650992Y-12582698D02*
X12641468Y-12592222D01*
X12641468Y-12592222D02*
X12631944Y-12611269D01*
X12974801Y-12687460D02*
X12993849Y-12696984D01*
X12993849Y-12696984D02*
X13031944Y-12696984D01*
X13031944Y-12696984D02*
X13050992Y-12687460D01*
X13050992Y-12687460D02*
X13060515Y-12668412D01*
X13060515Y-12668412D02*
X13060515Y-12658888D01*
X13060515Y-12658888D02*
X13050992Y-12639841D01*
X13050992Y-12639841D02*
X13031944Y-12630317D01*
X13031944Y-12630317D02*
X13003373Y-12630317D01*
X13003373Y-12630317D02*
X12984325Y-12620793D01*
X12984325Y-12620793D02*
X12974801Y-12601746D01*
X12974801Y-12601746D02*
X12974801Y-12592222D01*
X12974801Y-12592222D02*
X12984325Y-12573174D01*
X12984325Y-12573174D02*
X13003373Y-12563650D01*
X13003373Y-12563650D02*
X13031944Y-12563650D01*
X13031944Y-12563650D02*
X13050992Y-12573174D01*
X13174801Y-12696984D02*
X13155754Y-12687460D01*
X13155754Y-12687460D02*
X13146230Y-12668412D01*
X13146230Y-12668412D02*
X13146230Y-12496984D01*
X13279563Y-12696984D02*
X13260515Y-12687460D01*
X13260515Y-12687460D02*
X13250992Y-12677936D01*
X13250992Y-12677936D02*
X13241468Y-12658888D01*
X13241468Y-12658888D02*
X13241468Y-12601746D01*
X13241468Y-12601746D02*
X13250992Y-12582698D01*
X13250992Y-12582698D02*
X13260515Y-12573174D01*
X13260515Y-12573174D02*
X13279563Y-12563650D01*
X13279563Y-12563650D02*
X13308135Y-12563650D01*
X13308135Y-12563650D02*
X13327182Y-12573174D01*
X13327182Y-12573174D02*
X13336706Y-12582698D01*
X13336706Y-12582698D02*
X13346230Y-12601746D01*
X13346230Y-12601746D02*
X13346230Y-12658888D01*
X13346230Y-12658888D02*
X13336706Y-12677936D01*
X13336706Y-12677936D02*
X13327182Y-12687460D01*
X13327182Y-12687460D02*
X13308135Y-12696984D01*
X13308135Y-12696984D02*
X13279563Y-12696984D01*
X13403373Y-12563650D02*
X13479563Y-12563650D01*
X13431944Y-12496984D02*
X13431944Y-12668412D01*
X13431944Y-12668412D02*
X13441468Y-12687460D01*
X13441468Y-12687460D02*
X13460515Y-12696984D01*
X13460515Y-12696984D02*
X13479563Y-12696984D01*
X13536706Y-12687460D02*
X13555754Y-12696984D01*
X13555754Y-12696984D02*
X13593849Y-12696984D01*
X13593849Y-12696984D02*
X13612896Y-12687460D01*
X13612896Y-12687460D02*
X13622420Y-12668412D01*
X13622420Y-12668412D02*
X13622420Y-12658888D01*
X13622420Y-12658888D02*
X13612896Y-12639841D01*
X13612896Y-12639841D02*
X13593849Y-12630317D01*
X13593849Y-12630317D02*
X13565277Y-12630317D01*
X13565277Y-12630317D02*
X13546230Y-12620793D01*
X13546230Y-12620793D02*
X13536706Y-12601746D01*
X13536706Y-12601746D02*
X13536706Y-12592222D01*
X13536706Y-12592222D02*
X13546230Y-12573174D01*
X13546230Y-12573174D02*
X13565277Y-12563650D01*
X13565277Y-12563650D02*
X13593849Y-12563650D01*
X13593849Y-12563650D02*
X13612896Y-12573174D01*
X13689087Y-12773174D02*
X13698611Y-12763650D01*
X13698611Y-12763650D02*
X13717658Y-12735079D01*
X13717658Y-12735079D02*
X13727182Y-12716031D01*
X13727182Y-12716031D02*
X13736706Y-12687460D01*
X13736706Y-12687460D02*
X13746230Y-12639841D01*
X13746230Y-12639841D02*
X13746230Y-12601746D01*
X13746230Y-12601746D02*
X13736706Y-12554127D01*
X13736706Y-12554127D02*
X13727182Y-12525555D01*
X13727182Y-12525555D02*
X13717658Y-12506508D01*
X13717658Y-12506508D02*
X13698611Y-12477936D01*
X13698611Y-12477936D02*
X13689087Y-12468412D01*
X7075211Y-12940211D02*
X7075211Y-12798789D01*
X6933789Y-12798789D01*
X6933789Y-12940211D01*
X7075211Y-12940211D01*
X7346229Y-12760984D02*
X7470039Y-12760984D01*
X7470039Y-12760984D02*
X7403372Y-12837174D01*
X7403372Y-12837174D02*
X7431943Y-12837174D01*
X7431943Y-12837174D02*
X7450991Y-12846698D01*
X7450991Y-12846698D02*
X7460515Y-12856222D01*
X7460515Y-12856222D02*
X7470039Y-12875269D01*
X7470039Y-12875269D02*
X7470039Y-12922888D01*
X7470039Y-12922888D02*
X7460515Y-12941936D01*
X7460515Y-12941936D02*
X7450991Y-12951460D01*
X7450991Y-12951460D02*
X7431943Y-12960984D01*
X7431943Y-12960984D02*
X7374801Y-12960984D01*
X7374801Y-12960984D02*
X7355753Y-12951460D01*
X7355753Y-12951460D02*
X7346229Y-12941936D01*
X7555753Y-12941936D02*
X7565277Y-12951460D01*
X7565277Y-12951460D02*
X7555753Y-12960984D01*
X7555753Y-12960984D02*
X7546229Y-12951460D01*
X7546229Y-12951460D02*
X7555753Y-12941936D01*
X7555753Y-12941936D02*
X7555753Y-12960984D01*
X7746229Y-12760984D02*
X7650991Y-12760984D01*
X7650991Y-12760984D02*
X7641467Y-12856222D01*
X7641467Y-12856222D02*
X7650991Y-12846698D01*
X7650991Y-12846698D02*
X7670039Y-12837174D01*
X7670039Y-12837174D02*
X7717658Y-12837174D01*
X7717658Y-12837174D02*
X7736705Y-12846698D01*
X7736705Y-12846698D02*
X7746229Y-12856222D01*
X7746229Y-12856222D02*
X7755753Y-12875269D01*
X7755753Y-12875269D02*
X7755753Y-12922888D01*
X7755753Y-12922888D02*
X7746229Y-12941936D01*
X7746229Y-12941936D02*
X7736705Y-12951460D01*
X7736705Y-12951460D02*
X7717658Y-12960984D01*
X7717658Y-12960984D02*
X7670039Y-12960984D01*
X7670039Y-12960984D02*
X7650991Y-12951460D01*
X7650991Y-12951460D02*
X7641467Y-12941936D01*
X7879562Y-12760984D02*
X7898610Y-12760984D01*
X7898610Y-12760984D02*
X7917658Y-12770508D01*
X7917658Y-12770508D02*
X7927182Y-12780031D01*
X7927182Y-12780031D02*
X7936705Y-12799079D01*
X7936705Y-12799079D02*
X7946229Y-12837174D01*
X7946229Y-12837174D02*
X7946229Y-12884793D01*
X7946229Y-12884793D02*
X7936705Y-12922888D01*
X7936705Y-12922888D02*
X7927182Y-12941936D01*
X7927182Y-12941936D02*
X7917658Y-12951460D01*
X7917658Y-12951460D02*
X7898610Y-12960984D01*
X7898610Y-12960984D02*
X7879562Y-12960984D01*
X7879562Y-12960984D02*
X7860515Y-12951460D01*
X7860515Y-12951460D02*
X7850991Y-12941936D01*
X7850991Y-12941936D02*
X7841467Y-12922888D01*
X7841467Y-12922888D02*
X7831943Y-12884793D01*
X7831943Y-12884793D02*
X7831943Y-12837174D01*
X7831943Y-12837174D02*
X7841467Y-12799079D01*
X7841467Y-12799079D02*
X7850991Y-12780031D01*
X7850991Y-12780031D02*
X7860515Y-12770508D01*
X7860515Y-12770508D02*
X7879562Y-12760984D01*
X8070039Y-12760984D02*
X8089086Y-12760984D01*
X8089086Y-12760984D02*
X8108134Y-12770508D01*
X8108134Y-12770508D02*
X8117658Y-12780031D01*
X8117658Y-12780031D02*
X8127182Y-12799079D01*
X8127182Y-12799079D02*
X8136705Y-12837174D01*
X8136705Y-12837174D02*
X8136705Y-12884793D01*
X8136705Y-12884793D02*
X8127182Y-12922888D01*
X8127182Y-12922888D02*
X8117658Y-12941936D01*
X8117658Y-12941936D02*
X8108134Y-12951460D01*
X8108134Y-12951460D02*
X8089086Y-12960984D01*
X8089086Y-12960984D02*
X8070039Y-12960984D01*
X8070039Y-12960984D02*
X8050991Y-12951460D01*
X8050991Y-12951460D02*
X8041467Y-12941936D01*
X8041467Y-12941936D02*
X8031943Y-12922888D01*
X8031943Y-12922888D02*
X8022420Y-12884793D01*
X8022420Y-12884793D02*
X8022420Y-12837174D01*
X8022420Y-12837174D02*
X8031943Y-12799079D01*
X8031943Y-12799079D02*
X8041467Y-12780031D01*
X8041467Y-12780031D02*
X8050991Y-12770508D01*
X8050991Y-12770508D02*
X8070039Y-12760984D01*
X8222420Y-12960984D02*
X8222420Y-12827650D01*
X8222420Y-12846698D02*
X8231943Y-12837174D01*
X8231943Y-12837174D02*
X8250991Y-12827650D01*
X8250991Y-12827650D02*
X8279563Y-12827650D01*
X8279563Y-12827650D02*
X8298610Y-12837174D01*
X8298610Y-12837174D02*
X8308134Y-12856222D01*
X8308134Y-12856222D02*
X8308134Y-12960984D01*
X8308134Y-12856222D02*
X8317658Y-12837174D01*
X8317658Y-12837174D02*
X8336705Y-12827650D01*
X8336705Y-12827650D02*
X8365277Y-12827650D01*
X8365277Y-12827650D02*
X8384324Y-12837174D01*
X8384324Y-12837174D02*
X8393848Y-12856222D01*
X8393848Y-12856222D02*
X8393848Y-12960984D01*
X8489086Y-12960984D02*
X8489086Y-12827650D01*
X8489086Y-12846698D02*
X8498610Y-12837174D01*
X8498610Y-12837174D02*
X8517658Y-12827650D01*
X8517658Y-12827650D02*
X8546229Y-12827650D01*
X8546229Y-12827650D02*
X8565277Y-12837174D01*
X8565277Y-12837174D02*
X8574801Y-12856222D01*
X8574801Y-12856222D02*
X8574801Y-12960984D01*
X8574801Y-12856222D02*
X8584325Y-12837174D01*
X8584325Y-12837174D02*
X8603372Y-12827650D01*
X8603372Y-12827650D02*
X8631944Y-12827650D01*
X8631944Y-12827650D02*
X8650991Y-12837174D01*
X8650991Y-12837174D02*
X8660515Y-12856222D01*
X8660515Y-12856222D02*
X8660515Y-12960984D01*
X9050991Y-12751460D02*
X8879563Y-13008603D01*
X9308134Y-12760984D02*
X9327182Y-12760984D01*
X9327182Y-12760984D02*
X9346229Y-12770508D01*
X9346229Y-12770508D02*
X9355753Y-12780031D01*
X9355753Y-12780031D02*
X9365277Y-12799079D01*
X9365277Y-12799079D02*
X9374801Y-12837174D01*
X9374801Y-12837174D02*
X9374801Y-12884793D01*
X9374801Y-12884793D02*
X9365277Y-12922888D01*
X9365277Y-12922888D02*
X9355753Y-12941936D01*
X9355753Y-12941936D02*
X9346229Y-12951460D01*
X9346229Y-12951460D02*
X9327182Y-12960984D01*
X9327182Y-12960984D02*
X9308134Y-12960984D01*
X9308134Y-12960984D02*
X9289087Y-12951460D01*
X9289087Y-12951460D02*
X9279563Y-12941936D01*
X9279563Y-12941936D02*
X9270039Y-12922888D01*
X9270039Y-12922888D02*
X9260515Y-12884793D01*
X9260515Y-12884793D02*
X9260515Y-12837174D01*
X9260515Y-12837174D02*
X9270039Y-12799079D01*
X9270039Y-12799079D02*
X9279563Y-12780031D01*
X9279563Y-12780031D02*
X9289087Y-12770508D01*
X9289087Y-12770508D02*
X9308134Y-12760984D01*
X9460515Y-12941936D02*
X9470039Y-12951460D01*
X9470039Y-12951460D02*
X9460515Y-12960984D01*
X9460515Y-12960984D02*
X9450991Y-12951460D01*
X9450991Y-12951460D02*
X9460515Y-12941936D01*
X9460515Y-12941936D02*
X9460515Y-12960984D01*
X9660515Y-12960984D02*
X9546229Y-12960984D01*
X9603372Y-12960984D02*
X9603372Y-12760984D01*
X9603372Y-12760984D02*
X9584325Y-12789555D01*
X9584325Y-12789555D02*
X9565277Y-12808603D01*
X9565277Y-12808603D02*
X9546229Y-12818127D01*
X9727182Y-12760984D02*
X9850991Y-12760984D01*
X9850991Y-12760984D02*
X9784325Y-12837174D01*
X9784325Y-12837174D02*
X9812896Y-12837174D01*
X9812896Y-12837174D02*
X9831944Y-12846698D01*
X9831944Y-12846698D02*
X9841468Y-12856222D01*
X9841468Y-12856222D02*
X9850991Y-12875269D01*
X9850991Y-12875269D02*
X9850991Y-12922888D01*
X9850991Y-12922888D02*
X9841468Y-12941936D01*
X9841468Y-12941936D02*
X9831944Y-12951460D01*
X9831944Y-12951460D02*
X9812896Y-12960984D01*
X9812896Y-12960984D02*
X9755753Y-12960984D01*
X9755753Y-12960984D02*
X9736706Y-12951460D01*
X9736706Y-12951460D02*
X9727182Y-12941936D01*
X9917658Y-12760984D02*
X10050991Y-12760984D01*
X10050991Y-12760984D02*
X9965277Y-12960984D01*
X10155753Y-12846698D02*
X10136706Y-12837174D01*
X10136706Y-12837174D02*
X10127182Y-12827650D01*
X10127182Y-12827650D02*
X10117658Y-12808603D01*
X10117658Y-12808603D02*
X10117658Y-12799079D01*
X10117658Y-12799079D02*
X10127182Y-12780031D01*
X10127182Y-12780031D02*
X10136706Y-12770508D01*
X10136706Y-12770508D02*
X10155753Y-12760984D01*
X10155753Y-12760984D02*
X10193849Y-12760984D01*
X10193849Y-12760984D02*
X10212896Y-12770508D01*
X10212896Y-12770508D02*
X10222420Y-12780031D01*
X10222420Y-12780031D02*
X10231944Y-12799079D01*
X10231944Y-12799079D02*
X10231944Y-12808603D01*
X10231944Y-12808603D02*
X10222420Y-12827650D01*
X10222420Y-12827650D02*
X10212896Y-12837174D01*
X10212896Y-12837174D02*
X10193849Y-12846698D01*
X10193849Y-12846698D02*
X10155753Y-12846698D01*
X10155753Y-12846698D02*
X10136706Y-12856222D01*
X10136706Y-12856222D02*
X10127182Y-12865746D01*
X10127182Y-12865746D02*
X10117658Y-12884793D01*
X10117658Y-12884793D02*
X10117658Y-12922888D01*
X10117658Y-12922888D02*
X10127182Y-12941936D01*
X10127182Y-12941936D02*
X10136706Y-12951460D01*
X10136706Y-12951460D02*
X10155753Y-12960984D01*
X10155753Y-12960984D02*
X10193849Y-12960984D01*
X10193849Y-12960984D02*
X10212896Y-12951460D01*
X10212896Y-12951460D02*
X10222420Y-12941936D01*
X10222420Y-12941936D02*
X10231944Y-12922888D01*
X10231944Y-12922888D02*
X10231944Y-12884793D01*
X10231944Y-12884793D02*
X10222420Y-12865746D01*
X10222420Y-12865746D02*
X10212896Y-12856222D01*
X10212896Y-12856222D02*
X10193849Y-12846698D01*
X10308134Y-12760984D02*
X10308134Y-12799079D01*
X10384325Y-12760984D02*
X10384325Y-12799079D01*
X10679563Y-13037174D02*
X10670039Y-13027650D01*
X10670039Y-13027650D02*
X10650991Y-12999079D01*
X10650991Y-12999079D02*
X10641468Y-12980031D01*
X10641468Y-12980031D02*
X10631944Y-12951460D01*
X10631944Y-12951460D02*
X10622420Y-12903841D01*
X10622420Y-12903841D02*
X10622420Y-12865746D01*
X10622420Y-12865746D02*
X10631944Y-12818127D01*
X10631944Y-12818127D02*
X10641468Y-12789555D01*
X10641468Y-12789555D02*
X10650991Y-12770508D01*
X10650991Y-12770508D02*
X10670039Y-12741936D01*
X10670039Y-12741936D02*
X10679563Y-12732412D01*
X10841468Y-12827650D02*
X10841468Y-12960984D01*
X10793849Y-12751460D02*
X10746230Y-12894317D01*
X10746230Y-12894317D02*
X10870039Y-12894317D01*
X11098611Y-12960984D02*
X11098611Y-12760984D01*
X11184325Y-12960984D02*
X11184325Y-12856222D01*
X11184325Y-12856222D02*
X11174801Y-12837174D01*
X11174801Y-12837174D02*
X11155753Y-12827650D01*
X11155753Y-12827650D02*
X11127182Y-12827650D01*
X11127182Y-12827650D02*
X11108134Y-12837174D01*
X11108134Y-12837174D02*
X11098611Y-12846698D01*
X11308134Y-12960984D02*
X11289087Y-12951460D01*
X11289087Y-12951460D02*
X11279563Y-12941936D01*
X11279563Y-12941936D02*
X11270039Y-12922888D01*
X11270039Y-12922888D02*
X11270039Y-12865746D01*
X11270039Y-12865746D02*
X11279563Y-12846698D01*
X11279563Y-12846698D02*
X11289087Y-12837174D01*
X11289087Y-12837174D02*
X11308134Y-12827650D01*
X11308134Y-12827650D02*
X11336706Y-12827650D01*
X11336706Y-12827650D02*
X11355753Y-12837174D01*
X11355753Y-12837174D02*
X11365277Y-12846698D01*
X11365277Y-12846698D02*
X11374801Y-12865746D01*
X11374801Y-12865746D02*
X11374801Y-12922888D01*
X11374801Y-12922888D02*
X11365277Y-12941936D01*
X11365277Y-12941936D02*
X11355753Y-12951460D01*
X11355753Y-12951460D02*
X11336706Y-12960984D01*
X11336706Y-12960984D02*
X11308134Y-12960984D01*
X11489087Y-12960984D02*
X11470039Y-12951460D01*
X11470039Y-12951460D02*
X11460515Y-12932412D01*
X11460515Y-12932412D02*
X11460515Y-12760984D01*
X11641468Y-12951460D02*
X11622420Y-12960984D01*
X11622420Y-12960984D02*
X11584325Y-12960984D01*
X11584325Y-12960984D02*
X11565277Y-12951460D01*
X11565277Y-12951460D02*
X11555753Y-12932412D01*
X11555753Y-12932412D02*
X11555753Y-12856222D01*
X11555753Y-12856222D02*
X11565277Y-12837174D01*
X11565277Y-12837174D02*
X11584325Y-12827650D01*
X11584325Y-12827650D02*
X11622420Y-12827650D01*
X11622420Y-12827650D02*
X11641468Y-12837174D01*
X11641468Y-12837174D02*
X11650991Y-12856222D01*
X11650991Y-12856222D02*
X11650991Y-12875269D01*
X11650991Y-12875269D02*
X11555753Y-12894317D01*
X11727182Y-12951460D02*
X11746230Y-12960984D01*
X11746230Y-12960984D02*
X11784325Y-12960984D01*
X11784325Y-12960984D02*
X11803372Y-12951460D01*
X11803372Y-12951460D02*
X11812896Y-12932412D01*
X11812896Y-12932412D02*
X11812896Y-12922888D01*
X11812896Y-12922888D02*
X11803372Y-12903841D01*
X11803372Y-12903841D02*
X11784325Y-12894317D01*
X11784325Y-12894317D02*
X11755753Y-12894317D01*
X11755753Y-12894317D02*
X11736706Y-12884793D01*
X11736706Y-12884793D02*
X11727182Y-12865746D01*
X11727182Y-12865746D02*
X11727182Y-12856222D01*
X11727182Y-12856222D02*
X11736706Y-12837174D01*
X11736706Y-12837174D02*
X11755753Y-12827650D01*
X11755753Y-12827650D02*
X11784325Y-12827650D01*
X11784325Y-12827650D02*
X11803372Y-12837174D01*
X11879563Y-13037174D02*
X11889087Y-13027650D01*
X11889087Y-13027650D02*
X11908134Y-12999079D01*
X11908134Y-12999079D02*
X11917658Y-12980031D01*
X11917658Y-12980031D02*
X11927182Y-12951460D01*
X11927182Y-12951460D02*
X11936706Y-12903841D01*
X11936706Y-12903841D02*
X11936706Y-12865746D01*
X11936706Y-12865746D02*
X11927182Y-12818127D01*
X11927182Y-12818127D02*
X11917658Y-12789555D01*
X11917658Y-12789555D02*
X11908134Y-12770508D01*
X11908134Y-12770508D02*
X11889087Y-12741936D01*
X11889087Y-12741936D02*
X11879563Y-12732412D01*
M02*
