G04 #@! TF.GenerationSoftware,KiCad,Pcbnew,8.0.5*
G04 #@! TF.CreationDate,2025-06-13T07:23:11+02:00*
G04 #@! TF.ProjectId,4-Kanal_Power_Meter,342d4b61-6e61-46c5-9f50-6f7765725f4d,rev?*
G04 #@! TF.SameCoordinates,Original*
G04 #@! TF.FileFunction,Soldermask,Top*
G04 #@! TF.FilePolarity,Negative*
%FSLAX46Y46*%
G04 Gerber Fmt 4.6, Leading zero omitted, Abs format (unit mm)*
G04 Created by KiCad (PCBNEW 8.0.5) date 2025-06-13 07:23:11*
%MOMM*%
%LPD*%
G01*
G04 APERTURE LIST*
G04 APERTURE END LIST*
G36*
X76571181Y-105688453D02*
G01*
X76938294Y-105746598D01*
X77297319Y-105842798D01*
X77644322Y-105976000D01*
X77975500Y-106144744D01*
X78287225Y-106347181D01*
X78576083Y-106581093D01*
X78838907Y-106843917D01*
X79072819Y-107132775D01*
X79275256Y-107444500D01*
X79444000Y-107775678D01*
X79577202Y-108122681D01*
X79673402Y-108481706D01*
X79731547Y-108848819D01*
X79751000Y-109220000D01*
X79731547Y-109591181D01*
X79673402Y-109958294D01*
X79577202Y-110317319D01*
X79444000Y-110664322D01*
X79275256Y-110995500D01*
X79072819Y-111307225D01*
X78838907Y-111596083D01*
X78576083Y-111858907D01*
X78287225Y-112092819D01*
X77975500Y-112295256D01*
X77644322Y-112464000D01*
X77297319Y-112597202D01*
X76938294Y-112693402D01*
X76571181Y-112751547D01*
X76200000Y-112771000D01*
X75828819Y-112751547D01*
X75461706Y-112693402D01*
X75102681Y-112597202D01*
X74755678Y-112464000D01*
X74424500Y-112295256D01*
X74112775Y-112092819D01*
X73823917Y-111858907D01*
X73561093Y-111596083D01*
X73327181Y-111307225D01*
X73124744Y-110995500D01*
X72956000Y-110664322D01*
X72822798Y-110317319D01*
X72726598Y-109958294D01*
X72668453Y-109591181D01*
X72649000Y-109220000D01*
X72668453Y-108848819D01*
X72726598Y-108481706D01*
X72822798Y-108122681D01*
X72956000Y-107775678D01*
X73124744Y-107444500D01*
X73327181Y-107132775D01*
X73561093Y-106843917D01*
X73823917Y-106581093D01*
X74112775Y-106347181D01*
X74424500Y-106144744D01*
X74755678Y-105976000D01*
X75102681Y-105842798D01*
X75461706Y-105746598D01*
X75828819Y-105688453D01*
X76200000Y-105669000D01*
X76571181Y-105688453D01*
G37*
G36*
X218658781Y-105586853D02*
G01*
X219025894Y-105644998D01*
X219384919Y-105741198D01*
X219731922Y-105874400D01*
X220063100Y-106043144D01*
X220374825Y-106245581D01*
X220663683Y-106479493D01*
X220926507Y-106742317D01*
X221160419Y-107031175D01*
X221362856Y-107342900D01*
X221531600Y-107674078D01*
X221664802Y-108021081D01*
X221761002Y-108380106D01*
X221819147Y-108747219D01*
X221838600Y-109118400D01*
X221819147Y-109489581D01*
X221761002Y-109856694D01*
X221664802Y-110215719D01*
X221531600Y-110562722D01*
X221362856Y-110893900D01*
X221160419Y-111205625D01*
X220926507Y-111494483D01*
X220663683Y-111757307D01*
X220374825Y-111991219D01*
X220063100Y-112193656D01*
X219731922Y-112362400D01*
X219384919Y-112495602D01*
X219025894Y-112591802D01*
X218658781Y-112649947D01*
X218287600Y-112669400D01*
X217916419Y-112649947D01*
X217549306Y-112591802D01*
X217190281Y-112495602D01*
X216843278Y-112362400D01*
X216512100Y-112193656D01*
X216200375Y-111991219D01*
X215911517Y-111757307D01*
X215648693Y-111494483D01*
X215414781Y-111205625D01*
X215212344Y-110893900D01*
X215043600Y-110562722D01*
X214910398Y-110215719D01*
X214814198Y-109856694D01*
X214756053Y-109489581D01*
X214736600Y-109118400D01*
X214756053Y-108747219D01*
X214814198Y-108380106D01*
X214910398Y-108021081D01*
X215043600Y-107674078D01*
X215212344Y-107342900D01*
X215414781Y-107031175D01*
X215648693Y-106742317D01*
X215911517Y-106479493D01*
X216200375Y-106245581D01*
X216512100Y-106043144D01*
X216843278Y-105874400D01*
X217190281Y-105741198D01*
X217549306Y-105644998D01*
X217916419Y-105586853D01*
X218287600Y-105567400D01*
X218658781Y-105586853D01*
G37*
G36*
X194811217Y-107738682D02*
G01*
X194827762Y-107749738D01*
X194838818Y-107766283D01*
X194842700Y-107785800D01*
X194842700Y-109485800D01*
X194838818Y-109505317D01*
X194827762Y-109521862D01*
X194811217Y-109532918D01*
X194791700Y-109536800D01*
X193091700Y-109536800D01*
X193072183Y-109532918D01*
X193055638Y-109521862D01*
X193044582Y-109505317D01*
X193040700Y-109485800D01*
X193040700Y-107785800D01*
X193044582Y-107766283D01*
X193055638Y-107749738D01*
X193072183Y-107738682D01*
X193091700Y-107734800D01*
X194791700Y-107734800D01*
X194811217Y-107738682D01*
G37*
G36*
X209035217Y-107738682D02*
G01*
X209051762Y-107749738D01*
X209062818Y-107766283D01*
X209066700Y-107785800D01*
X209066700Y-109485800D01*
X209062818Y-109505317D01*
X209051762Y-109521862D01*
X209035217Y-109532918D01*
X209015700Y-109536800D01*
X207315700Y-109536800D01*
X207296183Y-109532918D01*
X207279638Y-109521862D01*
X207268582Y-109505317D01*
X207264700Y-109485800D01*
X207264700Y-107785800D01*
X207268582Y-107766283D01*
X207279638Y-107749738D01*
X207296183Y-107738682D01*
X207315700Y-107734800D01*
X209015700Y-107734800D01*
X209035217Y-107738682D01*
G37*
G36*
X186365683Y-107739736D02*
G01*
X186415880Y-107739736D01*
X186459224Y-107748949D01*
X186497359Y-107752705D01*
X186545266Y-107767237D01*
X186600124Y-107778898D01*
X186635230Y-107794528D01*
X186666266Y-107803943D01*
X186715584Y-107830304D01*
X186772200Y-107855511D01*
X186798522Y-107874635D01*
X186821932Y-107887148D01*
X186869688Y-107926340D01*
X186924587Y-107966227D01*
X186942411Y-107986023D01*
X186958375Y-107999124D01*
X187001272Y-108051394D01*
X187050624Y-108106205D01*
X187060992Y-108124163D01*
X187070351Y-108135567D01*
X187104973Y-108200342D01*
X187144804Y-108269330D01*
X187149385Y-108283430D01*
X187153556Y-108291233D01*
X187176552Y-108367042D01*
X187203011Y-108448472D01*
X187203942Y-108457332D01*
X187204794Y-108460140D01*
X187213084Y-108544313D01*
X187222700Y-108635800D01*
X187213083Y-108727294D01*
X187204794Y-108811459D01*
X187203942Y-108814266D01*
X187203011Y-108823128D01*
X187176548Y-108904571D01*
X187153556Y-108980366D01*
X187149386Y-108988166D01*
X187144804Y-109002270D01*
X187104966Y-109071270D01*
X187070351Y-109136032D01*
X187060994Y-109147433D01*
X187050624Y-109165395D01*
X187001263Y-109220215D01*
X186958375Y-109272475D01*
X186942414Y-109285573D01*
X186924587Y-109305373D01*
X186869677Y-109345267D01*
X186821932Y-109384451D01*
X186798527Y-109396961D01*
X186772200Y-109416089D01*
X186715573Y-109441300D01*
X186666266Y-109467656D01*
X186635237Y-109477068D01*
X186600124Y-109492702D01*
X186545255Y-109504364D01*
X186497359Y-109518894D01*
X186459232Y-109522649D01*
X186415880Y-109531864D01*
X186365673Y-109531864D01*
X186321700Y-109536195D01*
X186277727Y-109531864D01*
X186227520Y-109531864D01*
X186184167Y-109522649D01*
X186146040Y-109518894D01*
X186098141Y-109504363D01*
X186043276Y-109492702D01*
X186008164Y-109477069D01*
X185977133Y-109467656D01*
X185927820Y-109441298D01*
X185871200Y-109416089D01*
X185844875Y-109396963D01*
X185821467Y-109384451D01*
X185773713Y-109345260D01*
X185718813Y-109305373D01*
X185700987Y-109285576D01*
X185685024Y-109272475D01*
X185642125Y-109220202D01*
X185592776Y-109165395D01*
X185582408Y-109147437D01*
X185573048Y-109136032D01*
X185538419Y-109071247D01*
X185498596Y-109002270D01*
X185494015Y-108988171D01*
X185489843Y-108980366D01*
X185466836Y-108904525D01*
X185440389Y-108823128D01*
X185439458Y-108814271D01*
X185438605Y-108811459D01*
X185430300Y-108727142D01*
X185420700Y-108635800D01*
X185430299Y-108544464D01*
X185438605Y-108460140D01*
X185439458Y-108457327D01*
X185440389Y-108448472D01*
X185466832Y-108367088D01*
X185489843Y-108291233D01*
X185494015Y-108283426D01*
X185498596Y-108269330D01*
X185538412Y-108200365D01*
X185573048Y-108135567D01*
X185582410Y-108124159D01*
X185592776Y-108106205D01*
X185642116Y-108051407D01*
X185685024Y-107999124D01*
X185700991Y-107986019D01*
X185718813Y-107966227D01*
X185773702Y-107926346D01*
X185821467Y-107887148D01*
X185844880Y-107874633D01*
X185871200Y-107855511D01*
X185927809Y-107830306D01*
X185977133Y-107803943D01*
X186008171Y-107794527D01*
X186043276Y-107778898D01*
X186098130Y-107767238D01*
X186146040Y-107752705D01*
X186184176Y-107748948D01*
X186227520Y-107739736D01*
X186277716Y-107739736D01*
X186321700Y-107735404D01*
X186365683Y-107739736D01*
G37*
G36*
X188905683Y-107739736D02*
G01*
X188955880Y-107739736D01*
X188999224Y-107748949D01*
X189037359Y-107752705D01*
X189085266Y-107767237D01*
X189140124Y-107778898D01*
X189175230Y-107794528D01*
X189206266Y-107803943D01*
X189255584Y-107830304D01*
X189312200Y-107855511D01*
X189338522Y-107874635D01*
X189361932Y-107887148D01*
X189409688Y-107926340D01*
X189464587Y-107966227D01*
X189482411Y-107986023D01*
X189498375Y-107999124D01*
X189541272Y-108051394D01*
X189590624Y-108106205D01*
X189600992Y-108124163D01*
X189610351Y-108135567D01*
X189644973Y-108200342D01*
X189684804Y-108269330D01*
X189689385Y-108283430D01*
X189693556Y-108291233D01*
X189716552Y-108367042D01*
X189743011Y-108448472D01*
X189743942Y-108457332D01*
X189744794Y-108460140D01*
X189753084Y-108544313D01*
X189762700Y-108635800D01*
X189753083Y-108727294D01*
X189744794Y-108811459D01*
X189743942Y-108814266D01*
X189743011Y-108823128D01*
X189716548Y-108904571D01*
X189693556Y-108980366D01*
X189689386Y-108988166D01*
X189684804Y-109002270D01*
X189644966Y-109071270D01*
X189610351Y-109136032D01*
X189600994Y-109147433D01*
X189590624Y-109165395D01*
X189541263Y-109220215D01*
X189498375Y-109272475D01*
X189482414Y-109285573D01*
X189464587Y-109305373D01*
X189409677Y-109345267D01*
X189361932Y-109384451D01*
X189338527Y-109396961D01*
X189312200Y-109416089D01*
X189255573Y-109441300D01*
X189206266Y-109467656D01*
X189175237Y-109477068D01*
X189140124Y-109492702D01*
X189085255Y-109504364D01*
X189037359Y-109518894D01*
X188999232Y-109522649D01*
X188955880Y-109531864D01*
X188905673Y-109531864D01*
X188861700Y-109536195D01*
X188817727Y-109531864D01*
X188767520Y-109531864D01*
X188724167Y-109522649D01*
X188686040Y-109518894D01*
X188638141Y-109504363D01*
X188583276Y-109492702D01*
X188548164Y-109477069D01*
X188517133Y-109467656D01*
X188467820Y-109441298D01*
X188411200Y-109416089D01*
X188384875Y-109396963D01*
X188361467Y-109384451D01*
X188313713Y-109345260D01*
X188258813Y-109305373D01*
X188240987Y-109285576D01*
X188225024Y-109272475D01*
X188182125Y-109220202D01*
X188132776Y-109165395D01*
X188122408Y-109147437D01*
X188113048Y-109136032D01*
X188078419Y-109071247D01*
X188038596Y-109002270D01*
X188034015Y-108988171D01*
X188029843Y-108980366D01*
X188006836Y-108904525D01*
X187980389Y-108823128D01*
X187979458Y-108814271D01*
X187978605Y-108811459D01*
X187970300Y-108727142D01*
X187960700Y-108635800D01*
X187970299Y-108544464D01*
X187978605Y-108460140D01*
X187979458Y-108457327D01*
X187980389Y-108448472D01*
X188006832Y-108367088D01*
X188029843Y-108291233D01*
X188034015Y-108283426D01*
X188038596Y-108269330D01*
X188078412Y-108200365D01*
X188113048Y-108135567D01*
X188122410Y-108124159D01*
X188132776Y-108106205D01*
X188182116Y-108051407D01*
X188225024Y-107999124D01*
X188240991Y-107986019D01*
X188258813Y-107966227D01*
X188313702Y-107926346D01*
X188361467Y-107887148D01*
X188384880Y-107874633D01*
X188411200Y-107855511D01*
X188467809Y-107830306D01*
X188517133Y-107803943D01*
X188548171Y-107794527D01*
X188583276Y-107778898D01*
X188638130Y-107767238D01*
X188686040Y-107752705D01*
X188724176Y-107748948D01*
X188767520Y-107739736D01*
X188817716Y-107739736D01*
X188861700Y-107735404D01*
X188905683Y-107739736D01*
G37*
G36*
X191445683Y-107739736D02*
G01*
X191495880Y-107739736D01*
X191539224Y-107748949D01*
X191577359Y-107752705D01*
X191625266Y-107767237D01*
X191680124Y-107778898D01*
X191715230Y-107794528D01*
X191746266Y-107803943D01*
X191795584Y-107830304D01*
X191852200Y-107855511D01*
X191878522Y-107874635D01*
X191901932Y-107887148D01*
X191949688Y-107926340D01*
X192004587Y-107966227D01*
X192022411Y-107986023D01*
X192038375Y-107999124D01*
X192081272Y-108051394D01*
X192130624Y-108106205D01*
X192140992Y-108124163D01*
X192150351Y-108135567D01*
X192184973Y-108200342D01*
X192224804Y-108269330D01*
X192229385Y-108283430D01*
X192233556Y-108291233D01*
X192256552Y-108367042D01*
X192283011Y-108448472D01*
X192283942Y-108457332D01*
X192284794Y-108460140D01*
X192293084Y-108544313D01*
X192302700Y-108635800D01*
X192293083Y-108727294D01*
X192284794Y-108811459D01*
X192283942Y-108814266D01*
X192283011Y-108823128D01*
X192256548Y-108904571D01*
X192233556Y-108980366D01*
X192229386Y-108988166D01*
X192224804Y-109002270D01*
X192184966Y-109071270D01*
X192150351Y-109136032D01*
X192140994Y-109147433D01*
X192130624Y-109165395D01*
X192081263Y-109220215D01*
X192038375Y-109272475D01*
X192022414Y-109285573D01*
X192004587Y-109305373D01*
X191949677Y-109345267D01*
X191901932Y-109384451D01*
X191878527Y-109396961D01*
X191852200Y-109416089D01*
X191795573Y-109441300D01*
X191746266Y-109467656D01*
X191715237Y-109477068D01*
X191680124Y-109492702D01*
X191625255Y-109504364D01*
X191577359Y-109518894D01*
X191539232Y-109522649D01*
X191495880Y-109531864D01*
X191445673Y-109531864D01*
X191401700Y-109536195D01*
X191357727Y-109531864D01*
X191307520Y-109531864D01*
X191264167Y-109522649D01*
X191226040Y-109518894D01*
X191178141Y-109504363D01*
X191123276Y-109492702D01*
X191088164Y-109477069D01*
X191057133Y-109467656D01*
X191007820Y-109441298D01*
X190951200Y-109416089D01*
X190924875Y-109396963D01*
X190901467Y-109384451D01*
X190853713Y-109345260D01*
X190798813Y-109305373D01*
X190780987Y-109285576D01*
X190765024Y-109272475D01*
X190722125Y-109220202D01*
X190672776Y-109165395D01*
X190662408Y-109147437D01*
X190653048Y-109136032D01*
X190618419Y-109071247D01*
X190578596Y-109002270D01*
X190574015Y-108988171D01*
X190569843Y-108980366D01*
X190546836Y-108904525D01*
X190520389Y-108823128D01*
X190519458Y-108814271D01*
X190518605Y-108811459D01*
X190510300Y-108727142D01*
X190500700Y-108635800D01*
X190510299Y-108544464D01*
X190518605Y-108460140D01*
X190519458Y-108457327D01*
X190520389Y-108448472D01*
X190546832Y-108367088D01*
X190569843Y-108291233D01*
X190574015Y-108283426D01*
X190578596Y-108269330D01*
X190618412Y-108200365D01*
X190653048Y-108135567D01*
X190662410Y-108124159D01*
X190672776Y-108106205D01*
X190722116Y-108051407D01*
X190765024Y-107999124D01*
X190780991Y-107986019D01*
X190798813Y-107966227D01*
X190853702Y-107926346D01*
X190901467Y-107887148D01*
X190924880Y-107874633D01*
X190951200Y-107855511D01*
X191007809Y-107830306D01*
X191057133Y-107803943D01*
X191088171Y-107794527D01*
X191123276Y-107778898D01*
X191178130Y-107767238D01*
X191226040Y-107752705D01*
X191264176Y-107748948D01*
X191307520Y-107739736D01*
X191357716Y-107739736D01*
X191401700Y-107735404D01*
X191445683Y-107739736D01*
G37*
G36*
X200589683Y-107739736D02*
G01*
X200639880Y-107739736D01*
X200683224Y-107748949D01*
X200721359Y-107752705D01*
X200769266Y-107767237D01*
X200824124Y-107778898D01*
X200859230Y-107794528D01*
X200890266Y-107803943D01*
X200939584Y-107830304D01*
X200996200Y-107855511D01*
X201022522Y-107874635D01*
X201045932Y-107887148D01*
X201093688Y-107926340D01*
X201148587Y-107966227D01*
X201166411Y-107986023D01*
X201182375Y-107999124D01*
X201225272Y-108051394D01*
X201274624Y-108106205D01*
X201284992Y-108124163D01*
X201294351Y-108135567D01*
X201328973Y-108200342D01*
X201368804Y-108269330D01*
X201373385Y-108283430D01*
X201377556Y-108291233D01*
X201400552Y-108367042D01*
X201427011Y-108448472D01*
X201427942Y-108457332D01*
X201428794Y-108460140D01*
X201437084Y-108544313D01*
X201446700Y-108635800D01*
X201437083Y-108727294D01*
X201428794Y-108811459D01*
X201427942Y-108814266D01*
X201427011Y-108823128D01*
X201400548Y-108904571D01*
X201377556Y-108980366D01*
X201373386Y-108988166D01*
X201368804Y-109002270D01*
X201328966Y-109071270D01*
X201294351Y-109136032D01*
X201284994Y-109147433D01*
X201274624Y-109165395D01*
X201225263Y-109220215D01*
X201182375Y-109272475D01*
X201166414Y-109285573D01*
X201148587Y-109305373D01*
X201093677Y-109345267D01*
X201045932Y-109384451D01*
X201022527Y-109396961D01*
X200996200Y-109416089D01*
X200939573Y-109441300D01*
X200890266Y-109467656D01*
X200859237Y-109477068D01*
X200824124Y-109492702D01*
X200769255Y-109504364D01*
X200721359Y-109518894D01*
X200683232Y-109522649D01*
X200639880Y-109531864D01*
X200589673Y-109531864D01*
X200545700Y-109536195D01*
X200501727Y-109531864D01*
X200451520Y-109531864D01*
X200408167Y-109522649D01*
X200370040Y-109518894D01*
X200322141Y-109504363D01*
X200267276Y-109492702D01*
X200232164Y-109477069D01*
X200201133Y-109467656D01*
X200151820Y-109441298D01*
X200095200Y-109416089D01*
X200068875Y-109396963D01*
X200045467Y-109384451D01*
X199997713Y-109345260D01*
X199942813Y-109305373D01*
X199924987Y-109285576D01*
X199909024Y-109272475D01*
X199866125Y-109220202D01*
X199816776Y-109165395D01*
X199806408Y-109147437D01*
X199797048Y-109136032D01*
X199762419Y-109071247D01*
X199722596Y-109002270D01*
X199718015Y-108988171D01*
X199713843Y-108980366D01*
X199690836Y-108904525D01*
X199664389Y-108823128D01*
X199663458Y-108814271D01*
X199662605Y-108811459D01*
X199654300Y-108727142D01*
X199644700Y-108635800D01*
X199654299Y-108544464D01*
X199662605Y-108460140D01*
X199663458Y-108457327D01*
X199664389Y-108448472D01*
X199690832Y-108367088D01*
X199713843Y-108291233D01*
X199718015Y-108283426D01*
X199722596Y-108269330D01*
X199762412Y-108200365D01*
X199797048Y-108135567D01*
X199806410Y-108124159D01*
X199816776Y-108106205D01*
X199866116Y-108051407D01*
X199909024Y-107999124D01*
X199924991Y-107986019D01*
X199942813Y-107966227D01*
X199997702Y-107926346D01*
X200045467Y-107887148D01*
X200068880Y-107874633D01*
X200095200Y-107855511D01*
X200151809Y-107830306D01*
X200201133Y-107803943D01*
X200232171Y-107794527D01*
X200267276Y-107778898D01*
X200322130Y-107767238D01*
X200370040Y-107752705D01*
X200408176Y-107748948D01*
X200451520Y-107739736D01*
X200501716Y-107739736D01*
X200545700Y-107735404D01*
X200589683Y-107739736D01*
G37*
G36*
X203129683Y-107739736D02*
G01*
X203179880Y-107739736D01*
X203223224Y-107748949D01*
X203261359Y-107752705D01*
X203309266Y-107767237D01*
X203364124Y-107778898D01*
X203399230Y-107794528D01*
X203430266Y-107803943D01*
X203479584Y-107830304D01*
X203536200Y-107855511D01*
X203562522Y-107874635D01*
X203585932Y-107887148D01*
X203633688Y-107926340D01*
X203688587Y-107966227D01*
X203706411Y-107986023D01*
X203722375Y-107999124D01*
X203765272Y-108051394D01*
X203814624Y-108106205D01*
X203824992Y-108124163D01*
X203834351Y-108135567D01*
X203868973Y-108200342D01*
X203908804Y-108269330D01*
X203913385Y-108283430D01*
X203917556Y-108291233D01*
X203940552Y-108367042D01*
X203967011Y-108448472D01*
X203967942Y-108457332D01*
X203968794Y-108460140D01*
X203977084Y-108544313D01*
X203986700Y-108635800D01*
X203977083Y-108727294D01*
X203968794Y-108811459D01*
X203967942Y-108814266D01*
X203967011Y-108823128D01*
X203940548Y-108904571D01*
X203917556Y-108980366D01*
X203913386Y-108988166D01*
X203908804Y-109002270D01*
X203868966Y-109071270D01*
X203834351Y-109136032D01*
X203824994Y-109147433D01*
X203814624Y-109165395D01*
X203765263Y-109220215D01*
X203722375Y-109272475D01*
X203706414Y-109285573D01*
X203688587Y-109305373D01*
X203633677Y-109345267D01*
X203585932Y-109384451D01*
X203562527Y-109396961D01*
X203536200Y-109416089D01*
X203479573Y-109441300D01*
X203430266Y-109467656D01*
X203399237Y-109477068D01*
X203364124Y-109492702D01*
X203309255Y-109504364D01*
X203261359Y-109518894D01*
X203223232Y-109522649D01*
X203179880Y-109531864D01*
X203129673Y-109531864D01*
X203085700Y-109536195D01*
X203041727Y-109531864D01*
X202991520Y-109531864D01*
X202948167Y-109522649D01*
X202910040Y-109518894D01*
X202862141Y-109504363D01*
X202807276Y-109492702D01*
X202772164Y-109477069D01*
X202741133Y-109467656D01*
X202691820Y-109441298D01*
X202635200Y-109416089D01*
X202608875Y-109396963D01*
X202585467Y-109384451D01*
X202537713Y-109345260D01*
X202482813Y-109305373D01*
X202464987Y-109285576D01*
X202449024Y-109272475D01*
X202406125Y-109220202D01*
X202356776Y-109165395D01*
X202346408Y-109147437D01*
X202337048Y-109136032D01*
X202302419Y-109071247D01*
X202262596Y-109002270D01*
X202258015Y-108988171D01*
X202253843Y-108980366D01*
X202230836Y-108904525D01*
X202204389Y-108823128D01*
X202203458Y-108814271D01*
X202202605Y-108811459D01*
X202194300Y-108727142D01*
X202184700Y-108635800D01*
X202194299Y-108544464D01*
X202202605Y-108460140D01*
X202203458Y-108457327D01*
X202204389Y-108448472D01*
X202230832Y-108367088D01*
X202253843Y-108291233D01*
X202258015Y-108283426D01*
X202262596Y-108269330D01*
X202302412Y-108200365D01*
X202337048Y-108135567D01*
X202346410Y-108124159D01*
X202356776Y-108106205D01*
X202406116Y-108051407D01*
X202449024Y-107999124D01*
X202464991Y-107986019D01*
X202482813Y-107966227D01*
X202537702Y-107926346D01*
X202585467Y-107887148D01*
X202608880Y-107874633D01*
X202635200Y-107855511D01*
X202691809Y-107830306D01*
X202741133Y-107803943D01*
X202772171Y-107794527D01*
X202807276Y-107778898D01*
X202862130Y-107767238D01*
X202910040Y-107752705D01*
X202948176Y-107748948D01*
X202991520Y-107739736D01*
X203041716Y-107739736D01*
X203085700Y-107735404D01*
X203129683Y-107739736D01*
G37*
G36*
X205669683Y-107739736D02*
G01*
X205719880Y-107739736D01*
X205763224Y-107748949D01*
X205801359Y-107752705D01*
X205849266Y-107767237D01*
X205904124Y-107778898D01*
X205939230Y-107794528D01*
X205970266Y-107803943D01*
X206019584Y-107830304D01*
X206076200Y-107855511D01*
X206102522Y-107874635D01*
X206125932Y-107887148D01*
X206173688Y-107926340D01*
X206228587Y-107966227D01*
X206246411Y-107986023D01*
X206262375Y-107999124D01*
X206305272Y-108051394D01*
X206354624Y-108106205D01*
X206364992Y-108124163D01*
X206374351Y-108135567D01*
X206408973Y-108200342D01*
X206448804Y-108269330D01*
X206453385Y-108283430D01*
X206457556Y-108291233D01*
X206480552Y-108367042D01*
X206507011Y-108448472D01*
X206507942Y-108457332D01*
X206508794Y-108460140D01*
X206517084Y-108544313D01*
X206526700Y-108635800D01*
X206517083Y-108727294D01*
X206508794Y-108811459D01*
X206507942Y-108814266D01*
X206507011Y-108823128D01*
X206480548Y-108904571D01*
X206457556Y-108980366D01*
X206453386Y-108988166D01*
X206448804Y-109002270D01*
X206408966Y-109071270D01*
X206374351Y-109136032D01*
X206364994Y-109147433D01*
X206354624Y-109165395D01*
X206305263Y-109220215D01*
X206262375Y-109272475D01*
X206246414Y-109285573D01*
X206228587Y-109305373D01*
X206173677Y-109345267D01*
X206125932Y-109384451D01*
X206102527Y-109396961D01*
X206076200Y-109416089D01*
X206019573Y-109441300D01*
X205970266Y-109467656D01*
X205939237Y-109477068D01*
X205904124Y-109492702D01*
X205849255Y-109504364D01*
X205801359Y-109518894D01*
X205763232Y-109522649D01*
X205719880Y-109531864D01*
X205669673Y-109531864D01*
X205625700Y-109536195D01*
X205581727Y-109531864D01*
X205531520Y-109531864D01*
X205488167Y-109522649D01*
X205450040Y-109518894D01*
X205402141Y-109504363D01*
X205347276Y-109492702D01*
X205312164Y-109477069D01*
X205281133Y-109467656D01*
X205231820Y-109441298D01*
X205175200Y-109416089D01*
X205148875Y-109396963D01*
X205125467Y-109384451D01*
X205077713Y-109345260D01*
X205022813Y-109305373D01*
X205004987Y-109285576D01*
X204989024Y-109272475D01*
X204946125Y-109220202D01*
X204896776Y-109165395D01*
X204886408Y-109147437D01*
X204877048Y-109136032D01*
X204842419Y-109071247D01*
X204802596Y-109002270D01*
X204798015Y-108988171D01*
X204793843Y-108980366D01*
X204770836Y-108904525D01*
X204744389Y-108823128D01*
X204743458Y-108814271D01*
X204742605Y-108811459D01*
X204734300Y-108727142D01*
X204724700Y-108635800D01*
X204734299Y-108544464D01*
X204742605Y-108460140D01*
X204743458Y-108457327D01*
X204744389Y-108448472D01*
X204770832Y-108367088D01*
X204793843Y-108291233D01*
X204798015Y-108283426D01*
X204802596Y-108269330D01*
X204842412Y-108200365D01*
X204877048Y-108135567D01*
X204886410Y-108124159D01*
X204896776Y-108106205D01*
X204946116Y-108051407D01*
X204989024Y-107999124D01*
X205004991Y-107986019D01*
X205022813Y-107966227D01*
X205077702Y-107926346D01*
X205125467Y-107887148D01*
X205148880Y-107874633D01*
X205175200Y-107855511D01*
X205231809Y-107830306D01*
X205281133Y-107803943D01*
X205312171Y-107794527D01*
X205347276Y-107778898D01*
X205402130Y-107767238D01*
X205450040Y-107752705D01*
X205488176Y-107748948D01*
X205531520Y-107739736D01*
X205581716Y-107739736D01*
X205625700Y-107735404D01*
X205669683Y-107739736D01*
G37*
G36*
X193919817Y-99435282D02*
G01*
X193936362Y-99446338D01*
X193947418Y-99462883D01*
X193951300Y-99482400D01*
X193951300Y-101482400D01*
X193947418Y-101501917D01*
X193936362Y-101518462D01*
X193919817Y-101529518D01*
X193900300Y-101533400D01*
X191900300Y-101533400D01*
X191880783Y-101529518D01*
X191864238Y-101518462D01*
X191853182Y-101501917D01*
X191849300Y-101482400D01*
X191849300Y-99482400D01*
X191853182Y-99462883D01*
X191864238Y-99446338D01*
X191880783Y-99435282D01*
X191900300Y-99431400D01*
X193900300Y-99431400D01*
X193919817Y-99435282D01*
G37*
G36*
X195687332Y-99468044D02*
G01*
X195841459Y-99531885D01*
X195980169Y-99624568D01*
X196098132Y-99742531D01*
X196190815Y-99881241D01*
X196254656Y-100035368D01*
X196287202Y-100198987D01*
X196291300Y-100282400D01*
X196291300Y-100682400D01*
X196287202Y-100765813D01*
X196254656Y-100929432D01*
X196190815Y-101083559D01*
X196098132Y-101222269D01*
X195980169Y-101340232D01*
X195841459Y-101432915D01*
X195687332Y-101496756D01*
X195523713Y-101529302D01*
X195356887Y-101529302D01*
X195193268Y-101496756D01*
X195039141Y-101432915D01*
X194900431Y-101340232D01*
X194782468Y-101222269D01*
X194689785Y-101083559D01*
X194625944Y-100929432D01*
X194593398Y-100765813D01*
X194589300Y-100682400D01*
X194589300Y-100282400D01*
X194593398Y-100198987D01*
X194625944Y-100035368D01*
X194689785Y-99881241D01*
X194782468Y-99742531D01*
X194900431Y-99624568D01*
X195039141Y-99531885D01*
X195193268Y-99468044D01*
X195356887Y-99435498D01*
X195523713Y-99435498D01*
X195687332Y-99468044D01*
G37*
G36*
X198227332Y-99468044D02*
G01*
X198381459Y-99531885D01*
X198520169Y-99624568D01*
X198638132Y-99742531D01*
X198730815Y-99881241D01*
X198794656Y-100035368D01*
X198827202Y-100198987D01*
X198831300Y-100282400D01*
X198831300Y-100682400D01*
X198827202Y-100765813D01*
X198794656Y-100929432D01*
X198730815Y-101083559D01*
X198638132Y-101222269D01*
X198520169Y-101340232D01*
X198381459Y-101432915D01*
X198227332Y-101496756D01*
X198063713Y-101529302D01*
X197896887Y-101529302D01*
X197733268Y-101496756D01*
X197579141Y-101432915D01*
X197440431Y-101340232D01*
X197322468Y-101222269D01*
X197229785Y-101083559D01*
X197165944Y-100929432D01*
X197133398Y-100765813D01*
X197129300Y-100682400D01*
X197129300Y-100282400D01*
X197133398Y-100198987D01*
X197165944Y-100035368D01*
X197229785Y-99881241D01*
X197322468Y-99742531D01*
X197440431Y-99624568D01*
X197579141Y-99531885D01*
X197733268Y-99468044D01*
X197896887Y-99435498D01*
X198063713Y-99435498D01*
X198227332Y-99468044D01*
G37*
G36*
X200767332Y-99468044D02*
G01*
X200921459Y-99531885D01*
X201060169Y-99624568D01*
X201178132Y-99742531D01*
X201270815Y-99881241D01*
X201334656Y-100035368D01*
X201367202Y-100198987D01*
X201371300Y-100282400D01*
X201371300Y-100682400D01*
X201367202Y-100765813D01*
X201334656Y-100929432D01*
X201270815Y-101083559D01*
X201178132Y-101222269D01*
X201060169Y-101340232D01*
X200921459Y-101432915D01*
X200767332Y-101496756D01*
X200603713Y-101529302D01*
X200436887Y-101529302D01*
X200273268Y-101496756D01*
X200119141Y-101432915D01*
X199980431Y-101340232D01*
X199862468Y-101222269D01*
X199769785Y-101083559D01*
X199705944Y-100929432D01*
X199673398Y-100765813D01*
X199669300Y-100682400D01*
X199669300Y-100282400D01*
X199673398Y-100198987D01*
X199705944Y-100035368D01*
X199769785Y-99881241D01*
X199862468Y-99742531D01*
X199980431Y-99624568D01*
X200119141Y-99531885D01*
X200273268Y-99468044D01*
X200436887Y-99435498D01*
X200603713Y-99435498D01*
X200767332Y-99468044D01*
G37*
G36*
X203307332Y-99468044D02*
G01*
X203461459Y-99531885D01*
X203600169Y-99624568D01*
X203718132Y-99742531D01*
X203810815Y-99881241D01*
X203874656Y-100035368D01*
X203907202Y-100198987D01*
X203911300Y-100282400D01*
X203911300Y-100682400D01*
X203907202Y-100765813D01*
X203874656Y-100929432D01*
X203810815Y-101083559D01*
X203718132Y-101222269D01*
X203600169Y-101340232D01*
X203461459Y-101432915D01*
X203307332Y-101496756D01*
X203143713Y-101529302D01*
X202976887Y-101529302D01*
X202813268Y-101496756D01*
X202659141Y-101432915D01*
X202520431Y-101340232D01*
X202402468Y-101222269D01*
X202309785Y-101083559D01*
X202245944Y-100929432D01*
X202213398Y-100765813D01*
X202209300Y-100682400D01*
X202209300Y-100282400D01*
X202213398Y-100198987D01*
X202245944Y-100035368D01*
X202309785Y-99881241D01*
X202402468Y-99742531D01*
X202520431Y-99624568D01*
X202659141Y-99531885D01*
X202813268Y-99468044D01*
X202976887Y-99435498D01*
X203143713Y-99435498D01*
X203307332Y-99468044D01*
G37*
G36*
X205847332Y-99468044D02*
G01*
X206001459Y-99531885D01*
X206140169Y-99624568D01*
X206258132Y-99742531D01*
X206350815Y-99881241D01*
X206414656Y-100035368D01*
X206447202Y-100198987D01*
X206451300Y-100282400D01*
X206451300Y-100682400D01*
X206447202Y-100765813D01*
X206414656Y-100929432D01*
X206350815Y-101083559D01*
X206258132Y-101222269D01*
X206140169Y-101340232D01*
X206001459Y-101432915D01*
X205847332Y-101496756D01*
X205683713Y-101529302D01*
X205516887Y-101529302D01*
X205353268Y-101496756D01*
X205199141Y-101432915D01*
X205060431Y-101340232D01*
X204942468Y-101222269D01*
X204849785Y-101083559D01*
X204785944Y-100929432D01*
X204753398Y-100765813D01*
X204749300Y-100682400D01*
X204749300Y-100282400D01*
X204753398Y-100198987D01*
X204785944Y-100035368D01*
X204849785Y-99881241D01*
X204942468Y-99742531D01*
X205060431Y-99624568D01*
X205199141Y-99531885D01*
X205353268Y-99468044D01*
X205516887Y-99435498D01*
X205683713Y-99435498D01*
X205847332Y-99468044D01*
G37*
G36*
X208387332Y-99468044D02*
G01*
X208541459Y-99531885D01*
X208680169Y-99624568D01*
X208798132Y-99742531D01*
X208890815Y-99881241D01*
X208954656Y-100035368D01*
X208987202Y-100198987D01*
X208991300Y-100282400D01*
X208991300Y-100682400D01*
X208987202Y-100765813D01*
X208954656Y-100929432D01*
X208890815Y-101083559D01*
X208798132Y-101222269D01*
X208680169Y-101340232D01*
X208541459Y-101432915D01*
X208387332Y-101496756D01*
X208223713Y-101529302D01*
X208056887Y-101529302D01*
X207893268Y-101496756D01*
X207739141Y-101432915D01*
X207600431Y-101340232D01*
X207482468Y-101222269D01*
X207389785Y-101083559D01*
X207325944Y-100929432D01*
X207293398Y-100765813D01*
X207289300Y-100682400D01*
X207289300Y-100282400D01*
X207293398Y-100198987D01*
X207325944Y-100035368D01*
X207389785Y-99881241D01*
X207482468Y-99742531D01*
X207600431Y-99624568D01*
X207739141Y-99531885D01*
X207893268Y-99468044D01*
X208056887Y-99435498D01*
X208223713Y-99435498D01*
X208387332Y-99468044D01*
G37*
G36*
X210927332Y-99468044D02*
G01*
X211081459Y-99531885D01*
X211220169Y-99624568D01*
X211338132Y-99742531D01*
X211430815Y-99881241D01*
X211494656Y-100035368D01*
X211527202Y-100198987D01*
X211531300Y-100282400D01*
X211531300Y-100682400D01*
X211527202Y-100765813D01*
X211494656Y-100929432D01*
X211430815Y-101083559D01*
X211338132Y-101222269D01*
X211220169Y-101340232D01*
X211081459Y-101432915D01*
X210927332Y-101496756D01*
X210763713Y-101529302D01*
X210596887Y-101529302D01*
X210433268Y-101496756D01*
X210279141Y-101432915D01*
X210140431Y-101340232D01*
X210022468Y-101222269D01*
X209929785Y-101083559D01*
X209865944Y-100929432D01*
X209833398Y-100765813D01*
X209829300Y-100682400D01*
X209829300Y-100282400D01*
X209833398Y-100198987D01*
X209865944Y-100035368D01*
X209929785Y-99881241D01*
X210022468Y-99742531D01*
X210140431Y-99624568D01*
X210279141Y-99531885D01*
X210433268Y-99468044D01*
X210596887Y-99435498D01*
X210763713Y-99435498D01*
X210927332Y-99468044D01*
G37*
G36*
X115285283Y-97911594D02*
G01*
X115455923Y-97938621D01*
X115620234Y-97992009D01*
X115774171Y-98070443D01*
X115913942Y-98171993D01*
X116036107Y-98294158D01*
X116137657Y-98433929D01*
X116216091Y-98587866D01*
X116269479Y-98752177D01*
X116296506Y-98922817D01*
X116296506Y-99095583D01*
X116269479Y-99266223D01*
X116216091Y-99430534D01*
X116137657Y-99584471D01*
X116036107Y-99724242D01*
X115913942Y-99846407D01*
X115774171Y-99947957D01*
X115620234Y-100026391D01*
X115455923Y-100079779D01*
X115285283Y-100106806D01*
X115198900Y-100110200D01*
X115196437Y-100110200D01*
X111751363Y-100110200D01*
X111748900Y-100110200D01*
X111662517Y-100106806D01*
X111491877Y-100079779D01*
X111327566Y-100026391D01*
X111173629Y-99947957D01*
X111033858Y-99846407D01*
X110911693Y-99724242D01*
X110810143Y-99584471D01*
X110731709Y-99430534D01*
X110678321Y-99266223D01*
X110651294Y-99095583D01*
X110651294Y-98922817D01*
X110678321Y-98752177D01*
X110731709Y-98587866D01*
X110810143Y-98433929D01*
X110911693Y-98294158D01*
X111033858Y-98171993D01*
X111173629Y-98070443D01*
X111327566Y-97992009D01*
X111491877Y-97938621D01*
X111662517Y-97911594D01*
X111748900Y-97908200D01*
X115198900Y-97908200D01*
X115285283Y-97911594D01*
G37*
G36*
X123185283Y-97911594D02*
G01*
X123355923Y-97938621D01*
X123520234Y-97992009D01*
X123674171Y-98070443D01*
X123813942Y-98171993D01*
X123936107Y-98294158D01*
X124037657Y-98433929D01*
X124116091Y-98587866D01*
X124169479Y-98752177D01*
X124196506Y-98922817D01*
X124196506Y-99095583D01*
X124169479Y-99266223D01*
X124116091Y-99430534D01*
X124037657Y-99584471D01*
X123936107Y-99724242D01*
X123813942Y-99846407D01*
X123674171Y-99947957D01*
X123520234Y-100026391D01*
X123355923Y-100079779D01*
X123185283Y-100106806D01*
X123098900Y-100110200D01*
X123096437Y-100110200D01*
X119651363Y-100110200D01*
X119648900Y-100110200D01*
X119562517Y-100106806D01*
X119391877Y-100079779D01*
X119227566Y-100026391D01*
X119073629Y-99947957D01*
X118933858Y-99846407D01*
X118811693Y-99724242D01*
X118710143Y-99584471D01*
X118631709Y-99430534D01*
X118578321Y-99266223D01*
X118551294Y-99095583D01*
X118551294Y-98922817D01*
X118578321Y-98752177D01*
X118631709Y-98587866D01*
X118710143Y-98433929D01*
X118811693Y-98294158D01*
X118933858Y-98171993D01*
X119073629Y-98070443D01*
X119227566Y-97992009D01*
X119391877Y-97938621D01*
X119562517Y-97911594D01*
X119648900Y-97908200D01*
X123098900Y-97908200D01*
X123185283Y-97911594D01*
G37*
G36*
X89555683Y-97860794D02*
G01*
X89726323Y-97887821D01*
X89890634Y-97941209D01*
X90044571Y-98019643D01*
X90184342Y-98121193D01*
X90306507Y-98243358D01*
X90408057Y-98383129D01*
X90486491Y-98537066D01*
X90539879Y-98701377D01*
X90566906Y-98872017D01*
X90566906Y-99044783D01*
X90539879Y-99215423D01*
X90486491Y-99379734D01*
X90408057Y-99533671D01*
X90306507Y-99673442D01*
X90184342Y-99795607D01*
X90044571Y-99897157D01*
X89890634Y-99975591D01*
X89726323Y-100028979D01*
X89555683Y-100056006D01*
X89469300Y-100059400D01*
X89466837Y-100059400D01*
X86021763Y-100059400D01*
X86019300Y-100059400D01*
X85932917Y-100056006D01*
X85762277Y-100028979D01*
X85597966Y-99975591D01*
X85444029Y-99897157D01*
X85304258Y-99795607D01*
X85182093Y-99673442D01*
X85080543Y-99533671D01*
X85002109Y-99379734D01*
X84948721Y-99215423D01*
X84921694Y-99044783D01*
X84921694Y-98872017D01*
X84948721Y-98701377D01*
X85002109Y-98537066D01*
X85080543Y-98383129D01*
X85182093Y-98243358D01*
X85304258Y-98121193D01*
X85444029Y-98019643D01*
X85597966Y-97941209D01*
X85762277Y-97887821D01*
X85932917Y-97860794D01*
X86019300Y-97857400D01*
X89469300Y-97857400D01*
X89555683Y-97860794D01*
G37*
G36*
X97455683Y-97860794D02*
G01*
X97626323Y-97887821D01*
X97790634Y-97941209D01*
X97944571Y-98019643D01*
X98084342Y-98121193D01*
X98206507Y-98243358D01*
X98308057Y-98383129D01*
X98386491Y-98537066D01*
X98439879Y-98701377D01*
X98466906Y-98872017D01*
X98466906Y-99044783D01*
X98439879Y-99215423D01*
X98386491Y-99379734D01*
X98308057Y-99533671D01*
X98206507Y-99673442D01*
X98084342Y-99795607D01*
X97944571Y-99897157D01*
X97790634Y-99975591D01*
X97626323Y-100028979D01*
X97455683Y-100056006D01*
X97369300Y-100059400D01*
X97366837Y-100059400D01*
X93921763Y-100059400D01*
X93919300Y-100059400D01*
X93832917Y-100056006D01*
X93662277Y-100028979D01*
X93497966Y-99975591D01*
X93344029Y-99897157D01*
X93204258Y-99795607D01*
X93082093Y-99673442D01*
X92980543Y-99533671D01*
X92902109Y-99379734D01*
X92848721Y-99215423D01*
X92821694Y-99044783D01*
X92821694Y-98872017D01*
X92848721Y-98701377D01*
X92902109Y-98537066D01*
X92980543Y-98383129D01*
X93082093Y-98243358D01*
X93204258Y-98121193D01*
X93344029Y-98019643D01*
X93497966Y-97941209D01*
X93662277Y-97887821D01*
X93832917Y-97860794D01*
X93919300Y-97857400D01*
X97369300Y-97857400D01*
X97455683Y-97860794D01*
G37*
G36*
X140710683Y-97860794D02*
G01*
X140881323Y-97887821D01*
X141045634Y-97941209D01*
X141199571Y-98019643D01*
X141339342Y-98121193D01*
X141461507Y-98243358D01*
X141563057Y-98383129D01*
X141641491Y-98537066D01*
X141694879Y-98701377D01*
X141721906Y-98872017D01*
X141721906Y-99044783D01*
X141694879Y-99215423D01*
X141641491Y-99379734D01*
X141563057Y-99533671D01*
X141461507Y-99673442D01*
X141339342Y-99795607D01*
X141199571Y-99897157D01*
X141045634Y-99975591D01*
X140881323Y-100028979D01*
X140710683Y-100056006D01*
X140624300Y-100059400D01*
X140621837Y-100059400D01*
X137176763Y-100059400D01*
X137174300Y-100059400D01*
X137087917Y-100056006D01*
X136917277Y-100028979D01*
X136752966Y-99975591D01*
X136599029Y-99897157D01*
X136459258Y-99795607D01*
X136337093Y-99673442D01*
X136235543Y-99533671D01*
X136157109Y-99379734D01*
X136103721Y-99215423D01*
X136076694Y-99044783D01*
X136076694Y-98872017D01*
X136103721Y-98701377D01*
X136157109Y-98537066D01*
X136235543Y-98383129D01*
X136337093Y-98243358D01*
X136459258Y-98121193D01*
X136599029Y-98019643D01*
X136752966Y-97941209D01*
X136917277Y-97887821D01*
X137087917Y-97860794D01*
X137174300Y-97857400D01*
X140624300Y-97857400D01*
X140710683Y-97860794D01*
G37*
G36*
X148610683Y-97860794D02*
G01*
X148781323Y-97887821D01*
X148945634Y-97941209D01*
X149099571Y-98019643D01*
X149239342Y-98121193D01*
X149361507Y-98243358D01*
X149463057Y-98383129D01*
X149541491Y-98537066D01*
X149594879Y-98701377D01*
X149621906Y-98872017D01*
X149621906Y-99044783D01*
X149594879Y-99215423D01*
X149541491Y-99379734D01*
X149463057Y-99533671D01*
X149361507Y-99673442D01*
X149239342Y-99795607D01*
X149099571Y-99897157D01*
X148945634Y-99975591D01*
X148781323Y-100028979D01*
X148610683Y-100056006D01*
X148524300Y-100059400D01*
X148521837Y-100059400D01*
X145076763Y-100059400D01*
X145074300Y-100059400D01*
X144987917Y-100056006D01*
X144817277Y-100028979D01*
X144652966Y-99975591D01*
X144499029Y-99897157D01*
X144359258Y-99795607D01*
X144237093Y-99673442D01*
X144135543Y-99533671D01*
X144057109Y-99379734D01*
X144003721Y-99215423D01*
X143976694Y-99044783D01*
X143976694Y-98872017D01*
X144003721Y-98701377D01*
X144057109Y-98537066D01*
X144135543Y-98383129D01*
X144237093Y-98243358D01*
X144359258Y-98121193D01*
X144499029Y-98019643D01*
X144652966Y-97941209D01*
X144817277Y-97887821D01*
X144987917Y-97860794D01*
X145074300Y-97857400D01*
X148524300Y-97857400D01*
X148610683Y-97860794D01*
G37*
G36*
X166085283Y-97860794D02*
G01*
X166255923Y-97887821D01*
X166420234Y-97941209D01*
X166574171Y-98019643D01*
X166713942Y-98121193D01*
X166836107Y-98243358D01*
X166937657Y-98383129D01*
X167016091Y-98537066D01*
X167069479Y-98701377D01*
X167096506Y-98872017D01*
X167096506Y-99044783D01*
X167069479Y-99215423D01*
X167016091Y-99379734D01*
X166937657Y-99533671D01*
X166836107Y-99673442D01*
X166713942Y-99795607D01*
X166574171Y-99897157D01*
X166420234Y-99975591D01*
X166255923Y-100028979D01*
X166085283Y-100056006D01*
X165998900Y-100059400D01*
X165996437Y-100059400D01*
X162551363Y-100059400D01*
X162548900Y-100059400D01*
X162462517Y-100056006D01*
X162291877Y-100028979D01*
X162127566Y-99975591D01*
X161973629Y-99897157D01*
X161833858Y-99795607D01*
X161711693Y-99673442D01*
X161610143Y-99533671D01*
X161531709Y-99379734D01*
X161478321Y-99215423D01*
X161451294Y-99044783D01*
X161451294Y-98872017D01*
X161478321Y-98701377D01*
X161531709Y-98537066D01*
X161610143Y-98383129D01*
X161711693Y-98243358D01*
X161833858Y-98121193D01*
X161973629Y-98019643D01*
X162127566Y-97941209D01*
X162291877Y-97887821D01*
X162462517Y-97860794D01*
X162548900Y-97857400D01*
X165998900Y-97857400D01*
X166085283Y-97860794D01*
G37*
G36*
X173985283Y-97860794D02*
G01*
X174155923Y-97887821D01*
X174320234Y-97941209D01*
X174474171Y-98019643D01*
X174613942Y-98121193D01*
X174736107Y-98243358D01*
X174837657Y-98383129D01*
X174916091Y-98537066D01*
X174969479Y-98701377D01*
X174996506Y-98872017D01*
X174996506Y-99044783D01*
X174969479Y-99215423D01*
X174916091Y-99379734D01*
X174837657Y-99533671D01*
X174736107Y-99673442D01*
X174613942Y-99795607D01*
X174474171Y-99897157D01*
X174320234Y-99975591D01*
X174155923Y-100028979D01*
X173985283Y-100056006D01*
X173898900Y-100059400D01*
X173896437Y-100059400D01*
X170451363Y-100059400D01*
X170448900Y-100059400D01*
X170362517Y-100056006D01*
X170191877Y-100028979D01*
X170027566Y-99975591D01*
X169873629Y-99897157D01*
X169733858Y-99795607D01*
X169611693Y-99673442D01*
X169510143Y-99533671D01*
X169431709Y-99379734D01*
X169378321Y-99215423D01*
X169351294Y-99044783D01*
X169351294Y-98872017D01*
X169378321Y-98701377D01*
X169431709Y-98537066D01*
X169510143Y-98383129D01*
X169611693Y-98243358D01*
X169733858Y-98121193D01*
X169873629Y-98019643D01*
X170027566Y-97941209D01*
X170191877Y-97887821D01*
X170362517Y-97860794D01*
X170448900Y-97857400D01*
X173898900Y-97857400D01*
X173985283Y-97860794D01*
G37*
G36*
X140495415Y-91107395D02*
G01*
X140511226Y-91114376D01*
X140519033Y-91115613D01*
X140551554Y-91132183D01*
X140596606Y-91152076D01*
X140674824Y-91230294D01*
X140694719Y-91275353D01*
X140711286Y-91307866D01*
X140712522Y-91315670D01*
X140719505Y-91331485D01*
X140727499Y-91400400D01*
X140727499Y-91410229D01*
X140727500Y-91410236D01*
X140727500Y-92265163D01*
X140727500Y-92300401D01*
X140719505Y-92369315D01*
X140712521Y-92385129D01*
X140711286Y-92392933D01*
X140694723Y-92425439D01*
X140674824Y-92470506D01*
X140596606Y-92548724D01*
X140551539Y-92568623D01*
X140519033Y-92585186D01*
X140511229Y-92586421D01*
X140495415Y-92593405D01*
X140426500Y-92601399D01*
X140416670Y-92601399D01*
X140416664Y-92601400D01*
X137586336Y-92601400D01*
X137586335Y-92601399D01*
X137576499Y-92601400D01*
X137507585Y-92593405D01*
X137491770Y-92586422D01*
X137483966Y-92585186D01*
X137451453Y-92568619D01*
X137406394Y-92548724D01*
X137328176Y-92470506D01*
X137308283Y-92425454D01*
X137291713Y-92392933D01*
X137290476Y-92385126D01*
X137283495Y-92369315D01*
X137275501Y-92300400D01*
X137275500Y-92290569D01*
X137275500Y-92290563D01*
X137275500Y-91410236D01*
X137275500Y-91410235D01*
X137275500Y-91400399D01*
X137283495Y-91331485D01*
X137290476Y-91315673D01*
X137291713Y-91307866D01*
X137308286Y-91275338D01*
X137328176Y-91230294D01*
X137406394Y-91152076D01*
X137451438Y-91132186D01*
X137483966Y-91115613D01*
X137491773Y-91114376D01*
X137507585Y-91107395D01*
X137576500Y-91099401D01*
X137586329Y-91099400D01*
X137586336Y-91099400D01*
X140416664Y-91099400D01*
X140426501Y-91099400D01*
X140495415Y-91107395D01*
G37*
G36*
X165946215Y-91105395D02*
G01*
X165962026Y-91112376D01*
X165969833Y-91113613D01*
X166002354Y-91130183D01*
X166047406Y-91150076D01*
X166125624Y-91228294D01*
X166145519Y-91273353D01*
X166162086Y-91305866D01*
X166163322Y-91313670D01*
X166170305Y-91329485D01*
X166178299Y-91398400D01*
X166178299Y-91408229D01*
X166178300Y-91408236D01*
X166178300Y-92265163D01*
X166178300Y-92298401D01*
X166170305Y-92367315D01*
X166163321Y-92383129D01*
X166162086Y-92390933D01*
X166145523Y-92423439D01*
X166125624Y-92468506D01*
X166047406Y-92546724D01*
X166002339Y-92566623D01*
X165969833Y-92583186D01*
X165962029Y-92584421D01*
X165946215Y-92591405D01*
X165877300Y-92599399D01*
X165867470Y-92599399D01*
X165867464Y-92599400D01*
X163037136Y-92599400D01*
X163037135Y-92599399D01*
X163027299Y-92599400D01*
X162958385Y-92591405D01*
X162942570Y-92584422D01*
X162934766Y-92583186D01*
X162902253Y-92566619D01*
X162857194Y-92546724D01*
X162778976Y-92468506D01*
X162759083Y-92423454D01*
X162742513Y-92390933D01*
X162741276Y-92383126D01*
X162734295Y-92367315D01*
X162726301Y-92298400D01*
X162726300Y-92288569D01*
X162726300Y-92288563D01*
X162726300Y-91408236D01*
X162726300Y-91408235D01*
X162726300Y-91398399D01*
X162734295Y-91329485D01*
X162741276Y-91313673D01*
X162742513Y-91305866D01*
X162759086Y-91273338D01*
X162778976Y-91228294D01*
X162857194Y-91150076D01*
X162902238Y-91130186D01*
X162934766Y-91113613D01*
X162942573Y-91112376D01*
X162958385Y-91105395D01*
X163027300Y-91097401D01*
X163037129Y-91097400D01*
X163037136Y-91097400D01*
X165867464Y-91097400D01*
X165877301Y-91097400D01*
X165946215Y-91105395D01*
G37*
G36*
X115095415Y-91103395D02*
G01*
X115111226Y-91110376D01*
X115119033Y-91111613D01*
X115151554Y-91128183D01*
X115196606Y-91148076D01*
X115274824Y-91226294D01*
X115294719Y-91271353D01*
X115311286Y-91303866D01*
X115312522Y-91311670D01*
X115319505Y-91327485D01*
X115327499Y-91396400D01*
X115327499Y-91406229D01*
X115327500Y-91406236D01*
X115327500Y-92265163D01*
X115327500Y-92296401D01*
X115319505Y-92365315D01*
X115312521Y-92381129D01*
X115311286Y-92388933D01*
X115294723Y-92421439D01*
X115274824Y-92466506D01*
X115196606Y-92544724D01*
X115151539Y-92564623D01*
X115119033Y-92581186D01*
X115111229Y-92582421D01*
X115095415Y-92589405D01*
X115026500Y-92597399D01*
X115016670Y-92597399D01*
X115016664Y-92597400D01*
X112186336Y-92597400D01*
X112186335Y-92597399D01*
X112176499Y-92597400D01*
X112107585Y-92589405D01*
X112091770Y-92582422D01*
X112083966Y-92581186D01*
X112051453Y-92564619D01*
X112006394Y-92544724D01*
X111928176Y-92466506D01*
X111908283Y-92421454D01*
X111891713Y-92388933D01*
X111890476Y-92381126D01*
X111883495Y-92365315D01*
X111875501Y-92296400D01*
X111875500Y-92286569D01*
X111875500Y-92286563D01*
X111875500Y-91406236D01*
X111875500Y-91406235D01*
X111875500Y-91396399D01*
X111883495Y-91327485D01*
X111890476Y-91311673D01*
X111891713Y-91303866D01*
X111908286Y-91271338D01*
X111928176Y-91226294D01*
X112006394Y-91148076D01*
X112051438Y-91128186D01*
X112083966Y-91111613D01*
X112091773Y-91110376D01*
X112107585Y-91103395D01*
X112176500Y-91095401D01*
X112186329Y-91095400D01*
X112186336Y-91095400D01*
X115016664Y-91095400D01*
X115026501Y-91095400D01*
X115095415Y-91103395D01*
G37*
G36*
X89047715Y-91081995D02*
G01*
X89063526Y-91088976D01*
X89071333Y-91090213D01*
X89103854Y-91106783D01*
X89148906Y-91126676D01*
X89227124Y-91204894D01*
X89247019Y-91249953D01*
X89263586Y-91282466D01*
X89264822Y-91290270D01*
X89271805Y-91306085D01*
X89279799Y-91375000D01*
X89279799Y-91384829D01*
X89279800Y-91384836D01*
X89279800Y-92265163D01*
X89279800Y-92275001D01*
X89271805Y-92343915D01*
X89264821Y-92359729D01*
X89263586Y-92367533D01*
X89247023Y-92400039D01*
X89227124Y-92445106D01*
X89148906Y-92523324D01*
X89103839Y-92543223D01*
X89071333Y-92559786D01*
X89063529Y-92561021D01*
X89047715Y-92568005D01*
X88978800Y-92575999D01*
X88968970Y-92575999D01*
X88968964Y-92576000D01*
X86138636Y-92576000D01*
X86138635Y-92575999D01*
X86128799Y-92576000D01*
X86059885Y-92568005D01*
X86044070Y-92561022D01*
X86036266Y-92559786D01*
X86003753Y-92543219D01*
X85958694Y-92523324D01*
X85880476Y-92445106D01*
X85860583Y-92400054D01*
X85844013Y-92367533D01*
X85842776Y-92359726D01*
X85835795Y-92343915D01*
X85827801Y-92275000D01*
X85827800Y-92265169D01*
X85827800Y-92265163D01*
X85827800Y-91384836D01*
X85827800Y-91384835D01*
X85827800Y-91374999D01*
X85835795Y-91306085D01*
X85842776Y-91290273D01*
X85844013Y-91282466D01*
X85860586Y-91249938D01*
X85880476Y-91204894D01*
X85958694Y-91126676D01*
X86003738Y-91106786D01*
X86036266Y-91090213D01*
X86044073Y-91088976D01*
X86059885Y-91081995D01*
X86128800Y-91074001D01*
X86138629Y-91074000D01*
X86138636Y-91074000D01*
X88968964Y-91074000D01*
X88978801Y-91074000D01*
X89047715Y-91081995D01*
G37*
G36*
X213403983Y-89299336D02*
G01*
X213454180Y-89299336D01*
X213497524Y-89308549D01*
X213535659Y-89312305D01*
X213583566Y-89326837D01*
X213638424Y-89338498D01*
X213673530Y-89354128D01*
X213704566Y-89363543D01*
X213753884Y-89389904D01*
X213810500Y-89415111D01*
X213836822Y-89434235D01*
X213860232Y-89446748D01*
X213907988Y-89485940D01*
X213962887Y-89525827D01*
X213980711Y-89545623D01*
X213996675Y-89558724D01*
X214039572Y-89610994D01*
X214088924Y-89665805D01*
X214099292Y-89683763D01*
X214108651Y-89695167D01*
X214143273Y-89759942D01*
X214183104Y-89828930D01*
X214187685Y-89843030D01*
X214191856Y-89850833D01*
X214214852Y-89926642D01*
X214241311Y-90008072D01*
X214242242Y-90016932D01*
X214243094Y-90019740D01*
X214251384Y-90103913D01*
X214261000Y-90195400D01*
X214251383Y-90286894D01*
X214243094Y-90371059D01*
X214242242Y-90373866D01*
X214241311Y-90382728D01*
X214214848Y-90464171D01*
X214191856Y-90539966D01*
X214187686Y-90547766D01*
X214183104Y-90561870D01*
X214143266Y-90630870D01*
X214108651Y-90695632D01*
X214099294Y-90707033D01*
X214088924Y-90724995D01*
X214039563Y-90779815D01*
X213996675Y-90832075D01*
X213980714Y-90845173D01*
X213962887Y-90864973D01*
X213907977Y-90904867D01*
X213860232Y-90944051D01*
X213836827Y-90956561D01*
X213810500Y-90975689D01*
X213753873Y-91000900D01*
X213704566Y-91027256D01*
X213673537Y-91036668D01*
X213638424Y-91052302D01*
X213583555Y-91063964D01*
X213535659Y-91078494D01*
X213497532Y-91082249D01*
X213454180Y-91091464D01*
X213403973Y-91091464D01*
X213360000Y-91095795D01*
X213316027Y-91091464D01*
X213265820Y-91091464D01*
X213222467Y-91082249D01*
X213184340Y-91078494D01*
X213136441Y-91063963D01*
X213081576Y-91052302D01*
X213046464Y-91036669D01*
X213015433Y-91027256D01*
X212966120Y-91000898D01*
X212909500Y-90975689D01*
X212883175Y-90956563D01*
X212859767Y-90944051D01*
X212812013Y-90904860D01*
X212757113Y-90864973D01*
X212739287Y-90845176D01*
X212723324Y-90832075D01*
X212680425Y-90779802D01*
X212631076Y-90724995D01*
X212620708Y-90707037D01*
X212611348Y-90695632D01*
X212576719Y-90630847D01*
X212536896Y-90561870D01*
X212532315Y-90547771D01*
X212528143Y-90539966D01*
X212505136Y-90464125D01*
X212478689Y-90382728D01*
X212477758Y-90373871D01*
X212476905Y-90371059D01*
X212468600Y-90286742D01*
X212459000Y-90195400D01*
X212468599Y-90104064D01*
X212476905Y-90019740D01*
X212477758Y-90016927D01*
X212478689Y-90008072D01*
X212505132Y-89926688D01*
X212528143Y-89850833D01*
X212532315Y-89843026D01*
X212536896Y-89828930D01*
X212576712Y-89759965D01*
X212611348Y-89695167D01*
X212620710Y-89683759D01*
X212631076Y-89665805D01*
X212680416Y-89611007D01*
X212723324Y-89558724D01*
X212739291Y-89545619D01*
X212757113Y-89525827D01*
X212812002Y-89485946D01*
X212859767Y-89446748D01*
X212883180Y-89434233D01*
X212909500Y-89415111D01*
X212966109Y-89389906D01*
X213015433Y-89363543D01*
X213046471Y-89354127D01*
X213081576Y-89338498D01*
X213136430Y-89326838D01*
X213184340Y-89312305D01*
X213222476Y-89308548D01*
X213265820Y-89299336D01*
X213316016Y-89299336D01*
X213360000Y-89295004D01*
X213403983Y-89299336D01*
G37*
G36*
X145084518Y-87360991D02*
G01*
X145125395Y-87388305D01*
X145152709Y-87429182D01*
X145162300Y-87477400D01*
X145162300Y-87627400D01*
X145152709Y-87675618D01*
X145125395Y-87716495D01*
X145120176Y-87719982D01*
X145090443Y-87764482D01*
X145090443Y-87840318D01*
X145120176Y-87884818D01*
X145125395Y-87888305D01*
X145152709Y-87929182D01*
X145162300Y-87977400D01*
X145162300Y-88127400D01*
X145152709Y-88175618D01*
X145125395Y-88216495D01*
X145120176Y-88219982D01*
X145090443Y-88264482D01*
X145090443Y-88340318D01*
X145120176Y-88384818D01*
X145125395Y-88388305D01*
X145152709Y-88429182D01*
X145162300Y-88477400D01*
X145162300Y-88627400D01*
X145152709Y-88675618D01*
X145125395Y-88716495D01*
X145120176Y-88719982D01*
X145090443Y-88764482D01*
X145090443Y-88840318D01*
X145120176Y-88884818D01*
X145125395Y-88888305D01*
X145152709Y-88929182D01*
X145162300Y-88977400D01*
X145162300Y-89127400D01*
X145152709Y-89175618D01*
X145125395Y-89216495D01*
X145120176Y-89219982D01*
X145090443Y-89264482D01*
X145090443Y-89340318D01*
X145120176Y-89384818D01*
X145125395Y-89388305D01*
X145152709Y-89429182D01*
X145162300Y-89477400D01*
X145162300Y-89627400D01*
X145152709Y-89675618D01*
X145125395Y-89716495D01*
X145084518Y-89743809D01*
X145036300Y-89753400D01*
X143736300Y-89753400D01*
X143688082Y-89743809D01*
X143647205Y-89716495D01*
X143619891Y-89675618D01*
X143610300Y-89627400D01*
X143610300Y-89477400D01*
X143619891Y-89429182D01*
X143647205Y-89388305D01*
X143652420Y-89384820D01*
X143682156Y-89340318D01*
X143682156Y-89264482D01*
X143652420Y-89219980D01*
X143647205Y-89216495D01*
X143619891Y-89175618D01*
X143610300Y-89127400D01*
X143610300Y-88977400D01*
X143619891Y-88929182D01*
X143647205Y-88888305D01*
X143652420Y-88884820D01*
X143682156Y-88840318D01*
X143682156Y-88764482D01*
X143652420Y-88719980D01*
X143647205Y-88716495D01*
X143619891Y-88675618D01*
X143610300Y-88627400D01*
X143610300Y-88477400D01*
X143619891Y-88429182D01*
X143647205Y-88388305D01*
X143652420Y-88384820D01*
X143682156Y-88340318D01*
X143682156Y-88264482D01*
X143652420Y-88219980D01*
X143647205Y-88216495D01*
X143619891Y-88175618D01*
X143610300Y-88127400D01*
X143610300Y-87977400D01*
X143619891Y-87929182D01*
X143647205Y-87888305D01*
X143652420Y-87884820D01*
X143682156Y-87840318D01*
X143682156Y-87764482D01*
X143652420Y-87719980D01*
X143647205Y-87716495D01*
X143619891Y-87675618D01*
X143610300Y-87627400D01*
X143610300Y-87477400D01*
X143619891Y-87429182D01*
X143647205Y-87388305D01*
X143688082Y-87360991D01*
X143736300Y-87351400D01*
X145036300Y-87351400D01*
X145084518Y-87360991D01*
G37*
G36*
X149484518Y-87360991D02*
G01*
X149525395Y-87388305D01*
X149552709Y-87429182D01*
X149562300Y-87477400D01*
X149562300Y-87627400D01*
X149552709Y-87675618D01*
X149525395Y-87716495D01*
X149520176Y-87719982D01*
X149490443Y-87764482D01*
X149490443Y-87840318D01*
X149520176Y-87884818D01*
X149525395Y-87888305D01*
X149552709Y-87929182D01*
X149562300Y-87977400D01*
X149562300Y-88127400D01*
X149552709Y-88175618D01*
X149525395Y-88216495D01*
X149520176Y-88219982D01*
X149490443Y-88264482D01*
X149490443Y-88340318D01*
X149520176Y-88384818D01*
X149525395Y-88388305D01*
X149552709Y-88429182D01*
X149562300Y-88477400D01*
X149562300Y-88627400D01*
X149552709Y-88675618D01*
X149525395Y-88716495D01*
X149520176Y-88719982D01*
X149490443Y-88764482D01*
X149490443Y-88840318D01*
X149520176Y-88884818D01*
X149525395Y-88888305D01*
X149552709Y-88929182D01*
X149562300Y-88977400D01*
X149562300Y-89127400D01*
X149552709Y-89175618D01*
X149525395Y-89216495D01*
X149520176Y-89219982D01*
X149490443Y-89264482D01*
X149490443Y-89340318D01*
X149520176Y-89384818D01*
X149525395Y-89388305D01*
X149552709Y-89429182D01*
X149562300Y-89477400D01*
X149562300Y-89627400D01*
X149552709Y-89675618D01*
X149525395Y-89716495D01*
X149484518Y-89743809D01*
X149436300Y-89753400D01*
X148136300Y-89753400D01*
X148088082Y-89743809D01*
X148047205Y-89716495D01*
X148019891Y-89675618D01*
X148010300Y-89627400D01*
X148010300Y-89477400D01*
X148019891Y-89429182D01*
X148047205Y-89388305D01*
X148052420Y-89384820D01*
X148082156Y-89340318D01*
X148082156Y-89264482D01*
X148052420Y-89219980D01*
X148047205Y-89216495D01*
X148019891Y-89175618D01*
X148010300Y-89127400D01*
X148010300Y-88977400D01*
X148019891Y-88929182D01*
X148047205Y-88888305D01*
X148052420Y-88884820D01*
X148082156Y-88840318D01*
X148082156Y-88764482D01*
X148052420Y-88719980D01*
X148047205Y-88716495D01*
X148019891Y-88675618D01*
X148010300Y-88627400D01*
X148010300Y-88477400D01*
X148019891Y-88429182D01*
X148047205Y-88388305D01*
X148052420Y-88384820D01*
X148082156Y-88340318D01*
X148082156Y-88264482D01*
X148052420Y-88219980D01*
X148047205Y-88216495D01*
X148019891Y-88175618D01*
X148010300Y-88127400D01*
X148010300Y-87977400D01*
X148019891Y-87929182D01*
X148047205Y-87888305D01*
X148052420Y-87884820D01*
X148082156Y-87840318D01*
X148082156Y-87764482D01*
X148052420Y-87719980D01*
X148047205Y-87716495D01*
X148019891Y-87675618D01*
X148010300Y-87627400D01*
X148010300Y-87477400D01*
X148019891Y-87429182D01*
X148047205Y-87388305D01*
X148088082Y-87360991D01*
X148136300Y-87351400D01*
X149436300Y-87351400D01*
X149484518Y-87360991D01*
G37*
G36*
X94030518Y-87352991D02*
G01*
X94071395Y-87380305D01*
X94098709Y-87421182D01*
X94108300Y-87469400D01*
X94108300Y-87619400D01*
X94098709Y-87667618D01*
X94071395Y-87708495D01*
X94066176Y-87711982D01*
X94036443Y-87756482D01*
X94036443Y-87832318D01*
X94066176Y-87876818D01*
X94071395Y-87880305D01*
X94098709Y-87921182D01*
X94108300Y-87969400D01*
X94108300Y-88119400D01*
X94098709Y-88167618D01*
X94071395Y-88208495D01*
X94066176Y-88211982D01*
X94036443Y-88256482D01*
X94036443Y-88332318D01*
X94066176Y-88376818D01*
X94071395Y-88380305D01*
X94098709Y-88421182D01*
X94108300Y-88469400D01*
X94108300Y-88619400D01*
X94098709Y-88667618D01*
X94071395Y-88708495D01*
X94066176Y-88711982D01*
X94036443Y-88756482D01*
X94036443Y-88832318D01*
X94066176Y-88876818D01*
X94071395Y-88880305D01*
X94098709Y-88921182D01*
X94108300Y-88969400D01*
X94108300Y-89119400D01*
X94098709Y-89167618D01*
X94071395Y-89208495D01*
X94066176Y-89211982D01*
X94036443Y-89256482D01*
X94036443Y-89332318D01*
X94066176Y-89376818D01*
X94071395Y-89380305D01*
X94098709Y-89421182D01*
X94108300Y-89469400D01*
X94108300Y-89619400D01*
X94098709Y-89667618D01*
X94071395Y-89708495D01*
X94030518Y-89735809D01*
X93982300Y-89745400D01*
X92682300Y-89745400D01*
X92634082Y-89735809D01*
X92593205Y-89708495D01*
X92565891Y-89667618D01*
X92556300Y-89619400D01*
X92556300Y-89469400D01*
X92565891Y-89421182D01*
X92593205Y-89380305D01*
X92598420Y-89376820D01*
X92628156Y-89332318D01*
X92628156Y-89256482D01*
X92598420Y-89211980D01*
X92593205Y-89208495D01*
X92565891Y-89167618D01*
X92556300Y-89119400D01*
X92556300Y-88969400D01*
X92565891Y-88921182D01*
X92593205Y-88880305D01*
X92598420Y-88876820D01*
X92628156Y-88832318D01*
X92628156Y-88756482D01*
X92598420Y-88711980D01*
X92593205Y-88708495D01*
X92565891Y-88667618D01*
X92556300Y-88619400D01*
X92556300Y-88469400D01*
X92565891Y-88421182D01*
X92593205Y-88380305D01*
X92598420Y-88376820D01*
X92628156Y-88332318D01*
X92628156Y-88256482D01*
X92598420Y-88211980D01*
X92593205Y-88208495D01*
X92565891Y-88167618D01*
X92556300Y-88119400D01*
X92556300Y-87969400D01*
X92565891Y-87921182D01*
X92593205Y-87880305D01*
X92598420Y-87876820D01*
X92628156Y-87832318D01*
X92628156Y-87756482D01*
X92598420Y-87711980D01*
X92593205Y-87708495D01*
X92565891Y-87667618D01*
X92556300Y-87619400D01*
X92556300Y-87469400D01*
X92565891Y-87421182D01*
X92593205Y-87380305D01*
X92634082Y-87352991D01*
X92682300Y-87343400D01*
X93982300Y-87343400D01*
X94030518Y-87352991D01*
G37*
G36*
X98430518Y-87352991D02*
G01*
X98471395Y-87380305D01*
X98498709Y-87421182D01*
X98508300Y-87469400D01*
X98508300Y-87619400D01*
X98498709Y-87667618D01*
X98471395Y-87708495D01*
X98466176Y-87711982D01*
X98436443Y-87756482D01*
X98436443Y-87832318D01*
X98466176Y-87876818D01*
X98471395Y-87880305D01*
X98498709Y-87921182D01*
X98508300Y-87969400D01*
X98508300Y-88119400D01*
X98498709Y-88167618D01*
X98471395Y-88208495D01*
X98466176Y-88211982D01*
X98436443Y-88256482D01*
X98436443Y-88332318D01*
X98466176Y-88376818D01*
X98471395Y-88380305D01*
X98498709Y-88421182D01*
X98508300Y-88469400D01*
X98508300Y-88619400D01*
X98498709Y-88667618D01*
X98471395Y-88708495D01*
X98466176Y-88711982D01*
X98436443Y-88756482D01*
X98436443Y-88832318D01*
X98466176Y-88876818D01*
X98471395Y-88880305D01*
X98498709Y-88921182D01*
X98508300Y-88969400D01*
X98508300Y-89119400D01*
X98498709Y-89167618D01*
X98471395Y-89208495D01*
X98466176Y-89211982D01*
X98436443Y-89256482D01*
X98436443Y-89332318D01*
X98466176Y-89376818D01*
X98471395Y-89380305D01*
X98498709Y-89421182D01*
X98508300Y-89469400D01*
X98508300Y-89619400D01*
X98498709Y-89667618D01*
X98471395Y-89708495D01*
X98430518Y-89735809D01*
X98382300Y-89745400D01*
X97082300Y-89745400D01*
X97034082Y-89735809D01*
X96993205Y-89708495D01*
X96965891Y-89667618D01*
X96956300Y-89619400D01*
X96956300Y-89469400D01*
X96965891Y-89421182D01*
X96993205Y-89380305D01*
X96998420Y-89376820D01*
X97028156Y-89332318D01*
X97028156Y-89256482D01*
X96998420Y-89211980D01*
X96993205Y-89208495D01*
X96965891Y-89167618D01*
X96956300Y-89119400D01*
X96956300Y-88969400D01*
X96965891Y-88921182D01*
X96993205Y-88880305D01*
X96998420Y-88876820D01*
X97028156Y-88832318D01*
X97028156Y-88756482D01*
X96998420Y-88711980D01*
X96993205Y-88708495D01*
X96965891Y-88667618D01*
X96956300Y-88619400D01*
X96956300Y-88469400D01*
X96965891Y-88421182D01*
X96993205Y-88380305D01*
X96998420Y-88376820D01*
X97028156Y-88332318D01*
X97028156Y-88256482D01*
X96998420Y-88211980D01*
X96993205Y-88208495D01*
X96965891Y-88167618D01*
X96956300Y-88119400D01*
X96956300Y-87969400D01*
X96965891Y-87921182D01*
X96993205Y-87880305D01*
X96998420Y-87876820D01*
X97028156Y-87832318D01*
X97028156Y-87756482D01*
X96998420Y-87711980D01*
X96993205Y-87708495D01*
X96965891Y-87667618D01*
X96956300Y-87619400D01*
X96956300Y-87469400D01*
X96965891Y-87421182D01*
X96993205Y-87380305D01*
X97034082Y-87352991D01*
X97082300Y-87343400D01*
X98382300Y-87343400D01*
X98430518Y-87352991D01*
G37*
G36*
X119887718Y-87336991D02*
G01*
X119928595Y-87364305D01*
X119955909Y-87405182D01*
X119965500Y-87453400D01*
X119965500Y-87603400D01*
X119955909Y-87651618D01*
X119928595Y-87692495D01*
X119923376Y-87695982D01*
X119893643Y-87740482D01*
X119893643Y-87816318D01*
X119923376Y-87860818D01*
X119928595Y-87864305D01*
X119955909Y-87905182D01*
X119965500Y-87953400D01*
X119965500Y-88103400D01*
X119955909Y-88151618D01*
X119928595Y-88192495D01*
X119923376Y-88195982D01*
X119893643Y-88240482D01*
X119893643Y-88316318D01*
X119923376Y-88360818D01*
X119928595Y-88364305D01*
X119955909Y-88405182D01*
X119965500Y-88453400D01*
X119965500Y-88603400D01*
X119955909Y-88651618D01*
X119928595Y-88692495D01*
X119923376Y-88695982D01*
X119893643Y-88740482D01*
X119893643Y-88816318D01*
X119923376Y-88860818D01*
X119928595Y-88864305D01*
X119955909Y-88905182D01*
X119965500Y-88953400D01*
X119965500Y-89103400D01*
X119955909Y-89151618D01*
X119928595Y-89192495D01*
X119923376Y-89195982D01*
X119893643Y-89240482D01*
X119893643Y-89316318D01*
X119923376Y-89360818D01*
X119928595Y-89364305D01*
X119955909Y-89405182D01*
X119965500Y-89453400D01*
X119965500Y-89603400D01*
X119955909Y-89651618D01*
X119928595Y-89692495D01*
X119887718Y-89719809D01*
X119839500Y-89729400D01*
X118539500Y-89729400D01*
X118491282Y-89719809D01*
X118450405Y-89692495D01*
X118423091Y-89651618D01*
X118413500Y-89603400D01*
X118413500Y-89453400D01*
X118423091Y-89405182D01*
X118450405Y-89364305D01*
X118455620Y-89360820D01*
X118485356Y-89316318D01*
X118485356Y-89240482D01*
X118455620Y-89195980D01*
X118450405Y-89192495D01*
X118423091Y-89151618D01*
X118413500Y-89103400D01*
X118413500Y-88953400D01*
X118423091Y-88905182D01*
X118450405Y-88864305D01*
X118455620Y-88860820D01*
X118485356Y-88816318D01*
X118485356Y-88740482D01*
X118455620Y-88695980D01*
X118450405Y-88692495D01*
X118423091Y-88651618D01*
X118413500Y-88603400D01*
X118413500Y-88453400D01*
X118423091Y-88405182D01*
X118450405Y-88364305D01*
X118455620Y-88360820D01*
X118485356Y-88316318D01*
X118485356Y-88240482D01*
X118455620Y-88195980D01*
X118450405Y-88192495D01*
X118423091Y-88151618D01*
X118413500Y-88103400D01*
X118413500Y-87953400D01*
X118423091Y-87905182D01*
X118450405Y-87864305D01*
X118455620Y-87860820D01*
X118485356Y-87816318D01*
X118485356Y-87740482D01*
X118455620Y-87695980D01*
X118450405Y-87692495D01*
X118423091Y-87651618D01*
X118413500Y-87603400D01*
X118413500Y-87453400D01*
X118423091Y-87405182D01*
X118450405Y-87364305D01*
X118491282Y-87336991D01*
X118539500Y-87327400D01*
X119839500Y-87327400D01*
X119887718Y-87336991D01*
G37*
G36*
X124287718Y-87336991D02*
G01*
X124328595Y-87364305D01*
X124355909Y-87405182D01*
X124365500Y-87453400D01*
X124365500Y-87603400D01*
X124355909Y-87651618D01*
X124328595Y-87692495D01*
X124323376Y-87695982D01*
X124293643Y-87740482D01*
X124293643Y-87816318D01*
X124323376Y-87860818D01*
X124328595Y-87864305D01*
X124355909Y-87905182D01*
X124365500Y-87953400D01*
X124365500Y-88103400D01*
X124355909Y-88151618D01*
X124328595Y-88192495D01*
X124323376Y-88195982D01*
X124293643Y-88240482D01*
X124293643Y-88316318D01*
X124323376Y-88360818D01*
X124328595Y-88364305D01*
X124355909Y-88405182D01*
X124365500Y-88453400D01*
X124365500Y-88603400D01*
X124355909Y-88651618D01*
X124328595Y-88692495D01*
X124323376Y-88695982D01*
X124293643Y-88740482D01*
X124293643Y-88816318D01*
X124323376Y-88860818D01*
X124328595Y-88864305D01*
X124355909Y-88905182D01*
X124365500Y-88953400D01*
X124365500Y-89103400D01*
X124355909Y-89151618D01*
X124328595Y-89192495D01*
X124323376Y-89195982D01*
X124293643Y-89240482D01*
X124293643Y-89316318D01*
X124323376Y-89360818D01*
X124328595Y-89364305D01*
X124355909Y-89405182D01*
X124365500Y-89453400D01*
X124365500Y-89603400D01*
X124355909Y-89651618D01*
X124328595Y-89692495D01*
X124287718Y-89719809D01*
X124239500Y-89729400D01*
X122939500Y-89729400D01*
X122891282Y-89719809D01*
X122850405Y-89692495D01*
X122823091Y-89651618D01*
X122813500Y-89603400D01*
X122813500Y-89453400D01*
X122823091Y-89405182D01*
X122850405Y-89364305D01*
X122855620Y-89360820D01*
X122885356Y-89316318D01*
X122885356Y-89240482D01*
X122855620Y-89195980D01*
X122850405Y-89192495D01*
X122823091Y-89151618D01*
X122813500Y-89103400D01*
X122813500Y-88953400D01*
X122823091Y-88905182D01*
X122850405Y-88864305D01*
X122855620Y-88860820D01*
X122885356Y-88816318D01*
X122885356Y-88740482D01*
X122855620Y-88695980D01*
X122850405Y-88692495D01*
X122823091Y-88651618D01*
X122813500Y-88603400D01*
X122813500Y-88453400D01*
X122823091Y-88405182D01*
X122850405Y-88364305D01*
X122855620Y-88360820D01*
X122885356Y-88316318D01*
X122885356Y-88240482D01*
X122855620Y-88195980D01*
X122850405Y-88192495D01*
X122823091Y-88151618D01*
X122813500Y-88103400D01*
X122813500Y-87953400D01*
X122823091Y-87905182D01*
X122850405Y-87864305D01*
X122855620Y-87860820D01*
X122885356Y-87816318D01*
X122885356Y-87740482D01*
X122855620Y-87695980D01*
X122850405Y-87692495D01*
X122823091Y-87651618D01*
X122813500Y-87603400D01*
X122813500Y-87453400D01*
X122823091Y-87405182D01*
X122850405Y-87364305D01*
X122891282Y-87336991D01*
X122939500Y-87327400D01*
X124239500Y-87327400D01*
X124287718Y-87336991D01*
G37*
G36*
X170570518Y-87241991D02*
G01*
X170611395Y-87269305D01*
X170638709Y-87310182D01*
X170648300Y-87358400D01*
X170648300Y-87508400D01*
X170638709Y-87556618D01*
X170611395Y-87597495D01*
X170606176Y-87600982D01*
X170576443Y-87645482D01*
X170576443Y-87721318D01*
X170606176Y-87765818D01*
X170611395Y-87769305D01*
X170638709Y-87810182D01*
X170648300Y-87858400D01*
X170648300Y-88008400D01*
X170638709Y-88056618D01*
X170611395Y-88097495D01*
X170606176Y-88100982D01*
X170576443Y-88145482D01*
X170576443Y-88221318D01*
X170606176Y-88265818D01*
X170611395Y-88269305D01*
X170638709Y-88310182D01*
X170648300Y-88358400D01*
X170648300Y-88508400D01*
X170638709Y-88556618D01*
X170611395Y-88597495D01*
X170606176Y-88600982D01*
X170576443Y-88645482D01*
X170576443Y-88721318D01*
X170606176Y-88765818D01*
X170611395Y-88769305D01*
X170638709Y-88810182D01*
X170648300Y-88858400D01*
X170648300Y-89008400D01*
X170638709Y-89056618D01*
X170611395Y-89097495D01*
X170606176Y-89100982D01*
X170576443Y-89145482D01*
X170576443Y-89221318D01*
X170606176Y-89265818D01*
X170611395Y-89269305D01*
X170638709Y-89310182D01*
X170648300Y-89358400D01*
X170648300Y-89508400D01*
X170638709Y-89556618D01*
X170611395Y-89597495D01*
X170570518Y-89624809D01*
X170522300Y-89634400D01*
X169222300Y-89634400D01*
X169174082Y-89624809D01*
X169133205Y-89597495D01*
X169105891Y-89556618D01*
X169096300Y-89508400D01*
X169096300Y-89358400D01*
X169105891Y-89310182D01*
X169133205Y-89269305D01*
X169138420Y-89265820D01*
X169168156Y-89221318D01*
X169168156Y-89145482D01*
X169138420Y-89100980D01*
X169133205Y-89097495D01*
X169105891Y-89056618D01*
X169096300Y-89008400D01*
X169096300Y-88858400D01*
X169105891Y-88810182D01*
X169133205Y-88769305D01*
X169138420Y-88765820D01*
X169168156Y-88721318D01*
X169168156Y-88645482D01*
X169138420Y-88600980D01*
X169133205Y-88597495D01*
X169105891Y-88556618D01*
X169096300Y-88508400D01*
X169096300Y-88358400D01*
X169105891Y-88310182D01*
X169133205Y-88269305D01*
X169138420Y-88265820D01*
X169168156Y-88221318D01*
X169168156Y-88145482D01*
X169138420Y-88100980D01*
X169133205Y-88097495D01*
X169105891Y-88056618D01*
X169096300Y-88008400D01*
X169096300Y-87858400D01*
X169105891Y-87810182D01*
X169133205Y-87769305D01*
X169138420Y-87765820D01*
X169168156Y-87721318D01*
X169168156Y-87645482D01*
X169138420Y-87600980D01*
X169133205Y-87597495D01*
X169105891Y-87556618D01*
X169096300Y-87508400D01*
X169096300Y-87358400D01*
X169105891Y-87310182D01*
X169133205Y-87269305D01*
X169174082Y-87241991D01*
X169222300Y-87232400D01*
X170522300Y-87232400D01*
X170570518Y-87241991D01*
G37*
G36*
X174970518Y-87241991D02*
G01*
X175011395Y-87269305D01*
X175038709Y-87310182D01*
X175048300Y-87358400D01*
X175048300Y-87508400D01*
X175038709Y-87556618D01*
X175011395Y-87597495D01*
X175006176Y-87600982D01*
X174976443Y-87645482D01*
X174976443Y-87721318D01*
X175006176Y-87765818D01*
X175011395Y-87769305D01*
X175038709Y-87810182D01*
X175048300Y-87858400D01*
X175048300Y-88008400D01*
X175038709Y-88056618D01*
X175011395Y-88097495D01*
X175006176Y-88100982D01*
X174976443Y-88145482D01*
X174976443Y-88221318D01*
X175006176Y-88265818D01*
X175011395Y-88269305D01*
X175038709Y-88310182D01*
X175048300Y-88358400D01*
X175048300Y-88508400D01*
X175038709Y-88556618D01*
X175011395Y-88597495D01*
X175006176Y-88600982D01*
X174976443Y-88645482D01*
X174976443Y-88721318D01*
X175006176Y-88765818D01*
X175011395Y-88769305D01*
X175038709Y-88810182D01*
X175048300Y-88858400D01*
X175048300Y-89008400D01*
X175038709Y-89056618D01*
X175011395Y-89097495D01*
X175006176Y-89100982D01*
X174976443Y-89145482D01*
X174976443Y-89221318D01*
X175006176Y-89265818D01*
X175011395Y-89269305D01*
X175038709Y-89310182D01*
X175048300Y-89358400D01*
X175048300Y-89508400D01*
X175038709Y-89556618D01*
X175011395Y-89597495D01*
X174970518Y-89624809D01*
X174922300Y-89634400D01*
X173622300Y-89634400D01*
X173574082Y-89624809D01*
X173533205Y-89597495D01*
X173505891Y-89556618D01*
X173496300Y-89508400D01*
X173496300Y-89358400D01*
X173505891Y-89310182D01*
X173533205Y-89269305D01*
X173538420Y-89265820D01*
X173568156Y-89221318D01*
X173568156Y-89145482D01*
X173538420Y-89100980D01*
X173533205Y-89097495D01*
X173505891Y-89056618D01*
X173496300Y-89008400D01*
X173496300Y-88858400D01*
X173505891Y-88810182D01*
X173533205Y-88769305D01*
X173538420Y-88765820D01*
X173568156Y-88721318D01*
X173568156Y-88645482D01*
X173538420Y-88600980D01*
X173533205Y-88597495D01*
X173505891Y-88556618D01*
X173496300Y-88508400D01*
X173496300Y-88358400D01*
X173505891Y-88310182D01*
X173533205Y-88269305D01*
X173538420Y-88265820D01*
X173568156Y-88221318D01*
X173568156Y-88145482D01*
X173538420Y-88100980D01*
X173533205Y-88097495D01*
X173505891Y-88056618D01*
X173496300Y-88008400D01*
X173496300Y-87858400D01*
X173505891Y-87810182D01*
X173533205Y-87769305D01*
X173538420Y-87765820D01*
X173568156Y-87721318D01*
X173568156Y-87645482D01*
X173538420Y-87600980D01*
X173533205Y-87597495D01*
X173505891Y-87556618D01*
X173496300Y-87508400D01*
X173496300Y-87358400D01*
X173505891Y-87310182D01*
X173533205Y-87269305D01*
X173574082Y-87241991D01*
X173622300Y-87232400D01*
X174922300Y-87232400D01*
X174970518Y-87241991D01*
G37*
G36*
X214229517Y-86758282D02*
G01*
X214246062Y-86769338D01*
X214257118Y-86785883D01*
X214261000Y-86805400D01*
X214261000Y-88505400D01*
X214257118Y-88524917D01*
X214246062Y-88541462D01*
X214229517Y-88552518D01*
X214210000Y-88556400D01*
X212510000Y-88556400D01*
X212490483Y-88552518D01*
X212473938Y-88541462D01*
X212462882Y-88524917D01*
X212459000Y-88505400D01*
X212459000Y-86805400D01*
X212462882Y-86785883D01*
X212473938Y-86769338D01*
X212490483Y-86758282D01*
X212510000Y-86754400D01*
X214210000Y-86754400D01*
X214229517Y-86758282D01*
G37*
G36*
X144930214Y-85246895D02*
G01*
X144946026Y-85253876D01*
X144953831Y-85255113D01*
X144986339Y-85271676D01*
X145031406Y-85291576D01*
X145109624Y-85369794D01*
X145129526Y-85414867D01*
X145146086Y-85447368D01*
X145147321Y-85455170D01*
X145154305Y-85470986D01*
X145162300Y-85539900D01*
X145162300Y-86214900D01*
X145154305Y-86283814D01*
X145147321Y-86299629D01*
X145146086Y-86307431D01*
X145129529Y-86339924D01*
X145109624Y-86385006D01*
X145031406Y-86463224D01*
X144986324Y-86483129D01*
X144953831Y-86499686D01*
X144946029Y-86500921D01*
X144930214Y-86507905D01*
X144861300Y-86515900D01*
X143911300Y-86515900D01*
X143842386Y-86507905D01*
X143826570Y-86500921D01*
X143818768Y-86499686D01*
X143786267Y-86483126D01*
X143741194Y-86463224D01*
X143662976Y-86385006D01*
X143643076Y-86339939D01*
X143626513Y-86307431D01*
X143625276Y-86299626D01*
X143618295Y-86283814D01*
X143610300Y-86214900D01*
X143610300Y-85539900D01*
X143618295Y-85470986D01*
X143625276Y-85455174D01*
X143626513Y-85447368D01*
X143643080Y-85414853D01*
X143662976Y-85369794D01*
X143741194Y-85291576D01*
X143786253Y-85271680D01*
X143818768Y-85255113D01*
X143826574Y-85253876D01*
X143842386Y-85246895D01*
X143911300Y-85238900D01*
X144861300Y-85238900D01*
X144930214Y-85246895D01*
G37*
G36*
X140495415Y-85007395D02*
G01*
X140511226Y-85014376D01*
X140519033Y-85015613D01*
X140551554Y-85032183D01*
X140596606Y-85052076D01*
X140674824Y-85130294D01*
X140694719Y-85175353D01*
X140711286Y-85207866D01*
X140712522Y-85215670D01*
X140719505Y-85231485D01*
X140727499Y-85300400D01*
X140727499Y-85310229D01*
X140727500Y-85310236D01*
X140727500Y-85965962D01*
X140727500Y-86200401D01*
X140719505Y-86269315D01*
X140712521Y-86285129D01*
X140711286Y-86292933D01*
X140694723Y-86325439D01*
X140674824Y-86370506D01*
X140596606Y-86448724D01*
X140551539Y-86468623D01*
X140519033Y-86485186D01*
X140511229Y-86486421D01*
X140495415Y-86493405D01*
X140426500Y-86501399D01*
X140416670Y-86501399D01*
X140416664Y-86501400D01*
X137586336Y-86501400D01*
X137586335Y-86501399D01*
X137576499Y-86501400D01*
X137507585Y-86493405D01*
X137491770Y-86486422D01*
X137483966Y-86485186D01*
X137451453Y-86468619D01*
X137406394Y-86448724D01*
X137328176Y-86370506D01*
X137308283Y-86325454D01*
X137291713Y-86292933D01*
X137290476Y-86285126D01*
X137283495Y-86269315D01*
X137275501Y-86200400D01*
X137275500Y-86190569D01*
X137275500Y-86190563D01*
X137275500Y-85310236D01*
X137275500Y-85310235D01*
X137275500Y-85300399D01*
X137283495Y-85231485D01*
X137290476Y-85215673D01*
X137291713Y-85207866D01*
X137308286Y-85175338D01*
X137328176Y-85130294D01*
X137406394Y-85052076D01*
X137451438Y-85032186D01*
X137483966Y-85015613D01*
X137491773Y-85014376D01*
X137507585Y-85007395D01*
X137576500Y-84999401D01*
X137586329Y-84999400D01*
X137586336Y-84999400D01*
X140416664Y-84999400D01*
X140426501Y-84999400D01*
X140495415Y-85007395D01*
G37*
G36*
X165946215Y-85005395D02*
G01*
X165962026Y-85012376D01*
X165969833Y-85013613D01*
X166002354Y-85030183D01*
X166047406Y-85050076D01*
X166125624Y-85128294D01*
X166145519Y-85173353D01*
X166162086Y-85205866D01*
X166163322Y-85213670D01*
X166170305Y-85229485D01*
X166178299Y-85298400D01*
X166178299Y-85308229D01*
X166178300Y-85308236D01*
X166178300Y-85965962D01*
X166178300Y-86198401D01*
X166170305Y-86267315D01*
X166163321Y-86283129D01*
X166162086Y-86290933D01*
X166145523Y-86323439D01*
X166125624Y-86368506D01*
X166047406Y-86446724D01*
X166002339Y-86466623D01*
X165969833Y-86483186D01*
X165962029Y-86484421D01*
X165946215Y-86491405D01*
X165877300Y-86499399D01*
X165867470Y-86499399D01*
X165867464Y-86499400D01*
X163037136Y-86499400D01*
X163037135Y-86499399D01*
X163027299Y-86499400D01*
X162958385Y-86491405D01*
X162942570Y-86484422D01*
X162934766Y-86483186D01*
X162902253Y-86466619D01*
X162857194Y-86446724D01*
X162778976Y-86368506D01*
X162759083Y-86323454D01*
X162742513Y-86290933D01*
X162741276Y-86283126D01*
X162734295Y-86267315D01*
X162726301Y-86198400D01*
X162726300Y-86188569D01*
X162726300Y-86188563D01*
X162726300Y-85308236D01*
X162726300Y-85308235D01*
X162726300Y-85298399D01*
X162734295Y-85229485D01*
X162741276Y-85213673D01*
X162742513Y-85205866D01*
X162759086Y-85173338D01*
X162778976Y-85128294D01*
X162857194Y-85050076D01*
X162902238Y-85030186D01*
X162934766Y-85013613D01*
X162942573Y-85012376D01*
X162958385Y-85005395D01*
X163027300Y-84997401D01*
X163037129Y-84997400D01*
X163037136Y-84997400D01*
X165867464Y-84997400D01*
X165877301Y-84997400D01*
X165946215Y-85005395D01*
G37*
G36*
X115095415Y-85003395D02*
G01*
X115111226Y-85010376D01*
X115119033Y-85011613D01*
X115151554Y-85028183D01*
X115196606Y-85048076D01*
X115274824Y-85126294D01*
X115294719Y-85171353D01*
X115311286Y-85203866D01*
X115312522Y-85211670D01*
X115319505Y-85227485D01*
X115327499Y-85296400D01*
X115327499Y-85306229D01*
X115327500Y-85306236D01*
X115327500Y-85965962D01*
X115327500Y-86196401D01*
X115319505Y-86265315D01*
X115312521Y-86281129D01*
X115311286Y-86288933D01*
X115294723Y-86321439D01*
X115274824Y-86366506D01*
X115196606Y-86444724D01*
X115151539Y-86464623D01*
X115119033Y-86481186D01*
X115111229Y-86482421D01*
X115095415Y-86489405D01*
X115026500Y-86497399D01*
X115016670Y-86497399D01*
X115016664Y-86497400D01*
X112186336Y-86497400D01*
X112186335Y-86497399D01*
X112176499Y-86497400D01*
X112107585Y-86489405D01*
X112091770Y-86482422D01*
X112083966Y-86481186D01*
X112051453Y-86464619D01*
X112006394Y-86444724D01*
X111928176Y-86366506D01*
X111908283Y-86321454D01*
X111891713Y-86288933D01*
X111890476Y-86281126D01*
X111883495Y-86265315D01*
X111875501Y-86196400D01*
X111875500Y-86186569D01*
X111875500Y-86186563D01*
X111875500Y-85306236D01*
X111875500Y-85306235D01*
X111875500Y-85296399D01*
X111883495Y-85227485D01*
X111890476Y-85211673D01*
X111891713Y-85203866D01*
X111908286Y-85171338D01*
X111928176Y-85126294D01*
X112006394Y-85048076D01*
X112051438Y-85028186D01*
X112083966Y-85011613D01*
X112091773Y-85010376D01*
X112107585Y-85003395D01*
X112176500Y-84995401D01*
X112186329Y-84995400D01*
X112186336Y-84995400D01*
X115016664Y-84995400D01*
X115026501Y-84995400D01*
X115095415Y-85003395D01*
G37*
G36*
X89047715Y-84981995D02*
G01*
X89063526Y-84988976D01*
X89071333Y-84990213D01*
X89103854Y-85006783D01*
X89148906Y-85026676D01*
X89227124Y-85104894D01*
X89247019Y-85149953D01*
X89263586Y-85182466D01*
X89264822Y-85190270D01*
X89271805Y-85206085D01*
X89279799Y-85275000D01*
X89279799Y-85284829D01*
X89279800Y-85284836D01*
X89279800Y-85965962D01*
X89279800Y-86175001D01*
X89271805Y-86243915D01*
X89264821Y-86259729D01*
X89263586Y-86267533D01*
X89247023Y-86300039D01*
X89227124Y-86345106D01*
X89148906Y-86423324D01*
X89103839Y-86443223D01*
X89071333Y-86459786D01*
X89063529Y-86461021D01*
X89047715Y-86468005D01*
X88978800Y-86475999D01*
X88968970Y-86475999D01*
X88968964Y-86476000D01*
X86138636Y-86476000D01*
X86138635Y-86475999D01*
X86128799Y-86476000D01*
X86059885Y-86468005D01*
X86044070Y-86461022D01*
X86036266Y-86459786D01*
X86003753Y-86443219D01*
X85958694Y-86423324D01*
X85880476Y-86345106D01*
X85860583Y-86300054D01*
X85844013Y-86267533D01*
X85842776Y-86259726D01*
X85835795Y-86243915D01*
X85827801Y-86175000D01*
X85827800Y-86165169D01*
X85827800Y-86165163D01*
X85827800Y-85284836D01*
X85827800Y-85284835D01*
X85827800Y-85274999D01*
X85835795Y-85206085D01*
X85842776Y-85190273D01*
X85844013Y-85182466D01*
X85860586Y-85149938D01*
X85880476Y-85104894D01*
X85958694Y-85026676D01*
X86003738Y-85006786D01*
X86036266Y-84990213D01*
X86044073Y-84988976D01*
X86059885Y-84981995D01*
X86128800Y-84974001D01*
X86138629Y-84974000D01*
X86138636Y-84974000D01*
X88968964Y-84974000D01*
X88978801Y-84974000D01*
X89047715Y-84981995D01*
G37*
G36*
X93876214Y-85170695D02*
G01*
X93892026Y-85177676D01*
X93899831Y-85178913D01*
X93932339Y-85195476D01*
X93977406Y-85215376D01*
X94055624Y-85293594D01*
X94075526Y-85338667D01*
X94092086Y-85371168D01*
X94093321Y-85378970D01*
X94100305Y-85394786D01*
X94108300Y-85463700D01*
X94108300Y-86138700D01*
X94100305Y-86207614D01*
X94093321Y-86223429D01*
X94092086Y-86231231D01*
X94075529Y-86263724D01*
X94055624Y-86308806D01*
X93977406Y-86387024D01*
X93932324Y-86406929D01*
X93899831Y-86423486D01*
X93892029Y-86424721D01*
X93876214Y-86431705D01*
X93807300Y-86439700D01*
X92857300Y-86439700D01*
X92788386Y-86431705D01*
X92772570Y-86424721D01*
X92764768Y-86423486D01*
X92732267Y-86406926D01*
X92687194Y-86387024D01*
X92608976Y-86308806D01*
X92589076Y-86263739D01*
X92572513Y-86231231D01*
X92571276Y-86223426D01*
X92564295Y-86207614D01*
X92556300Y-86138700D01*
X92556300Y-85463700D01*
X92564295Y-85394786D01*
X92571276Y-85378974D01*
X92572513Y-85371168D01*
X92589080Y-85338653D01*
X92608976Y-85293594D01*
X92687194Y-85215376D01*
X92732253Y-85195480D01*
X92764768Y-85178913D01*
X92772574Y-85177676D01*
X92788386Y-85170695D01*
X92857300Y-85162700D01*
X93807300Y-85162700D01*
X93876214Y-85170695D01*
G37*
G36*
X119733414Y-85141395D02*
G01*
X119749226Y-85148376D01*
X119757031Y-85149613D01*
X119789539Y-85166176D01*
X119834606Y-85186076D01*
X119912824Y-85264294D01*
X119932726Y-85309367D01*
X119949286Y-85341868D01*
X119950521Y-85349670D01*
X119957505Y-85365486D01*
X119965500Y-85434400D01*
X119965500Y-86109400D01*
X119957505Y-86178314D01*
X119950521Y-86194129D01*
X119949286Y-86201931D01*
X119932729Y-86234424D01*
X119912824Y-86279506D01*
X119834606Y-86357724D01*
X119789524Y-86377629D01*
X119757031Y-86394186D01*
X119749229Y-86395421D01*
X119733414Y-86402405D01*
X119664500Y-86410400D01*
X118714500Y-86410400D01*
X118645586Y-86402405D01*
X118629770Y-86395421D01*
X118621968Y-86394186D01*
X118589467Y-86377626D01*
X118544394Y-86357724D01*
X118466176Y-86279506D01*
X118446276Y-86234439D01*
X118429713Y-86201931D01*
X118428476Y-86194126D01*
X118421495Y-86178314D01*
X118413500Y-86109400D01*
X118413500Y-85434400D01*
X118421495Y-85365486D01*
X118428476Y-85349674D01*
X118429713Y-85341868D01*
X118446280Y-85309353D01*
X118466176Y-85264294D01*
X118544394Y-85186076D01*
X118589453Y-85166180D01*
X118621968Y-85149613D01*
X118629774Y-85148376D01*
X118645586Y-85141395D01*
X118714500Y-85133400D01*
X119664500Y-85133400D01*
X119733414Y-85141395D01*
G37*
G36*
X170431814Y-85007795D02*
G01*
X170447626Y-85014776D01*
X170455431Y-85016013D01*
X170487939Y-85032576D01*
X170533006Y-85052476D01*
X170611224Y-85130694D01*
X170631126Y-85175767D01*
X170647686Y-85208268D01*
X170648921Y-85216070D01*
X170655905Y-85231886D01*
X170663900Y-85300800D01*
X170663900Y-85975800D01*
X170655905Y-86044714D01*
X170648921Y-86060529D01*
X170647686Y-86068331D01*
X170631129Y-86100824D01*
X170611224Y-86145906D01*
X170533006Y-86224124D01*
X170487924Y-86244029D01*
X170455431Y-86260586D01*
X170447629Y-86261821D01*
X170431814Y-86268805D01*
X170362900Y-86276800D01*
X169412900Y-86276800D01*
X169343986Y-86268805D01*
X169328170Y-86261821D01*
X169320368Y-86260586D01*
X169287867Y-86244026D01*
X169242794Y-86224124D01*
X169164576Y-86145906D01*
X169144676Y-86100839D01*
X169128113Y-86068331D01*
X169126876Y-86060526D01*
X169119895Y-86044714D01*
X169111900Y-85975800D01*
X169111900Y-85300800D01*
X169119895Y-85231886D01*
X169126876Y-85216074D01*
X169128113Y-85208268D01*
X169144680Y-85175753D01*
X169164576Y-85130694D01*
X169242794Y-85052476D01*
X169287853Y-85032580D01*
X169320368Y-85016013D01*
X169328174Y-85014776D01*
X169343986Y-85007795D01*
X169412900Y-84999800D01*
X170362900Y-84999800D01*
X170431814Y-85007795D01*
G37*
G36*
X144930214Y-83171895D02*
G01*
X144946026Y-83178876D01*
X144953831Y-83180113D01*
X144986339Y-83196676D01*
X145031406Y-83216576D01*
X145109624Y-83294794D01*
X145129526Y-83339867D01*
X145146086Y-83372368D01*
X145147321Y-83380170D01*
X145154305Y-83395986D01*
X145162300Y-83464900D01*
X145162300Y-84139900D01*
X145154305Y-84208814D01*
X145147321Y-84224629D01*
X145146086Y-84232431D01*
X145129529Y-84264924D01*
X145109624Y-84310006D01*
X145031406Y-84388224D01*
X144986324Y-84408129D01*
X144953831Y-84424686D01*
X144946029Y-84425921D01*
X144930214Y-84432905D01*
X144861300Y-84440900D01*
X143911300Y-84440900D01*
X143842386Y-84432905D01*
X143826570Y-84425921D01*
X143818768Y-84424686D01*
X143786267Y-84408126D01*
X143741194Y-84388224D01*
X143662976Y-84310006D01*
X143643076Y-84264939D01*
X143626513Y-84232431D01*
X143625276Y-84224626D01*
X143618295Y-84208814D01*
X143610300Y-84139900D01*
X143610300Y-83464900D01*
X143618295Y-83395986D01*
X143625276Y-83380174D01*
X143626513Y-83372368D01*
X143643080Y-83339853D01*
X143662976Y-83294794D01*
X143741194Y-83216576D01*
X143786253Y-83196680D01*
X143818768Y-83180113D01*
X143826574Y-83178876D01*
X143842386Y-83171895D01*
X143911300Y-83163900D01*
X144861300Y-83163900D01*
X144930214Y-83171895D01*
G37*
G36*
X93876214Y-83095695D02*
G01*
X93892026Y-83102676D01*
X93899831Y-83103913D01*
X93932339Y-83120476D01*
X93977406Y-83140376D01*
X94055624Y-83218594D01*
X94075526Y-83263667D01*
X94092086Y-83296168D01*
X94093321Y-83303970D01*
X94100305Y-83319786D01*
X94108300Y-83388700D01*
X94108300Y-84063700D01*
X94100305Y-84132614D01*
X94093321Y-84148429D01*
X94092086Y-84156231D01*
X94075529Y-84188724D01*
X94055624Y-84233806D01*
X93977406Y-84312024D01*
X93932324Y-84331929D01*
X93899831Y-84348486D01*
X93892029Y-84349721D01*
X93876214Y-84356705D01*
X93807300Y-84364700D01*
X92857300Y-84364700D01*
X92788386Y-84356705D01*
X92772570Y-84349721D01*
X92764768Y-84348486D01*
X92732267Y-84331926D01*
X92687194Y-84312024D01*
X92608976Y-84233806D01*
X92589076Y-84188739D01*
X92572513Y-84156231D01*
X92571276Y-84148426D01*
X92564295Y-84132614D01*
X92556300Y-84063700D01*
X92556300Y-83388700D01*
X92564295Y-83319786D01*
X92571276Y-83303974D01*
X92572513Y-83296168D01*
X92589080Y-83263653D01*
X92608976Y-83218594D01*
X92687194Y-83140376D01*
X92732253Y-83120480D01*
X92764768Y-83103913D01*
X92772574Y-83102676D01*
X92788386Y-83095695D01*
X92857300Y-83087700D01*
X93807300Y-83087700D01*
X93876214Y-83095695D01*
G37*
G36*
X119733414Y-83066395D02*
G01*
X119749226Y-83073376D01*
X119757031Y-83074613D01*
X119789539Y-83091176D01*
X119834606Y-83111076D01*
X119912824Y-83189294D01*
X119932726Y-83234367D01*
X119949286Y-83266868D01*
X119950521Y-83274670D01*
X119957505Y-83290486D01*
X119965500Y-83359400D01*
X119965500Y-84034400D01*
X119957505Y-84103314D01*
X119950521Y-84119129D01*
X119949286Y-84126931D01*
X119932729Y-84159424D01*
X119912824Y-84204506D01*
X119834606Y-84282724D01*
X119789524Y-84302629D01*
X119757031Y-84319186D01*
X119749229Y-84320421D01*
X119733414Y-84327405D01*
X119664500Y-84335400D01*
X118714500Y-84335400D01*
X118645586Y-84327405D01*
X118629770Y-84320421D01*
X118621968Y-84319186D01*
X118589467Y-84302626D01*
X118544394Y-84282724D01*
X118466176Y-84204506D01*
X118446276Y-84159439D01*
X118429713Y-84126931D01*
X118428476Y-84119126D01*
X118421495Y-84103314D01*
X118413500Y-84034400D01*
X118413500Y-83359400D01*
X118421495Y-83290486D01*
X118428476Y-83274674D01*
X118429713Y-83266868D01*
X118446280Y-83234353D01*
X118466176Y-83189294D01*
X118544394Y-83111076D01*
X118589453Y-83091180D01*
X118621968Y-83074613D01*
X118629774Y-83073376D01*
X118645586Y-83066395D01*
X118714500Y-83058400D01*
X119664500Y-83058400D01*
X119733414Y-83066395D01*
G37*
G36*
X170431814Y-82932795D02*
G01*
X170447626Y-82939776D01*
X170455431Y-82941013D01*
X170487939Y-82957576D01*
X170533006Y-82977476D01*
X170611224Y-83055694D01*
X170631126Y-83100767D01*
X170647686Y-83133268D01*
X170648921Y-83141070D01*
X170655905Y-83156886D01*
X170663900Y-83225800D01*
X170663900Y-83900800D01*
X170655905Y-83969714D01*
X170648921Y-83985529D01*
X170647686Y-83993331D01*
X170631129Y-84025824D01*
X170611224Y-84070906D01*
X170533006Y-84149124D01*
X170487924Y-84169029D01*
X170455431Y-84185586D01*
X170447629Y-84186821D01*
X170431814Y-84193805D01*
X170362900Y-84201800D01*
X169412900Y-84201800D01*
X169343986Y-84193805D01*
X169328170Y-84186821D01*
X169320368Y-84185586D01*
X169287867Y-84169026D01*
X169242794Y-84149124D01*
X169164576Y-84070906D01*
X169144676Y-84025839D01*
X169128113Y-83993331D01*
X169126876Y-83985526D01*
X169119895Y-83969714D01*
X169111900Y-83900800D01*
X169111900Y-83225800D01*
X169119895Y-83156886D01*
X169126876Y-83141074D01*
X169128113Y-83133268D01*
X169144680Y-83100753D01*
X169164576Y-83055694D01*
X169242794Y-82977476D01*
X169287853Y-82957580D01*
X169320368Y-82941013D01*
X169328174Y-82939776D01*
X169343986Y-82932795D01*
X169412900Y-82924800D01*
X170362900Y-82924800D01*
X170431814Y-82932795D01*
G37*
G36*
X196367214Y-82594395D02*
G01*
X196383026Y-82601376D01*
X196390831Y-82602613D01*
X196423339Y-82619176D01*
X196468406Y-82639076D01*
X196546624Y-82717294D01*
X196566526Y-82762367D01*
X196583086Y-82794868D01*
X196584321Y-82802670D01*
X196591305Y-82818486D01*
X196599300Y-82887400D01*
X196599300Y-83787400D01*
X196591305Y-83856314D01*
X196584321Y-83872129D01*
X196583086Y-83879931D01*
X196566529Y-83912424D01*
X196546624Y-83957506D01*
X196468406Y-84035724D01*
X196423324Y-84055629D01*
X196390831Y-84072186D01*
X196383029Y-84073421D01*
X196367214Y-84080405D01*
X196298300Y-84088400D01*
X195598300Y-84088400D01*
X195529386Y-84080405D01*
X195513570Y-84073421D01*
X195505768Y-84072186D01*
X195473267Y-84055626D01*
X195428194Y-84035724D01*
X195349976Y-83957506D01*
X195330076Y-83912439D01*
X195313513Y-83879931D01*
X195312276Y-83872126D01*
X195305295Y-83856314D01*
X195297300Y-83787400D01*
X195297300Y-82887400D01*
X195305295Y-82818486D01*
X195312276Y-82802674D01*
X195313513Y-82794868D01*
X195330080Y-82762353D01*
X195349976Y-82717294D01*
X195428194Y-82639076D01*
X195473253Y-82619180D01*
X195505768Y-82602613D01*
X195513574Y-82601376D01*
X195529386Y-82594395D01*
X195598300Y-82586400D01*
X196298300Y-82586400D01*
X196367214Y-82594395D01*
G37*
G36*
X198367214Y-82594395D02*
G01*
X198383026Y-82601376D01*
X198390831Y-82602613D01*
X198423339Y-82619176D01*
X198468406Y-82639076D01*
X198546624Y-82717294D01*
X198566526Y-82762367D01*
X198583086Y-82794868D01*
X198584321Y-82802670D01*
X198591305Y-82818486D01*
X198599300Y-82887400D01*
X198599300Y-83787400D01*
X198591305Y-83856314D01*
X198584321Y-83872129D01*
X198583086Y-83879931D01*
X198566529Y-83912424D01*
X198546624Y-83957506D01*
X198468406Y-84035724D01*
X198423324Y-84055629D01*
X198390831Y-84072186D01*
X198383029Y-84073421D01*
X198367214Y-84080405D01*
X198298300Y-84088400D01*
X197598300Y-84088400D01*
X197529386Y-84080405D01*
X197513570Y-84073421D01*
X197505768Y-84072186D01*
X197473267Y-84055626D01*
X197428194Y-84035724D01*
X197349976Y-83957506D01*
X197330076Y-83912439D01*
X197313513Y-83879931D01*
X197312276Y-83872126D01*
X197305295Y-83856314D01*
X197297300Y-83787400D01*
X197297300Y-82887400D01*
X197305295Y-82818486D01*
X197312276Y-82802674D01*
X197313513Y-82794868D01*
X197330080Y-82762353D01*
X197349976Y-82717294D01*
X197428194Y-82639076D01*
X197473253Y-82619180D01*
X197505768Y-82602613D01*
X197513574Y-82601376D01*
X197529386Y-82594395D01*
X197598300Y-82586400D01*
X198298300Y-82586400D01*
X198367214Y-82594395D01*
G37*
G36*
X209011714Y-80156395D02*
G01*
X209027526Y-80163376D01*
X209035331Y-80164613D01*
X209067839Y-80181176D01*
X209112906Y-80201076D01*
X209191124Y-80279294D01*
X209211026Y-80324367D01*
X209227586Y-80356868D01*
X209228821Y-80364670D01*
X209235805Y-80380486D01*
X209243800Y-80449400D01*
X209243800Y-81399400D01*
X209235805Y-81468314D01*
X209228821Y-81484129D01*
X209227586Y-81491931D01*
X209211029Y-81524424D01*
X209191124Y-81569506D01*
X209112906Y-81647724D01*
X209067824Y-81667629D01*
X209035331Y-81684186D01*
X209027529Y-81685421D01*
X209011714Y-81692405D01*
X208942800Y-81700400D01*
X208267800Y-81700400D01*
X208198886Y-81692405D01*
X208183070Y-81685421D01*
X208175268Y-81684186D01*
X208142767Y-81667626D01*
X208097694Y-81647724D01*
X208019476Y-81569506D01*
X207999576Y-81524439D01*
X207983013Y-81491931D01*
X207981776Y-81484126D01*
X207974795Y-81468314D01*
X207966800Y-81399400D01*
X207966800Y-80449400D01*
X207974795Y-80380486D01*
X207981776Y-80364674D01*
X207983013Y-80356868D01*
X207999580Y-80324353D01*
X208019476Y-80279294D01*
X208097694Y-80201076D01*
X208142753Y-80181180D01*
X208175268Y-80164613D01*
X208183074Y-80163376D01*
X208198886Y-80156395D01*
X208267800Y-80148400D01*
X208942800Y-80148400D01*
X209011714Y-80156395D01*
G37*
G36*
X211086714Y-80156395D02*
G01*
X211102526Y-80163376D01*
X211110331Y-80164613D01*
X211142839Y-80181176D01*
X211187906Y-80201076D01*
X211266124Y-80279294D01*
X211286026Y-80324367D01*
X211302586Y-80356868D01*
X211303821Y-80364670D01*
X211310805Y-80380486D01*
X211318800Y-80449400D01*
X211318800Y-81399400D01*
X211310805Y-81468314D01*
X211303821Y-81484129D01*
X211302586Y-81491931D01*
X211286029Y-81524424D01*
X211266124Y-81569506D01*
X211187906Y-81647724D01*
X211142824Y-81667629D01*
X211110331Y-81684186D01*
X211102529Y-81685421D01*
X211086714Y-81692405D01*
X211017800Y-81700400D01*
X210342800Y-81700400D01*
X210273886Y-81692405D01*
X210258070Y-81685421D01*
X210250268Y-81684186D01*
X210217767Y-81667626D01*
X210172694Y-81647724D01*
X210094476Y-81569506D01*
X210074576Y-81524439D01*
X210058013Y-81491931D01*
X210056776Y-81484126D01*
X210049795Y-81468314D01*
X210041800Y-81399400D01*
X210041800Y-80449400D01*
X210049795Y-80380486D01*
X210056776Y-80364674D01*
X210058013Y-80356868D01*
X210074580Y-80324353D01*
X210094476Y-80279294D01*
X210172694Y-80201076D01*
X210217753Y-80181180D01*
X210250268Y-80164613D01*
X210258074Y-80163376D01*
X210273886Y-80156395D01*
X210342800Y-80148400D01*
X211017800Y-80148400D01*
X211086714Y-80156395D01*
G37*
G36*
X196399214Y-80181395D02*
G01*
X196415026Y-80188376D01*
X196422831Y-80189613D01*
X196455339Y-80206176D01*
X196500406Y-80226076D01*
X196578624Y-80304294D01*
X196598526Y-80349367D01*
X196615086Y-80381868D01*
X196616321Y-80389670D01*
X196623305Y-80405486D01*
X196631300Y-80474400D01*
X196631300Y-81374400D01*
X196623305Y-81443314D01*
X196616321Y-81459129D01*
X196615086Y-81466931D01*
X196598529Y-81499424D01*
X196578624Y-81544506D01*
X196500406Y-81622724D01*
X196455324Y-81642629D01*
X196422831Y-81659186D01*
X196415029Y-81660421D01*
X196399214Y-81667405D01*
X196330300Y-81675400D01*
X195630300Y-81675400D01*
X195561386Y-81667405D01*
X195545570Y-81660421D01*
X195537768Y-81659186D01*
X195505267Y-81642626D01*
X195460194Y-81622724D01*
X195381976Y-81544506D01*
X195362076Y-81499439D01*
X195345513Y-81466931D01*
X195344276Y-81459126D01*
X195337295Y-81443314D01*
X195329300Y-81374400D01*
X195329300Y-80474400D01*
X195337295Y-80405486D01*
X195344276Y-80389674D01*
X195345513Y-80381868D01*
X195362080Y-80349353D01*
X195381976Y-80304294D01*
X195460194Y-80226076D01*
X195505253Y-80206180D01*
X195537768Y-80189613D01*
X195545574Y-80188376D01*
X195561386Y-80181395D01*
X195630300Y-80173400D01*
X196330300Y-80173400D01*
X196399214Y-80181395D01*
G37*
G36*
X198399214Y-80181395D02*
G01*
X198415026Y-80188376D01*
X198422831Y-80189613D01*
X198455339Y-80206176D01*
X198500406Y-80226076D01*
X198578624Y-80304294D01*
X198598526Y-80349367D01*
X198615086Y-80381868D01*
X198616321Y-80389670D01*
X198623305Y-80405486D01*
X198631300Y-80474400D01*
X198631300Y-81374400D01*
X198623305Y-81443314D01*
X198616321Y-81459129D01*
X198615086Y-81466931D01*
X198598529Y-81499424D01*
X198578624Y-81544506D01*
X198500406Y-81622724D01*
X198455324Y-81642629D01*
X198422831Y-81659186D01*
X198415029Y-81660421D01*
X198399214Y-81667405D01*
X198330300Y-81675400D01*
X197630300Y-81675400D01*
X197561386Y-81667405D01*
X197545570Y-81660421D01*
X197537768Y-81659186D01*
X197505267Y-81642626D01*
X197460194Y-81622724D01*
X197381976Y-81544506D01*
X197362076Y-81499439D01*
X197345513Y-81466931D01*
X197344276Y-81459126D01*
X197337295Y-81443314D01*
X197329300Y-81374400D01*
X197329300Y-80474400D01*
X197337295Y-80405486D01*
X197344276Y-80389674D01*
X197345513Y-80381868D01*
X197362080Y-80349353D01*
X197381976Y-80304294D01*
X197460194Y-80226076D01*
X197505253Y-80206180D01*
X197537768Y-80189613D01*
X197545574Y-80188376D01*
X197561386Y-80181395D01*
X197630300Y-80173400D01*
X198330300Y-80173400D01*
X198399214Y-80181395D01*
G37*
G36*
X214020414Y-80130995D02*
G01*
X214036226Y-80137976D01*
X214044031Y-80139213D01*
X214076539Y-80155776D01*
X214121606Y-80175676D01*
X214199824Y-80253894D01*
X214219726Y-80298967D01*
X214236286Y-80331468D01*
X214237521Y-80339270D01*
X214244505Y-80355086D01*
X214252500Y-80424000D01*
X214252500Y-81374000D01*
X214244505Y-81442914D01*
X214237521Y-81458729D01*
X214236286Y-81466531D01*
X214219729Y-81499024D01*
X214199824Y-81544106D01*
X214121606Y-81622324D01*
X214076524Y-81642229D01*
X214044031Y-81658786D01*
X214036229Y-81660021D01*
X214020414Y-81667005D01*
X213951500Y-81675000D01*
X213276500Y-81675000D01*
X213207586Y-81667005D01*
X213191770Y-81660021D01*
X213183968Y-81658786D01*
X213151467Y-81642226D01*
X213106394Y-81622324D01*
X213028176Y-81544106D01*
X213008276Y-81499039D01*
X212991713Y-81466531D01*
X212990476Y-81458726D01*
X212983495Y-81442914D01*
X212975500Y-81374000D01*
X212975500Y-80424000D01*
X212983495Y-80355086D01*
X212990476Y-80339274D01*
X212991713Y-80331468D01*
X213008280Y-80298953D01*
X213028176Y-80253894D01*
X213106394Y-80175676D01*
X213151453Y-80155780D01*
X213183968Y-80139213D01*
X213191774Y-80137976D01*
X213207586Y-80130995D01*
X213276500Y-80123000D01*
X213951500Y-80123000D01*
X214020414Y-80130995D01*
G37*
G36*
X216095414Y-80130995D02*
G01*
X216111226Y-80137976D01*
X216119031Y-80139213D01*
X216151539Y-80155776D01*
X216196606Y-80175676D01*
X216274824Y-80253894D01*
X216294726Y-80298967D01*
X216311286Y-80331468D01*
X216312521Y-80339270D01*
X216319505Y-80355086D01*
X216327500Y-80424000D01*
X216327500Y-81374000D01*
X216319505Y-81442914D01*
X216312521Y-81458729D01*
X216311286Y-81466531D01*
X216294729Y-81499024D01*
X216274824Y-81544106D01*
X216196606Y-81622324D01*
X216151524Y-81642229D01*
X216119031Y-81658786D01*
X216111229Y-81660021D01*
X216095414Y-81667005D01*
X216026500Y-81675000D01*
X215351500Y-81675000D01*
X215282586Y-81667005D01*
X215266770Y-81660021D01*
X215258968Y-81658786D01*
X215226467Y-81642226D01*
X215181394Y-81622324D01*
X215103176Y-81544106D01*
X215083276Y-81499039D01*
X215066713Y-81466531D01*
X215065476Y-81458726D01*
X215058495Y-81442914D01*
X215050500Y-81374000D01*
X215050500Y-80424000D01*
X215058495Y-80355086D01*
X215065476Y-80339274D01*
X215066713Y-80331468D01*
X215083280Y-80298953D01*
X215103176Y-80253894D01*
X215181394Y-80175676D01*
X215226453Y-80155780D01*
X215258968Y-80139213D01*
X215266774Y-80137976D01*
X215282586Y-80130995D01*
X215351500Y-80123000D01*
X216026500Y-80123000D01*
X216095414Y-80130995D01*
G37*
G36*
X89415683Y-78096794D02*
G01*
X89586323Y-78123821D01*
X89750634Y-78177209D01*
X89904571Y-78255643D01*
X90044342Y-78357193D01*
X90166507Y-78479358D01*
X90268057Y-78619129D01*
X90346491Y-78773066D01*
X90399879Y-78937377D01*
X90426906Y-79108017D01*
X90426906Y-79280783D01*
X90399879Y-79451423D01*
X90346491Y-79615734D01*
X90268057Y-79769671D01*
X90166507Y-79909442D01*
X90044342Y-80031607D01*
X89904571Y-80133157D01*
X89750634Y-80211591D01*
X89586323Y-80264979D01*
X89415683Y-80292006D01*
X89329300Y-80295400D01*
X89326837Y-80295400D01*
X85881763Y-80295400D01*
X85879300Y-80295400D01*
X85792917Y-80292006D01*
X85622277Y-80264979D01*
X85457966Y-80211591D01*
X85304029Y-80133157D01*
X85164258Y-80031607D01*
X85042093Y-79909442D01*
X84940543Y-79769671D01*
X84862109Y-79615734D01*
X84808721Y-79451423D01*
X84781694Y-79280783D01*
X84781694Y-79108017D01*
X84808721Y-78937377D01*
X84862109Y-78773066D01*
X84940543Y-78619129D01*
X85042093Y-78479358D01*
X85164258Y-78357193D01*
X85304029Y-78255643D01*
X85457966Y-78177209D01*
X85622277Y-78123821D01*
X85792917Y-78096794D01*
X85879300Y-78093400D01*
X89329300Y-78093400D01*
X89415683Y-78096794D01*
G37*
G36*
X97315683Y-78096794D02*
G01*
X97486323Y-78123821D01*
X97650634Y-78177209D01*
X97804571Y-78255643D01*
X97944342Y-78357193D01*
X98066507Y-78479358D01*
X98168057Y-78619129D01*
X98246491Y-78773066D01*
X98299879Y-78937377D01*
X98326906Y-79108017D01*
X98326906Y-79280783D01*
X98299879Y-79451423D01*
X98246491Y-79615734D01*
X98168057Y-79769671D01*
X98066507Y-79909442D01*
X97944342Y-80031607D01*
X97804571Y-80133157D01*
X97650634Y-80211591D01*
X97486323Y-80264979D01*
X97315683Y-80292006D01*
X97229300Y-80295400D01*
X97226837Y-80295400D01*
X93781763Y-80295400D01*
X93779300Y-80295400D01*
X93692917Y-80292006D01*
X93522277Y-80264979D01*
X93357966Y-80211591D01*
X93204029Y-80133157D01*
X93064258Y-80031607D01*
X92942093Y-79909442D01*
X92840543Y-79769671D01*
X92762109Y-79615734D01*
X92708721Y-79451423D01*
X92681694Y-79280783D01*
X92681694Y-79108017D01*
X92708721Y-78937377D01*
X92762109Y-78773066D01*
X92840543Y-78619129D01*
X92942093Y-78479358D01*
X93064258Y-78357193D01*
X93204029Y-78255643D01*
X93357966Y-78177209D01*
X93522277Y-78123821D01*
X93692917Y-78096794D01*
X93779300Y-78093400D01*
X97229300Y-78093400D01*
X97315683Y-78096794D01*
G37*
G36*
X115311283Y-78048794D02*
G01*
X115481923Y-78075821D01*
X115646234Y-78129209D01*
X115800171Y-78207643D01*
X115939942Y-78309193D01*
X116062107Y-78431358D01*
X116163657Y-78571129D01*
X116242091Y-78725066D01*
X116295479Y-78889377D01*
X116322506Y-79060017D01*
X116322506Y-79232783D01*
X116295479Y-79403423D01*
X116242091Y-79567734D01*
X116163657Y-79721671D01*
X116062107Y-79861442D01*
X115939942Y-79983607D01*
X115800171Y-80085157D01*
X115646234Y-80163591D01*
X115481923Y-80216979D01*
X115311283Y-80244006D01*
X115224900Y-80247400D01*
X115222437Y-80247400D01*
X111777363Y-80247400D01*
X111774900Y-80247400D01*
X111688517Y-80244006D01*
X111517877Y-80216979D01*
X111353566Y-80163591D01*
X111199629Y-80085157D01*
X111059858Y-79983607D01*
X110937693Y-79861442D01*
X110836143Y-79721671D01*
X110757709Y-79567734D01*
X110704321Y-79403423D01*
X110677294Y-79232783D01*
X110677294Y-79060017D01*
X110704321Y-78889377D01*
X110757709Y-78725066D01*
X110836143Y-78571129D01*
X110937693Y-78431358D01*
X111059858Y-78309193D01*
X111199629Y-78207643D01*
X111353566Y-78129209D01*
X111517877Y-78075821D01*
X111688517Y-78048794D01*
X111774900Y-78045400D01*
X115224900Y-78045400D01*
X115311283Y-78048794D01*
G37*
G36*
X123211283Y-78048794D02*
G01*
X123381923Y-78075821D01*
X123546234Y-78129209D01*
X123700171Y-78207643D01*
X123839942Y-78309193D01*
X123962107Y-78431358D01*
X124063657Y-78571129D01*
X124142091Y-78725066D01*
X124195479Y-78889377D01*
X124222506Y-79060017D01*
X124222506Y-79232783D01*
X124195479Y-79403423D01*
X124142091Y-79567734D01*
X124063657Y-79721671D01*
X123962107Y-79861442D01*
X123839942Y-79983607D01*
X123700171Y-80085157D01*
X123546234Y-80163591D01*
X123381923Y-80216979D01*
X123211283Y-80244006D01*
X123124900Y-80247400D01*
X123122437Y-80247400D01*
X119677363Y-80247400D01*
X119674900Y-80247400D01*
X119588517Y-80244006D01*
X119417877Y-80216979D01*
X119253566Y-80163591D01*
X119099629Y-80085157D01*
X118959858Y-79983607D01*
X118837693Y-79861442D01*
X118736143Y-79721671D01*
X118657709Y-79567734D01*
X118604321Y-79403423D01*
X118577294Y-79232783D01*
X118577294Y-79060017D01*
X118604321Y-78889377D01*
X118657709Y-78725066D01*
X118736143Y-78571129D01*
X118837693Y-78431358D01*
X118959858Y-78309193D01*
X119099629Y-78207643D01*
X119253566Y-78129209D01*
X119417877Y-78075821D01*
X119588517Y-78048794D01*
X119674900Y-78045400D01*
X123124900Y-78045400D01*
X123211283Y-78048794D01*
G37*
G36*
X166085283Y-77947194D02*
G01*
X166255923Y-77974221D01*
X166420234Y-78027609D01*
X166574171Y-78106043D01*
X166713942Y-78207593D01*
X166836107Y-78329758D01*
X166937657Y-78469529D01*
X167016091Y-78623466D01*
X167069479Y-78787777D01*
X167096506Y-78958417D01*
X167096506Y-79131183D01*
X167069479Y-79301823D01*
X167016091Y-79466134D01*
X166937657Y-79620071D01*
X166836107Y-79759842D01*
X166713942Y-79882007D01*
X166574171Y-79983557D01*
X166420234Y-80061991D01*
X166255923Y-80115379D01*
X166085283Y-80142406D01*
X165998900Y-80145800D01*
X165996437Y-80145800D01*
X162551363Y-80145800D01*
X162548900Y-80145800D01*
X162462517Y-80142406D01*
X162291877Y-80115379D01*
X162127566Y-80061991D01*
X161973629Y-79983557D01*
X161833858Y-79882007D01*
X161711693Y-79759842D01*
X161610143Y-79620071D01*
X161531709Y-79466134D01*
X161478321Y-79301823D01*
X161451294Y-79131183D01*
X161451294Y-78958417D01*
X161478321Y-78787777D01*
X161531709Y-78623466D01*
X161610143Y-78469529D01*
X161711693Y-78329758D01*
X161833858Y-78207593D01*
X161973629Y-78106043D01*
X162127566Y-78027609D01*
X162291877Y-77974221D01*
X162462517Y-77947194D01*
X162548900Y-77943800D01*
X165998900Y-77943800D01*
X166085283Y-77947194D01*
G37*
G36*
X173985283Y-77947194D02*
G01*
X174155923Y-77974221D01*
X174320234Y-78027609D01*
X174474171Y-78106043D01*
X174613942Y-78207593D01*
X174736107Y-78329758D01*
X174837657Y-78469529D01*
X174916091Y-78623466D01*
X174969479Y-78787777D01*
X174996506Y-78958417D01*
X174996506Y-79131183D01*
X174969479Y-79301823D01*
X174916091Y-79466134D01*
X174837657Y-79620071D01*
X174736107Y-79759842D01*
X174613942Y-79882007D01*
X174474171Y-79983557D01*
X174320234Y-80061991D01*
X174155923Y-80115379D01*
X173985283Y-80142406D01*
X173898900Y-80145800D01*
X173896437Y-80145800D01*
X170451363Y-80145800D01*
X170448900Y-80145800D01*
X170362517Y-80142406D01*
X170191877Y-80115379D01*
X170027566Y-80061991D01*
X169873629Y-79983557D01*
X169733858Y-79882007D01*
X169611693Y-79759842D01*
X169510143Y-79620071D01*
X169431709Y-79466134D01*
X169378321Y-79301823D01*
X169351294Y-79131183D01*
X169351294Y-78958417D01*
X169378321Y-78787777D01*
X169431709Y-78623466D01*
X169510143Y-78469529D01*
X169611693Y-78329758D01*
X169733858Y-78207593D01*
X169873629Y-78106043D01*
X170027566Y-78027609D01*
X170191877Y-77974221D01*
X170362517Y-77947194D01*
X170448900Y-77943800D01*
X173898900Y-77943800D01*
X173985283Y-77947194D01*
G37*
G36*
X140583683Y-77921794D02*
G01*
X140754323Y-77948821D01*
X140918634Y-78002209D01*
X141072571Y-78080643D01*
X141212342Y-78182193D01*
X141334507Y-78304358D01*
X141436057Y-78444129D01*
X141514491Y-78598066D01*
X141567879Y-78762377D01*
X141594906Y-78933017D01*
X141594906Y-79105783D01*
X141567879Y-79276423D01*
X141514491Y-79440734D01*
X141436057Y-79594671D01*
X141334507Y-79734442D01*
X141212342Y-79856607D01*
X141072571Y-79958157D01*
X140918634Y-80036591D01*
X140754323Y-80089979D01*
X140583683Y-80117006D01*
X140497300Y-80120400D01*
X140494837Y-80120400D01*
X137049763Y-80120400D01*
X137047300Y-80120400D01*
X136960917Y-80117006D01*
X136790277Y-80089979D01*
X136625966Y-80036591D01*
X136472029Y-79958157D01*
X136332258Y-79856607D01*
X136210093Y-79734442D01*
X136108543Y-79594671D01*
X136030109Y-79440734D01*
X135976721Y-79276423D01*
X135949694Y-79105783D01*
X135949694Y-78933017D01*
X135976721Y-78762377D01*
X136030109Y-78598066D01*
X136108543Y-78444129D01*
X136210093Y-78304358D01*
X136332258Y-78182193D01*
X136472029Y-78080643D01*
X136625966Y-78002209D01*
X136790277Y-77948821D01*
X136960917Y-77921794D01*
X137047300Y-77918400D01*
X140497300Y-77918400D01*
X140583683Y-77921794D01*
G37*
G36*
X148483683Y-77921794D02*
G01*
X148654323Y-77948821D01*
X148818634Y-78002209D01*
X148972571Y-78080643D01*
X149112342Y-78182193D01*
X149234507Y-78304358D01*
X149336057Y-78444129D01*
X149414491Y-78598066D01*
X149467879Y-78762377D01*
X149494906Y-78933017D01*
X149494906Y-79105783D01*
X149467879Y-79276423D01*
X149414491Y-79440734D01*
X149336057Y-79594671D01*
X149234507Y-79734442D01*
X149112342Y-79856607D01*
X148972571Y-79958157D01*
X148818634Y-80036591D01*
X148654323Y-80089979D01*
X148483683Y-80117006D01*
X148397300Y-80120400D01*
X148394837Y-80120400D01*
X144949763Y-80120400D01*
X144947300Y-80120400D01*
X144860917Y-80117006D01*
X144690277Y-80089979D01*
X144525966Y-80036591D01*
X144372029Y-79958157D01*
X144232258Y-79856607D01*
X144110093Y-79734442D01*
X144008543Y-79594671D01*
X143930109Y-79440734D01*
X143876721Y-79276423D01*
X143849694Y-79105783D01*
X143849694Y-78933017D01*
X143876721Y-78762377D01*
X143930109Y-78598066D01*
X144008543Y-78444129D01*
X144110093Y-78304358D01*
X144232258Y-78182193D01*
X144372029Y-78080643D01*
X144525966Y-78002209D01*
X144690277Y-77948821D01*
X144860917Y-77921794D01*
X144947300Y-77918400D01*
X148397300Y-77918400D01*
X148483683Y-77921794D01*
G37*
G36*
X193147332Y-76608044D02*
G01*
X193301459Y-76671885D01*
X193440169Y-76764568D01*
X193558132Y-76882531D01*
X193650815Y-77021241D01*
X193714656Y-77175368D01*
X193747202Y-77338987D01*
X193751300Y-77422400D01*
X193751300Y-77822400D01*
X193747202Y-77905813D01*
X193714656Y-78069432D01*
X193650815Y-78223559D01*
X193558132Y-78362269D01*
X193440169Y-78480232D01*
X193301459Y-78572915D01*
X193147332Y-78636756D01*
X192983713Y-78669302D01*
X192816887Y-78669302D01*
X192653268Y-78636756D01*
X192499141Y-78572915D01*
X192360431Y-78480232D01*
X192242468Y-78362269D01*
X192149785Y-78223559D01*
X192085944Y-78069432D01*
X192053398Y-77905813D01*
X192049300Y-77822400D01*
X192049300Y-77422400D01*
X192053398Y-77338987D01*
X192085944Y-77175368D01*
X192149785Y-77021241D01*
X192242468Y-76882531D01*
X192360431Y-76764568D01*
X192499141Y-76671885D01*
X192653268Y-76608044D01*
X192816887Y-76575498D01*
X192983713Y-76575498D01*
X193147332Y-76608044D01*
G37*
G36*
X195687332Y-76608044D02*
G01*
X195841459Y-76671885D01*
X195980169Y-76764568D01*
X196098132Y-76882531D01*
X196190815Y-77021241D01*
X196254656Y-77175368D01*
X196287202Y-77338987D01*
X196291300Y-77422400D01*
X196291300Y-77822400D01*
X196287202Y-77905813D01*
X196254656Y-78069432D01*
X196190815Y-78223559D01*
X196098132Y-78362269D01*
X195980169Y-78480232D01*
X195841459Y-78572915D01*
X195687332Y-78636756D01*
X195523713Y-78669302D01*
X195356887Y-78669302D01*
X195193268Y-78636756D01*
X195039141Y-78572915D01*
X194900431Y-78480232D01*
X194782468Y-78362269D01*
X194689785Y-78223559D01*
X194625944Y-78069432D01*
X194593398Y-77905813D01*
X194589300Y-77822400D01*
X194589300Y-77422400D01*
X194593398Y-77338987D01*
X194625944Y-77175368D01*
X194689785Y-77021241D01*
X194782468Y-76882531D01*
X194900431Y-76764568D01*
X195039141Y-76671885D01*
X195193268Y-76608044D01*
X195356887Y-76575498D01*
X195523713Y-76575498D01*
X195687332Y-76608044D01*
G37*
G36*
X198227332Y-76608044D02*
G01*
X198381459Y-76671885D01*
X198520169Y-76764568D01*
X198638132Y-76882531D01*
X198730815Y-77021241D01*
X198794656Y-77175368D01*
X198827202Y-77338987D01*
X198831300Y-77422400D01*
X198831300Y-77822400D01*
X198827202Y-77905813D01*
X198794656Y-78069432D01*
X198730815Y-78223559D01*
X198638132Y-78362269D01*
X198520169Y-78480232D01*
X198381459Y-78572915D01*
X198227332Y-78636756D01*
X198063713Y-78669302D01*
X197896887Y-78669302D01*
X197733268Y-78636756D01*
X197579141Y-78572915D01*
X197440431Y-78480232D01*
X197322468Y-78362269D01*
X197229785Y-78223559D01*
X197165944Y-78069432D01*
X197133398Y-77905813D01*
X197129300Y-77822400D01*
X197129300Y-77422400D01*
X197133398Y-77338987D01*
X197165944Y-77175368D01*
X197229785Y-77021241D01*
X197322468Y-76882531D01*
X197440431Y-76764568D01*
X197579141Y-76671885D01*
X197733268Y-76608044D01*
X197896887Y-76575498D01*
X198063713Y-76575498D01*
X198227332Y-76608044D01*
G37*
G36*
X200767332Y-76608044D02*
G01*
X200921459Y-76671885D01*
X201060169Y-76764568D01*
X201178132Y-76882531D01*
X201270815Y-77021241D01*
X201334656Y-77175368D01*
X201367202Y-77338987D01*
X201371300Y-77422400D01*
X201371300Y-77822400D01*
X201367202Y-77905813D01*
X201334656Y-78069432D01*
X201270815Y-78223559D01*
X201178132Y-78362269D01*
X201060169Y-78480232D01*
X200921459Y-78572915D01*
X200767332Y-78636756D01*
X200603713Y-78669302D01*
X200436887Y-78669302D01*
X200273268Y-78636756D01*
X200119141Y-78572915D01*
X199980431Y-78480232D01*
X199862468Y-78362269D01*
X199769785Y-78223559D01*
X199705944Y-78069432D01*
X199673398Y-77905813D01*
X199669300Y-77822400D01*
X199669300Y-77422400D01*
X199673398Y-77338987D01*
X199705944Y-77175368D01*
X199769785Y-77021241D01*
X199862468Y-76882531D01*
X199980431Y-76764568D01*
X200119141Y-76671885D01*
X200273268Y-76608044D01*
X200436887Y-76575498D01*
X200603713Y-76575498D01*
X200767332Y-76608044D01*
G37*
G36*
X203307332Y-76608044D02*
G01*
X203461459Y-76671885D01*
X203600169Y-76764568D01*
X203718132Y-76882531D01*
X203810815Y-77021241D01*
X203874656Y-77175368D01*
X203907202Y-77338987D01*
X203911300Y-77422400D01*
X203911300Y-77822400D01*
X203907202Y-77905813D01*
X203874656Y-78069432D01*
X203810815Y-78223559D01*
X203718132Y-78362269D01*
X203600169Y-78480232D01*
X203461459Y-78572915D01*
X203307332Y-78636756D01*
X203143713Y-78669302D01*
X202976887Y-78669302D01*
X202813268Y-78636756D01*
X202659141Y-78572915D01*
X202520431Y-78480232D01*
X202402468Y-78362269D01*
X202309785Y-78223559D01*
X202245944Y-78069432D01*
X202213398Y-77905813D01*
X202209300Y-77822400D01*
X202209300Y-77422400D01*
X202213398Y-77338987D01*
X202245944Y-77175368D01*
X202309785Y-77021241D01*
X202402468Y-76882531D01*
X202520431Y-76764568D01*
X202659141Y-76671885D01*
X202813268Y-76608044D01*
X202976887Y-76575498D01*
X203143713Y-76575498D01*
X203307332Y-76608044D01*
G37*
G36*
X205847332Y-76608044D02*
G01*
X206001459Y-76671885D01*
X206140169Y-76764568D01*
X206258132Y-76882531D01*
X206350815Y-77021241D01*
X206414656Y-77175368D01*
X206447202Y-77338987D01*
X206451300Y-77422400D01*
X206451300Y-77822400D01*
X206447202Y-77905813D01*
X206414656Y-78069432D01*
X206350815Y-78223559D01*
X206258132Y-78362269D01*
X206140169Y-78480232D01*
X206001459Y-78572915D01*
X205847332Y-78636756D01*
X205683713Y-78669302D01*
X205516887Y-78669302D01*
X205353268Y-78636756D01*
X205199141Y-78572915D01*
X205060431Y-78480232D01*
X204942468Y-78362269D01*
X204849785Y-78223559D01*
X204785944Y-78069432D01*
X204753398Y-77905813D01*
X204749300Y-77822400D01*
X204749300Y-77422400D01*
X204753398Y-77338987D01*
X204785944Y-77175368D01*
X204849785Y-77021241D01*
X204942468Y-76882531D01*
X205060431Y-76764568D01*
X205199141Y-76671885D01*
X205353268Y-76608044D01*
X205516887Y-76575498D01*
X205683713Y-76575498D01*
X205847332Y-76608044D01*
G37*
G36*
X208387332Y-76608044D02*
G01*
X208541459Y-76671885D01*
X208680169Y-76764568D01*
X208798132Y-76882531D01*
X208890815Y-77021241D01*
X208954656Y-77175368D01*
X208987202Y-77338987D01*
X208991300Y-77422400D01*
X208991300Y-77822400D01*
X208987202Y-77905813D01*
X208954656Y-78069432D01*
X208890815Y-78223559D01*
X208798132Y-78362269D01*
X208680169Y-78480232D01*
X208541459Y-78572915D01*
X208387332Y-78636756D01*
X208223713Y-78669302D01*
X208056887Y-78669302D01*
X207893268Y-78636756D01*
X207739141Y-78572915D01*
X207600431Y-78480232D01*
X207482468Y-78362269D01*
X207389785Y-78223559D01*
X207325944Y-78069432D01*
X207293398Y-77905813D01*
X207289300Y-77822400D01*
X207289300Y-77422400D01*
X207293398Y-77338987D01*
X207325944Y-77175368D01*
X207389785Y-77021241D01*
X207482468Y-76882531D01*
X207600431Y-76764568D01*
X207739141Y-76671885D01*
X207893268Y-76608044D01*
X208056887Y-76575498D01*
X208223713Y-76575498D01*
X208387332Y-76608044D01*
G37*
G36*
X210927332Y-76608044D02*
G01*
X211081459Y-76671885D01*
X211220169Y-76764568D01*
X211338132Y-76882531D01*
X211430815Y-77021241D01*
X211494656Y-77175368D01*
X211527202Y-77338987D01*
X211531300Y-77422400D01*
X211531300Y-77822400D01*
X211527202Y-77905813D01*
X211494656Y-78069432D01*
X211430815Y-78223559D01*
X211338132Y-78362269D01*
X211220169Y-78480232D01*
X211081459Y-78572915D01*
X210927332Y-78636756D01*
X210763713Y-78669302D01*
X210596887Y-78669302D01*
X210433268Y-78636756D01*
X210279141Y-78572915D01*
X210140431Y-78480232D01*
X210022468Y-78362269D01*
X209929785Y-78223559D01*
X209865944Y-78069432D01*
X209833398Y-77905813D01*
X209829300Y-77822400D01*
X209829300Y-77422400D01*
X209833398Y-77338987D01*
X209865944Y-77175368D01*
X209929785Y-77021241D01*
X210022468Y-76882531D01*
X210140431Y-76764568D01*
X210279141Y-76671885D01*
X210433268Y-76608044D01*
X210596887Y-76575498D01*
X210763713Y-76575498D01*
X210927332Y-76608044D01*
G37*
G36*
X76571181Y-65048453D02*
G01*
X76938294Y-65106598D01*
X77297319Y-65202798D01*
X77644322Y-65336000D01*
X77975500Y-65504744D01*
X78287225Y-65707181D01*
X78576083Y-65941093D01*
X78838907Y-66203917D01*
X79072819Y-66492775D01*
X79275256Y-66804500D01*
X79444000Y-67135678D01*
X79577202Y-67482681D01*
X79673402Y-67841706D01*
X79731547Y-68208819D01*
X79751000Y-68580000D01*
X79731547Y-68951181D01*
X79673402Y-69318294D01*
X79577202Y-69677319D01*
X79444000Y-70024322D01*
X79275256Y-70355500D01*
X79072819Y-70667225D01*
X78838907Y-70956083D01*
X78576083Y-71218907D01*
X78287225Y-71452819D01*
X77975500Y-71655256D01*
X77644322Y-71824000D01*
X77297319Y-71957202D01*
X76938294Y-72053402D01*
X76571181Y-72111547D01*
X76200000Y-72131000D01*
X75828819Y-72111547D01*
X75461706Y-72053402D01*
X75102681Y-71957202D01*
X74755678Y-71824000D01*
X74424500Y-71655256D01*
X74112775Y-71452819D01*
X73823917Y-71218907D01*
X73561093Y-70956083D01*
X73327181Y-70667225D01*
X73124744Y-70355500D01*
X72956000Y-70024322D01*
X72822798Y-69677319D01*
X72726598Y-69318294D01*
X72668453Y-68951181D01*
X72649000Y-68580000D01*
X72668453Y-68208819D01*
X72726598Y-67841706D01*
X72822798Y-67482681D01*
X72956000Y-67135678D01*
X73124744Y-66804500D01*
X73327181Y-66492775D01*
X73561093Y-66203917D01*
X73823917Y-65941093D01*
X74112775Y-65707181D01*
X74424500Y-65504744D01*
X74755678Y-65336000D01*
X75102681Y-65202798D01*
X75461706Y-65106598D01*
X75828819Y-65048453D01*
X76200000Y-65029000D01*
X76571181Y-65048453D01*
G37*
G36*
X218658781Y-64946853D02*
G01*
X219025894Y-65004998D01*
X219384919Y-65101198D01*
X219731922Y-65234400D01*
X220063100Y-65403144D01*
X220374825Y-65605581D01*
X220663683Y-65839493D01*
X220926507Y-66102317D01*
X221160419Y-66391175D01*
X221362856Y-66702900D01*
X221531600Y-67034078D01*
X221664802Y-67381081D01*
X221761002Y-67740106D01*
X221819147Y-68107219D01*
X221838600Y-68478400D01*
X221819147Y-68849581D01*
X221761002Y-69216694D01*
X221664802Y-69575719D01*
X221531600Y-69922722D01*
X221362856Y-70253900D01*
X221160419Y-70565625D01*
X220926507Y-70854483D01*
X220663683Y-71117307D01*
X220374825Y-71351219D01*
X220063100Y-71553656D01*
X219731922Y-71722400D01*
X219384919Y-71855602D01*
X219025894Y-71951802D01*
X218658781Y-72009947D01*
X218287600Y-72029400D01*
X217916419Y-72009947D01*
X217549306Y-71951802D01*
X217190281Y-71855602D01*
X216843278Y-71722400D01*
X216512100Y-71553656D01*
X216200375Y-71351219D01*
X215911517Y-71117307D01*
X215648693Y-70854483D01*
X215414781Y-70565625D01*
X215212344Y-70253900D01*
X215043600Y-69922722D01*
X214910398Y-69575719D01*
X214814198Y-69216694D01*
X214756053Y-68849581D01*
X214736600Y-68478400D01*
X214756053Y-68107219D01*
X214814198Y-67740106D01*
X214910398Y-67381081D01*
X215043600Y-67034078D01*
X215212344Y-66702900D01*
X215414781Y-66391175D01*
X215648693Y-66102317D01*
X215911517Y-65839493D01*
X216200375Y-65605581D01*
X216512100Y-65403144D01*
X216843278Y-65234400D01*
X217190281Y-65101198D01*
X217549306Y-65004998D01*
X217916419Y-64946853D01*
X218287600Y-64927400D01*
X218658781Y-64946853D01*
G37*
M02*
